SplineFontDB: 3.2
FontName: poj-Garamond12-Regular
FullName: poj-Garamond 12 Regular
FamilyName: poj-Garamond 12
Weight: Regular
Copyright: POJ support by Edward Greve <edward.greve@gmail.com>\nCreated by Georg Duffner with FontForge 2.0 (http://fontforge.sf.net)
UComments: "2010-5-17: Created."
Version: 1.000
ItalicAngle: 0
UnderlinePosition: -100
UnderlineWidth: 50
Ascent: 710
Descent: 290
InvalidEm: 0
LayerCount: 3
Layer: 0 0 "Back" 1
Layer: 1 0 "Zeichenebene" 0
Layer: 2 0 "Tests" 0
PreferredKerning: 4
XUID: [1021 114 2024522534 14524]
UseXUID: 1
FSType: 0
OS2Version: 3
OS2_WeightWidthSlopeOnly: 0
OS2_UseTypoMetrics: 1
CreationTime: 1274079135
ModificationTime: 1598257406
PfmFamily: 17
TTFWeight: 400
TTFWidth: 5
LineGap: 0
VLineGap: 0
Panose: 2 2 5 2 6 2 6 2 4 3
OS2TypoAscent: 710
OS2TypoAOffset: 0
OS2TypoDescent: -290
OS2TypoDOffset: 0
OS2TypoLinegap: 0
OS2WinAscent: 910
OS2WinAOffset: 0
OS2WinDescent: 324
OS2WinDOffset: 0
HheadAscent: 710
HheadAOffset: 0
HheadDescent: -290
HheadDOffset: 0
OS2SubXSize: 650
OS2SubYSize: 699
OS2SubXOff: 0
OS2SubYOff: 140
OS2SupXSize: 650
OS2SupYSize: 699
OS2SupXOff: 0
OS2SupYOff: 479
OS2StrikeYSize: 49
OS2StrikeYPos: 258
OS2FamilyClass: 258
OS2Vendor: 'PfEd'
Lookup: 4 0 0 "'ccmp' Glyph Composition POJ" { "'ccmp' Glyph Composition POJ subtable"  } ['ccmp' ('DFLT' <'dflt' > 'latn' <'dflt' > ) ]
Lookup: 4 0 1 "'liga' Standard Ligatures lookup POJ" { "'liga' Standard Ligatures lookup POJ subtable"  } ['liga' ('DFLT' <'dflt' > 'latn' <'dflt' > ) ]
Lookup: 1 0 0 "loclDEU" { "loclDEU subtable"  } ['locl' ('latn' <'DEU ' > ) ]
Lookup: 1 0 0 "loclTRK" { "loclTRK subtable"  } ['locl' ('latn' <'TRK ' 'AZE ' 'CRT ' > ) ]
Lookup: 6 0 0 "loclCAT" { "loclCAT contextual 0"  "loclCAT contextual 1"  } ['locl' ('latn' <'CAT ' > ) ]
Lookup: 1 0 0 "Single Substitution lookup 3" { "Single Substitution lookup 3 subtable"  } []
Lookup: 1 0 0 "Single Substitution lookup 4" { "Single Substitution lookup 4 subtable"  } []

StartChar: a
Encoding: 65 97 0
GlifName: a
Width: 399
VWidth: 0
Flags: HMW
AnchorPoint: "POJ_TOP_RIGHT" 398 414 basechar 0
AnchorPoint: "cedilla" 303 8 basechar 0
AnchorPoint: "ogonek" 341 18 basechar 0
AnchorPoint: "below_accent" 178 -100 basechar 0
AnchorPoint: "top_accent" 191 550 basechar 0
LayerCount: 3
Fore
SplineSet
115 87 m 0
 115 49 145 32 164 32 c 0
 190 32 208 45 224 59 c 0
 231 65 235 74 236 99 c 10
 238 148 l 18
 239 163 237 169 229 169 c 0
 226 169 220 168 215 166 c 0
 138 140 115 110 115 87 c 0
342 32 m 0
 360 32 371 36 382 46 c 0
 388 52 398 45 398 37 c 0
 398 29 356 -14 318 -14 c 0
 261 -14 252 38 244 38 c 0
 231 38 203 -13 121 -14 c 0
 80 -14 35 26 35 65 c 0
 35 107 59 135 108 155 c 10
 210 197 l 18
 236 208 237 210 238 237 c 2
 240 301 l 2
 241 335 217 365 181 365 c 0
 157 365 128 347 120 333 c 0
 117 328 116 321 116 314 c 0
 116 309 117 305 117 300 c 0
 117 286 61 265 48 265 c 0
 42 265 40 271 40 274 c 0
 40 295 55 321 80 343 c 0
 111 371 176 414 229 414 c 0
 276 414 312 374 311 325 c 10
 306 109 l 18
 306 70 313 32 342 32 c 0
EndSplineSet
Substitution2: "Single Substitution lookup 117 subtable" a.sc
Substitution2: "Smallcaps1 subtable" a.sc
AlternateSubs2: "alternate_a subtable" a.01
Substitution2: "sups subtable" a.sups
Substitution2: "sinf subtable" a.sinf
Substitution2: "ordn subtable" a.ordn
Substitution2: "subs subtable" a.subs
EndChar

StartChar: t
Encoding: 84 116 1
GlifName: t
Width: 314
VWidth: 0
Flags: HMW
AnchorPoint: "top_right" 249 600 basechar 0
AnchorPoint: "top_right1" 253 576 basechar 0
AnchorPoint: "cedilla" 205 8 basechar 0
AnchorPoint: "below_accent" 186 -100 basechar 0
AnchorPoint: "top_accent" 133 550 basechar 0
LayerCount: 3
Fore
SplineSet
189 -14 m 0
 127 -14 85 22 85 105 c 10
 85 337 l 2
 85 349 78 352 47 352 c 0
 43 352 35 365 35 372 c 0
 35 375 38 378 40 379 c 0
 93 394 136 468 146 468 c 0
 152 468 164 467 163 458 c 10
 155 414 l 18
 153 405 167 400 180 400 c 10
 294 400 l 18
 299 400 304 388 304 376 c 0
 304 364 299 352 294 352 c 10
 195 352 l 18
 161 352 155 351 155 324 c 10
 155 135 l 18
 155 61 190 41 221 41 c 0
 260 41 280 48 296 60 c 0
 302 64 306 55 306 47 c 0
 306 36 250 -14 189 -14 c 0
EndSplineSet
Validated: 1
Substitution2: "Single Substitution lookup 85 subtable" t.f_
Substitution2: "Single Substitution lookup 73 subtable" t.f_
Substitution2: "Smallcaps1 subtable" t.sc
Substitution2: "sups subtable" t.sups
Substitution2: "sinf subtable" t.sinf
Substitution2: "ordn subtable" t.ordn
Substitution2: "subs subtable" t.subs
Position2: "rtbd subtable" dx=0 dy=0 dh=-22 dv=0
EndChar

StartChar: l
Encoding: 76 108 2
GlifName: l
Width: 240
VWidth: 0
Flags: HMW
AnchorPoint: "top_right" 222 660 basechar 0
AnchorPoint: "top_right1" 212 650 basechar 0
AnchorPoint: "cedilla" 130 8 basechar 0
AnchorPoint: "below_accent" 120 -100 basechar 0
AnchorPoint: "top_accent" 119 790 basechar 0
LayerCount: 3
Fore
SplineSet
155 62 m 2
 155 35 178 30 198 24 c 0
 209 20 221 16 221 6 c 0
 221 -2 208 -3 201 -3 c 0
 162 -3 155 2 120 2 c 0
 85 2 78 -3 39 -3 c 0
 32 -3 19 -2 19 6 c 0
 19 16 31 20 42 24 c 0
 62 30 85 35 85 62 c 2
 85 566 l 2
 85 605 72 632 39 639 c 0
 34 640 31 646 31 652 c 0
 31 658 34 663 38 664 c 0
 89 676 122 692 154 704 c 0
 155 704 155 705 156 705 c 0
 159 705 162 701 162 698 c 0
 162 686 155 652 155 562 c 2
 155 62 l 2
EndSplineSet
Validated: 1
Substitution2: "Single Substitution lookup 90 subtable" l.f_
Substitution2: "Single Substitution lookup 82 subtable" l.f_
Substitution2: "Smallcaps1 subtable" l.sc
Substitution2: "sups subtable" l.sups
Substitution2: "sinf subtable" l.sinf
Substitution2: "ordn subtable" l.ordn
Substitution2: "subs subtable" l.subs
EndChar

StartChar: o
Encoding: 79 111 3
GlifName: o
Width: 495
VWidth: 0
Flags: HMW
AnchorPoint: "POJ_TOP_RIGHT" 460 441 basechar 0
AnchorPoint: "cedilla" 300 8 basechar 0
AnchorPoint: "ogonek" 337 18 basechar 0
AnchorPoint: "below_accent" 246 -100 basechar 0
AnchorPoint: "top_accent" 246 550 basechar 0
LayerCount: 3
Fore
SplineSet
237 383 m 0
 201 383 173 374 149 343 c 0
 122 309 117 258 117 210 c 0
 117 111 175 16 255 16 c 0
 300 16 338 32 358 71 c 0
 374 102 378 150 378 189 c 0
 378 284 322 383 237 383 c 0
254 414 m 0
 370 414 460 321 460 213 c 0
 460 96 384 -14 234 -14 c 0
 122 -14 35 70 35 187 c 0
 35 298 131 414 254 414 c 0
EndSplineSet
Substitution2: "Smallcaps1 subtable" o.sc
Substitution2: "sups subtable" o.sups
Substitution2: "sinf subtable" o.sinf
Substitution2: "ordn subtable" o.ordn
Substitution2: "subs subtable" o.subs
EndChar

StartChar: h
Encoding: 72 104 4
GlifName: h
Width: 515
VWidth: 0
Flags: HMW
AnchorPoint: "cedilla" 130 8 basechar 0
AnchorPoint: "below_accent" 231 -100 basechar 0
AnchorPoint: "top_accent" 242 761 basechar 0
LayerCount: 3
Fore
SplineSet
428 68 m 2
 428 41 449 30 469 24 c 0
 480 20 492 16 492 6 c 0
 492 -2 480 -3 472 -3 c 0
 432 -3 429 2 394 2 c 0
 359 2 356 -3 316 -3 c 0
 308 -3 296 -2 296 6 c 0
 296 16 308 20 319 24 c 0
 339 30 358 41 358 68 c 2
 358 272 l 10
 358 322 308 362 265 362 c 0
 240 362 201 355 182 340 c 0
 161 323 155 309 155 268 c 2
 155 65 l 1
 156 38 173 30 193 24 c 0
 204 20 216 16 216 6 c 0
 216 -2 204 -3 196 -3 c 0
 156 -3 155 2 120 2 c 0
 85 2 79 -3 39 -3 c 0
 32 -3 19 -2 19 6 c 0
 19 16 31 20 42 24 c 0
 62 30 84 38 85 65 c 1
 85 566 l 2
 85 602 74 632 40 639 c 0
 35 640 32 646 32 652 c 0
 32 658 35 663 39 664 c 0
 90 676 123 692 155 704 c 0
 156 704 157 705 157 705 c 1
 161 705 162 701 164 698 c 1
 164 686 155 669 155 562 c 2
 155 388 l 2
 155 376 158 357 163 351 c 1
 194 374 251 414 314 414 c 0
 379 414 428 356 428 278 c 2
 428 68 l 2
EndSplineSet
Validated: 1
Substitution2: "Single Substitution lookup 90 subtable" h.f_
Substitution2: "Single Substitution lookup 82 subtable" h.f_
Substitution2: "Smallcaps1 subtable" h.sc
Substitution2: "alternate_h subtable" h.01
Substitution2: "sups subtable" h.sups
Substitution2: "sinf subtable" h.sinf
Substitution2: "ordn subtable" h.ordn
Substitution2: "subs subtable" h.subs
EndChar

StartChar: n
Encoding: 78 110 6
GlifName: n
Width: 528
VWidth: 0
Flags: HMW
AnchorPoint: "below_accent" 265 -100 basechar 0
AnchorPoint: "top_accent" 258 550 basechar 0
AnchorPoint: "top_left" 38 609 basechar 0
LayerCount: 3
Fore
SplineSet
279 366 m 0
 245 366 212 360 187 340 c 0
 175 331 160 309 160 268 c 2
 160 62 l 2
 160 35 183 30 203 24 c 0
 214 20 226 16 226 6 c 0
 226 -2 214 -3 206 -3 c 0
 166 -3 160 2 125 2 c 0
 90 2 84 -3 44 -3 c 0
 36 -3 24 -2 24 6 c 0
 24 16 36 20 47 24 c 0
 67 30 90 35 90 62 c 2
 90 277 l 2
 90.1669921875 313 85 342 51 349 c 0
 46 350 43 356 43 362 c 0
 43 368 46 373 50 374 c 0
 102 386 127 407 161 430 c 1
 164 430 168 427 168 423 c 0
 168 414 163 378 163 359 c 0
 163 353 163.585786438 348.414213562 165 347 c 1
 211.5 391.5 263 414 326 414 c 0
 391 414 439 353 439 275 c 2
 439 62 l 2
 439 35 462 30 482 24 c 0
 493 20 505 16 505 6 c 0
 505 -2 493 -3 485 -3 c 0
 445 -3 440 2 405 2 c 0
 370 2 363 -3 323 -3 c 0
 316 -3 303 -2 303 6 c 0
 303 16 315 20 326 24 c 0
 346 30 369 35 369 62 c 2
 369 272 l 2
 369 330 333 365 279 366 c 0
EndSplineSet
Validated: 33
Substitution2: "Smallcaps1 subtable" n.sc
Substitution2: "sups subtable" n.sups
Substitution2: "sinf subtable" n.sinf
Substitution2: "ordn subtable" n.ordn
Substitution2: "subs subtable" n.subs
EndChar

StartChar: m
Encoding: 77 109 7
GlifName: m
Width: 778
VWidth: 0
Flags: HMW
AnchorPoint: "cedilla" 654 8 basechar 0
AnchorPoint: "below_accent" 390 -100 basechar 0
AnchorPoint: "top_accent" 390 550 basechar 0
LayerCount: 3
Fore
SplineSet
689 62 m 2
 689 35 712 30 732 24 c 0
 743 20 755 16 755 6 c 0
 755 -2 742 -3 735 -3 c 0
 695 -3 691 2 656 2 c 0
 621 2 613 -3 573 -3 c 0
 566 -3 553 -2 553 6 c 0
 553 16 565 20 576 24 c 0
 596 30 619 35 619 62 c 2
 619 272 l 10
 619 320 582 367 539 367 c 0
 505 367 477 360 452 340 c 0
 440 331 424 308 424 268 c 2
 424 62 l 2
 424 35 449 30 469 24 c 0
 480 20 492 16 492 6 c 0
 492 -2 480 -3 472 -3 c 0
 432 -3 425 2 390 2 c 0
 355 2 347 -3 307 -3 c 0
 300 -3 287 -2 287 6 c 0
 287 16 299 20 310 24 c 0
 330 30 354 35 354 62 c 2
 354 272 l 10
 354 320 317 367 274 367 c 0
 240 367 212 360 187 340 c 0
 175 331 160 309 160 268 c 2
 160 62 l 2
 160 35 183 30 203 24 c 0
 214 20 226 16 226 6 c 0
 226 -2 214 -3 206 -3 c 0
 166 -3 160 2 125 2 c 0
 90 2 84 -3 44 -3 c 0
 36 -3 24 -2 24 6 c 0
 24 16 36 20 47 24 c 0
 67 30 90 35 90 62 c 2
 90 277 l 2
 90 313 85 342 51 349 c 0
 46 350 43 356 43 362 c 0
 43 368 46 373 50 374 c 0
 102 386 127 407 161 430 c 1
 164 430 168 427 168 423 c 0
 168 414 163 378 163 359 c 0
 163 353 163.585786438 348.414213562 165 347 c 1
 192.06008696 372.233939322 244 414 323 414 c 0
 371 414 398.296250583 395.305942146 416 354 c 0
 422.303070553 339.293834572 426.71615746 340.950040998 445 358 c 0
 470.597379557 381.869942602 524 414 589 414 c 0
 654 414 689 345 689 275 c 2
 689 62 l 2
EndSplineSet
Validated: 1
Substitution2: "Smallcaps1 subtable" m.sc
Substitution2: "sups subtable" m.sups
Substitution2: "sinf subtable" m.sinf
Substitution2: "ordn subtable" m.ordn
Substitution2: "subs subtable" m.subs
EndChar

StartChar: p
Encoding: 80 112 8
GlifName: p
Width: 519
VWidth: 0
Flags: HMW
AnchorPoint: "top_accent" 261 550 basechar 0
LayerCount: 3
Fore
SplineSet
85 -220 m 2
 85 287 l 2
 85 302 72 353 39 360 c 0
 34 361 31 367 31 373 c 0
 31 379 34 384 38 385 c 0
 89 397 122 412 154 425 c 0
 155 425 155 426 156 426 c 0
 159 426 162 421 162 417 c 0
 162 405 157 373 157 357 c 0
 157 353 157 349 158 348 c 1
 177 367 257 414 320 414 c 0
 423 414 484 319 484 225 c 0
 484 106 385 -14 259 -14 c 0
 231 -14 179 0 159 18 c 1
 156 18 155 -27 155 -33 c 2
 155 -220 l 2
 155 -247 193 -252 213 -258 c 0
 224 -262 236 -266 236 -276 c 0
 236 -284 222 -285 214 -285 c 0
 175 -285 155 -280 120 -280 c 0
 85 -280 79 -285 40 -285 c 0
 33 -285 19 -284 19 -276 c 0
 19 -266 31 -262 42 -258 c 0
 62 -252 85 -247 85 -220 c 2
274 17 m 0
 313 17 404 59 404 193 c 0
 404 347 311 369 268 369 c 0
 234 369 207 359 182 340 c 0
 167 329 158 310 156 269 c 0
 156 252 155 229 155 205 c 0
 155 171 156 136 157 115 c 0
 158 97 162 60 181 42 c 0
 196 28 230 17 274 17 c 0
EndSplineSet
Validated: 1
Substitution2: "Smallcaps1 subtable" p.sc
Substitution2: "sups subtable" p.sups
Substitution2: "sinf subtable" p.sinf
Substitution2: "ordn subtable" p.ordn
Substitution2: "subs subtable" p.subs
Position2: "rtbd subtable" dx=0 dy=0 dh=-26 dv=0
EndChar

StartChar: b
Encoding: 66 98 9
GlifName: b
Width: 515
VWidth: 0
Flags: HMW
AnchorPoint: "below_accent" 252 -100 basechar 0
LayerCount: 3
Fore
SplineSet
75 105 m 2
 75 566 l 2
 75 601 61 632 28 639 c 0
 23 640 20 646 20 652 c 0
 20 658 23 663 27 664 c 0
 78 676 108 692 140 704 c 0
 141 704 141 705 142 705 c 0
 145 705 148 701 148 698 c 0
 148 693 145 649 145 593 c 2
 145 388 l 2
 145 367 145 356 154 355 c 1
 204 397 266 414 300 414 c 0
 404 414 480 325 480 217 c 0
 480 100 410 -14 259 -14 c 0
 197 -14 127 15 113 15 c 0
 101 15 89 -3 84 -3 c 0
 76 -3 68 3 68 9 c 0
 68 11 75 52 75 105 c 2
282 17 m 0
 358 17 405 94 405 195 c 0
 405 272 360 373 265 373 c 0
 237 373 188 362 166 338 c 0
 152 323 145 306 145 253 c 2
 145 132 l 2
 145 62 212 17 282 17 c 0
EndSplineSet
Validated: 1
Substitution2: "Single Substitution lookup 90 subtable" b.f_
Substitution2: "Single Substitution lookup 82 subtable" b.f_
Substitution2: "Smallcaps1 subtable" b.sc
Substitution2: "sups subtable" b.sups
Substitution2: "sinf subtable" b.sinf
Substitution2: "ordn subtable" b.ordn
Substitution2: "subs subtable" b.subs
EndChar

StartChar: q
Encoding: 81 113 10
GlifName: q
Width: 522
VWidth: 0
Flags: HMW
AnchorPoint: "top_accent" 272 550 basechar 0
LayerCount: 3
Fore
SplineSet
410 392 m 0
 424 392 429 402 436 417 c 0
 437 418 440 421 443 421 c 0
 449 421 459 416 459 411 c 0
 459 398 447 352 447 295 c 2
 447 -220 l 2
 447 -247 479 -252 499 -258 c 0
 510 -262 522 -266 522 -276 c 0
 522 -284 510 -285 502 -285 c 0
 462 -285 448 -280 412 -280 c 0
 377 -280 371 -285 331 -285 c 0
 324 -285 311 -284 311 -276 c 0
 311 -266 323 -262 334 -258 c 0
 354 -252 377 -247 377 -220 c 2
 377 -5 l 2
 377 18 375 25 371 25 c 0
 368 25 365 23 362 20 c 0
 345 5 298 -14 235 -14 c 0
 131 -14 35 54 35 178 c 0
 35 319 135 414 282 414 c 0
 350 414 405 392 410 392 c 0
257 382 m 0
 185 382 117 320 117 205 c 0
 117 72 212 24 272 24 c 0
 306 24 333 28 358 47 c 0
 378 61 378 124 378 171 c 0
 378 207 378 250 377 275 c 0
 375 335 323 382 257 382 c 0
EndSplineSet
Validated: 1
Substitution2: "Smallcaps1 subtable" q.sc
Substitution2: "sups subtable" q.sups
Substitution2: "sinf subtable" q.sinf
Substitution2: "ordn subtable" q.ordn
Substitution2: "subs subtable" q.subs
Position2: "lfbd subtable" dx=-26 dy=0 dh=-26 dv=0
EndChar

StartChar: d
Encoding: 68 100 11
GlifName: d
Width: 506
VWidth: 0
Flags: HMW
AnchorPoint: "top_right" 489 660 basechar 0
AnchorPoint: "top_right1" 479 650 basechar 0
AnchorPoint: "cedilla" 374 8 basechar 0
AnchorPoint: "below_accent" 241 -100 basechar 0
LayerCount: 3
Fore
SplineSet
338 393 m 0
 342 388 346 384 348 384 c 0
 351 384 352 390 352 408 c 2
 352 566 l 2
 352 620 335 632 301 639 c 0
 296 640 293 646 293 652 c 0
 293 657 295 663 300 664 c 0
 373 681 408 704 422 704 c 0
 426 704 428 702 429 698 c 1
 429 686 422 652 422 562 c 2
 422 110 l 2
 422 68 427 45 443 45 c 0
 453 45 479 46 489 48 c 0
 494 49 504 47 504 35 c 0
 504 24 495 21 490 21 c 0
 438 14 402 -1 373 -13 c 0
 369 -15 355 -19 349 -19 c 0
 345 -19 346 -18 346 -15 c 0
 346 -2 351 34 351 51 c 2
 351 57 l 1
 331 26 286 -14 220 -14 c 0
 106 -14 35 89 35 190 c 0
 35 306 120 414 260 414 c 0
 288 414 332 400 338 393 c 0
229 379 m 0
 190 379 109 347 109 213 c 0
 109 62 213 31 257 31 c 0
 313 31 352 72 352 120 c 2
 352 255 l 2
 352 311 307 379 229 379 c 0
EndSplineSet
Validated: 1
Substitution2: "Smallcaps1 subtable" d.sc
Substitution2: "sups subtable" d.sups
Substitution2: "sinf subtable" d.sinf
Substitution2: "ordn subtable" d.ordn
Substitution2: "subs subtable" d.subs
EndChar

StartChar: r
Encoding: 82 114 12
GlifName: r
Width: 334
VWidth: 0
Flags: HMW
AnchorPoint: "below_accent" 131 -100 basechar 0
AnchorPoint: "top_accent" 190 550 basechar 0
LayerCount: 3
Fore
SplineSet
160 264 m 2
 160 67 l 1
 161 40 194 30 214 24 c 0
 225 20 237 16 237 6 c 0
 237 -2 224 -3 217 -3 c 0
 177 -3 165 2 130 2 c 0
 95 2 89 -3 49 -3 c 0
 42 -3 29 -2 29 6 c 0
 29 16 41 20 52 24 c 0
 72 30 89 35 90 62 c 1
 90 277 l 2
 90 313 82 342 49 349 c 0
 44 350 39 356 39 362 c 0
 39 368 44 373 48 374 c 0
 99 386 132 413 159 429 c 0
 160 429 160 430 161 430 c 0
 164 430 166 426 167 423 c 1
 167 416 166 380 164 348 c 0
 164 346 164 346 165 346 c 0
 169 346 182 365 189 371 c 0
 220 399 257 414 281 414 c 0
 309 414 329 400 329 382 c 0
 329 362 310 330 290 330 c 0
 273 330 250 348 230 348 c 0
 198 348 160 331 160 264 c 2
EndSplineSet
Validated: 1
Substitution2: "Smallcaps1 subtable" r.sc
Substitution2: "sups subtable" r.sups
Substitution2: "sinf subtable" r.sinf
Substitution2: "ordn subtable" r.ordn
Substitution2: "subs subtable" r.subs
Position2: "rtbd subtable" dx=0 dy=0 dh=-17 dv=0
EndChar

StartChar: e
Encoding: 69 101 13
GlifName: e
Width: 390
VWidth: 0
Flags: HMW
AnchorPoint: "POJ_TOP_RIGHT" 401 437 basechar 0
AnchorPoint: "cedilla" 253 8 basechar 0
AnchorPoint: "ogonek" 292 18 basechar 0
AnchorPoint: "below_accent" 214 -100 basechar 0
AnchorPoint: "top_accent" 211 550 basechar 0
LayerCount: 3
Fore
SplineSet
229 414 m 0
 306 414 360 376 360 302 c 0
 360 272 351 257 325 257 c 2
 117 257 l 2
 101 257 92 254 92 220 c 8
 92 130 153 46 243 46 c 16
 268 46 313 57 339 91 c 0
 342 94 347 98 350 98 c 0
 357 98 358 86 356 78 c 0
 346 43 290 -14 198 -14 c 0
 107 -14 30 70 30 203 c 8
 30 316 116 414 229 414 c 0
213 383 m 0
 157 383 111 329 111 303 c 0
 111 295 116 288 130 288 c 2
 212 288 l 10
 241 288 264 289 285 293 c 0
 292 294 295 310 295 321 c 8
 295 361 252 383 213 383 c 0
EndSplineSet
Substitution2: "Single Substitution lookup 119 subtable" e.xtex3
Substitution2: "Single Substitution lookup 118 subtable" e.xtex1
Substitution2: "Single Substitution lookup 116 subtable" e.xtex2
Substitution2: "Single Substitution lookup 115 subtable" e.xtex2
Substitution2: "Smallcaps1 subtable" e.sc
Substitution2: "sups subtable" e.sups
Substitution2: "sinf subtable" e.sinf
Substitution2: "ordn subtable" e.ordn
Substitution2: "subs subtable" e.subs
EndChar

StartChar: c
Encoding: 67 99 14
GlifName: c
Width: 377
VWidth: 0
Flags: HMW
AnchorPoint: "cedilla" 240 8 basechar 0
AnchorPoint: "below_accent" 199 -100 basechar 0
AnchorPoint: "top_accent" 230 550 basechar 0
LayerCount: 3
Fore
SplineSet
333 319 m 0
 324 319 313 324 308 329 c 0
 275 365 264 376 214 376 c 8
 141 376 104 299 104 226 c 16
 104 130 167 38 263 38 c 16
 305 38 325 54 351 88 c 0
 354 91 357 93 360 93 c 0
 366 93 372 86 372 79 c 0
 372 42 292 -14 206 -14 c 8
 105 -14 35 77 35 180 c 8
 35 303 123 413 246 413 c 16
 289 413 336 402 366 365 c 0
 369 361 371 357 371 353 c 0
 371 336 343 319 333 319 c 0
EndSplineSet
Validated: 1
Substitution2: "Smallcaps1 subtable" c.sc
Substitution2: "sups subtable" c.sups
Substitution2: "sinf subtable" c.sinf
Substitution2: "ordn subtable" c.ordn
Substitution2: "subs subtable" c.subs
EndChar

StartChar: u
Encoding: 85 117 15
GlifName: u
Width: 527
VWidth: 0
Flags: HMW
AnchorPoint: "POJ_TOP_RIGHT" 541 415 basechar 0
AnchorPoint: "cedilla" 383 8 basechar 0
AnchorPoint: "ogonek" 418 18 basechar 0
AnchorPoint: "below_accent" 259 -100 basechar 0
AnchorPoint: "top_accent" 251 550 basechar 0
LayerCount: 3
Fore
SplineSet
434 415 m 0
 443 415 451 405 446 397 c 0
 442 390 438 342 438 326 c 2
 438 114 l 2
 438 73 440 45 456 45 c 0
 466 45 492 46 502 48 c 0
 507 49 517 47 517 35 c 0
 517 24 508 21 503 21 c 0
 451 14 415 -1 386 -13 c 0
 382 -15 368 -19 362 -19 c 0
 358 -19 359 -18 359 -15 c 0
 359 -2 364 34 364 51 c 2
 364 57 l 1
 312 6 261 -14 199 -14 c 0
 134 -14 85 27 85 105 c 2
 85 308 l 2
 85 337 72 353 42 365 c 0
 39 366 29 370 29 380 c 0
 29 393 38.9034251917 396.813117086 44 397 c 0
 103.959703627 399.198622522 141 414 147 414 c 0
 156 414 162 410 161 400 c 0
 157 369 155 353 155 323 c 2
 155 128 l 2
 155 80 196 37 239 37 c 0
 273 37 298 38 323 57 c 0
 338 68 368 91 368 132 c 2
 368 315 l 2
 368 356 323 364 303 365 c 0
 298 365 280 368 280 382 c 0
 280 394 299.004775451 396.804600921 303 397 c 0
 402.880613734 401.88497698 417 415 434 415 c 0
EndSplineSet
Substitution2: "Smallcaps1 subtable" u.sc
Substitution2: "Single Substitution lookup 40 subtable" u.LAT
Substitution2: "sups subtable" u.sups
Substitution2: "sinf subtable" u.sinf
Substitution2: "ordn subtable" u.ordn
Substitution2: "subs subtable" u.subs
Substitution2: "loclLAT subtable" u.LAT
EndChar

StartChar: s
Encoding: 83 115 17
GlifName: s
Width: 323
VWidth: 0
Flags: HMW
AnchorPoint: "cedilla" 199 8 basechar 0
AnchorPoint: "below_accent" 167 -100 basechar 0
AnchorPoint: "top_accent" 176 550 basechar 0
LayerCount: 3
Fore
SplineSet
176 388 m 0
 138 388 113 362 113 322 c 0
 113 282 166 251 198 231 c 0
 228 212 293 172 293 106 c 0
 293 37 260 -14 149 -14 c 0
 95 -14 49 9 43 22 c 0
 36 36 31 60 30 83 c 0
 30 89 39 92 47 92 c 0
 54 92 61 90 62 85 c 0
 69 51 114 13 155 13 c 0
 203 13 225 43 225 83 c 0
 225 119 193 143 149 174 c 0
 101 208 53 247 53 296 c 0
 53 353 89 414 187 414 c 0
 227 414 252 401 262 391 c 1
 274 376 279 341 279 313 c 0
 279 310 277 309 273 309 c 0
 263 309 239 321 239 330 c 0
 238 358 209 388 176 388 c 0
EndSplineSet
Validated: 1
Substitution2: "Smallcaps1 subtable" s.sc
Substitution2: "Single Substitution lookup 45 subtable" longs
Substitution2: "sups subtable" s.sups
Substitution2: "sinf subtable" s.sinf
Substitution2: "ordn subtable" s.ordn
Substitution2: "subs subtable" s.subs
EndChar

StartChar: germandbls
Encoding: 158 223 21
GlifName: germandbls
Width: 505
VWidth: 0
Flags: HMW
LayerCount: 3
Fore
SplineSet
287 264 m 2
 263 286 246 305 246 336 c 0
 246 383 305 410 351 458 c 0
 374 482 392 519 392 555 c 0
 392 600 373 665 273 665 c 0
 210 665 160 609 160 475 c 2
 160 69 l 2
 160 41 182 30 202 24 c 0
 213 20 225 16 225 6 c 0
 225 -4 207 -3 202 -3 c 0
 163 -3 161 2 126 2 c 0
 91 2 87 -3 48 -3 c 0
 43 -3 25 -4 25 6 c 0
 25 16 37 20 48 24 c 0
 68 30 90 41 90 69 c 2
 90 350 l 1
 77 350 59 350 38 352 c 0
 34 353 27 362 27 369 c 0
 27 372 29 375 31 376 c 0
 61 384 72 392 90 402 c 1
 90 633 221 706 308 706 c 0
 393 706 455 643 455 572 c 0
 455 520 429 492 409 473 c 2
 376 443 l 1
 355 421 325 406 325 364 c 0
 325 353 328 338 344 323 c 2
 437 233 l 1
 464 205 475 179 475 140 c 0
 475 71 404 16 373 0 c 0
 349 -12 336 -12 300 -12 c 0
 284 -12 242 6 242 29 c 0
 242 46 253 84 271 84 c 0
 274 84 277 82 280 80 c 0
 307 59 335 44 366 44 c 0
 392 44 423 58 423 98 c 0
 423 134 399 156 357 196 c 2
 287 264 l 2
EndSplineSet
Validated: 1
Substitution2: "Smallcaps1 subtable" germandbls.sc
AlternateSubs2: "germandbls_variants subtable" germandbls.alt1 germandbls.alt2
EndChar

StartChar: v
Encoding: 86 118 22
GlifName: v
Width: 438
VWidth: 0
Flags: HMW
AnchorPoint: "below_accent" 218 -100 basechar 0
AnchorPoint: "top_accent" 218 550 basechar 0
LayerCount: 3
Fore
SplineSet
294 378 m 0
 283 382 271 386 271 396 c 0
 271 404 284 405 291 405 c 0
 306 405 329 400 364 400 c 0
 399 400 404 405 423 405 c 0
 430 405 443 404 443 396 c 0
 443 386 431 382 420 378 c 0
 400 372 372 344 358 311 c 18
 280 123 l 2
 275 112 243 23 243 23 c 1
 243 23 221 -22 216 -22 c 0
 211 -22 199 8 196 17 c 2
 74 329 l 10
 64 353 48 372 28 378 c 0
 17 382 5 386 5 396 c 0
 5 404 18 405 25 405 c 0
 64 405 63 400 98 400 c 0
 133 400 134 405 173 405 c 0
 180 405 193 404 193 396 c 0
 193 386 181 382 170 378 c 0
 156 374 150 356 150 337 c 0
 150 328 151 318 154 310 c 2
 228 111 l 2
 233 97 235 96 240 110 c 2
 312 295 l 2
 317 308 319 320 319 331 c 0
 319 356 308 374 294 378 c 0
EndSplineSet
Validated: 1
Substitution2: "Smallcaps1 subtable" v.sc
Substitution2: "Single Substitution lookup 41 subtable" v.LATmedi
Substitution2: "sups subtable" v.sups
Substitution2: "sinf subtable" v.sinf
Substitution2: "ordn subtable" v.ordn
Substitution2: "subs subtable" v.subs
Substitution2: "loclLAT subtable" v.LAT
Position2: "rtbd subtable" dx=0 dy=0 dh=-22 dv=0
Position2: "lfbd subtable" dx=-22 dy=0 dh=-22 dv=0
EndChar

StartChar: w
Encoding: 87 119 23
GlifName: w
Width: 685
VWidth: 0
Flags: HMW
AnchorPoint: "below_accent" 349 -100 basechar 0
AnchorPoint: "top_accent" 342 550 basechar 0
LayerCount: 3
Fore
SplineSet
614 312 m 26
 477 -16 l 2
 475 -20 472 -23 468 -23 c 0
 465 -23 462 -20 460 -16 c 2
 356 242 l 2
 352 252 349 255 343 241 c 2
 234 -16 l 2
 232 -20 229 -23 226 -23 c 0
 223 -23 220 -20 219 -16 c 2
 80 329 l 10
 70 355 48 372 28 378 c 0
 17 382 5 386 5 396 c 0
 5 404 18 405 25 405 c 0
 31 405 98 400 98 400 c 0
 98 400 174 405 181 405 c 0
 186 405 201 404 201 396 c 0
 201 386 189 382 178 378 c 0
 164 374 157 357 157 338 c 0
 157 329 159 320 162 312 c 2
 238 116 l 2
 243 102 247 103 253 117 c 2
 319 278 l 2
 323 289 325 299 325 308 c 0
 325 345 296 372 275 378 c 0
 264 381 252 386 252 396 c 0
 252 404 264 405 272 405 c 0
 290 405 310 400 347 400 c 0
 384 400 409 405 431 405 c 0
 438 405 451 404 451 396 c 0
 451 386 439 382 428 378 c 0
 413 373 394 366 394 342 c 0
 394 334 396 324 401 312 c 2
 476 119 l 2
 482 105 486 104 492 118 c 2
 568 295 l 2
 573 306 575 317 575 326 c 0
 575 355 555 373 540 378 c 0
 529 382 517 386 517 396 c 0
 517 404 530 405 537 405 c 0
 566 405 576 400 612 400 c 0
 649 400 648 405 670 405 c 0
 678 405 690 404 690 396 c 0
 690 386 678 382 667 378 c 0
 647 372 627 342 614 312 c 26
EndSplineSet
Validated: 1
Substitution2: "Smallcaps1 subtable" w.sc
Substitution2: "sups subtable" w.sups
Substitution2: "sinf subtable" w.sinf
Substitution2: "ordn subtable" w.ordn
Substitution2: "subs subtable" w.subs
Position2: "rtbd subtable" dx=0 dy=0 dh=-22 dv=0
Position2: "lfbd subtable" dx=-22 dy=0 dh=-22 dv=0
EndChar

StartChar: y
Encoding: 89 121 24
GlifName: y
Width: 438
VWidth: 0
Flags: HMW
AnchorPoint: "top_accent" 234 550 basechar 0
LayerCount: 3
Fore
SplineSet
13 -249 m 8
 13 -233 20 -219 40 -219 c 0
 55 -219 69 -225 80 -225 c 0
 88 -225 94 -222 99 -214 c 0
 120 -178 161 -93 190 -16 c 0
 192 -10 193 -2 193 7 c 0
 193 18 192 28 189 36 c 2
 73 329 l 10
 63 353 48 372 28 378 c 0
 17 382 5 386 5 396 c 0
 5 404 18 405 25 405 c 0
 65 405 63 400 98 400 c 0
 133 400 134 405 174 405 c 0
 182 405 194 402 194 394 c 0
 194 384 176 375 165 372 c 0
 151 368 145 359 145 340 c 0
 145 332 150 319 153 312 c 2
 232 116 l 2
 238 102 242 103 247 117 c 2
 314 295 l 2
 318 304 322 322 322 332 c 0
 322 357 314 365 302 370 c 0
 291 375 273 384 273 394 c 0
 273 402 286 405 293 405 c 0
 311 405 327 400 364 400 c 0
 401 400 401 405 423 405 c 0
 430 405 443 404 443 396 c 0
 443 386 431 382 420 378 c 0
 400 372 374 343 361 311 c 26
 225 -13 l 2
 221 -22 170 -148 129 -244 c 0
 117 -271 93 -285 64 -285 c 8
 40 -285 13 -271 13 -249 c 8
EndSplineSet
Validated: 1
Substitution2: "Smallcaps1 subtable" y.sc
Substitution2: "sups subtable" y.sups
Substitution2: "sinf subtable" y.sinf
Substitution2: "ordn subtable" y.ordn
Substitution2: "subs subtable" y.subs
Position2: "rtbd subtable" dx=0 dy=0 dh=-22 dv=0
EndChar

StartChar: g
Encoding: 71 103 25
GlifName: g
Width: 435
VWidth: 0
Flags: HMW
AnchorPoint: "top_accent" 206 550 basechar 0
LayerCount: 3
Fore
SplineSet
82 -134 m 0
 82 -200 130 -250 209 -250 c 0
 287 -250 357 -192 357 -109 c 0
 357 -72 310 -51 277 -44 c 0
 252 -39 202 -35 179 -34 c 0
 172 -34 162 -32 156 -34 c 1
 144 -42 119 -67 106 -80 c 1
 89 -100 82 -118 82 -134 c 0
200 386 m 8
 142.978515625 386 111 318 111 270 c 8
 111 207.287109375 150 141 207 141 c 0
 257 141 295 200 295 265 c 8
 295 324.997070312 256 386 200 386 c 8
360 295 m 0
 360 192 286 106 197 106 c 0
 187 106 158.727900015 109.245963152 143 118 c 1
 122 102 99 82 99 69 c 0
 99 41 163 31 195 28 c 0
 322 16 418 7 418 -77 c 0
 418 -187 296 -290 195 -290 c 0
 111 -290 11 -264 11 -176 c 0
 11 -129 43 -100 60 -90 c 0
 88 -72 115 -55 130 -31 c 1
 96 -24 40 -3 40 44 c 0
 40 59 49 70 63 81 c 0
 82 95 107 104 122 127 c 1
 109.386155558 130.144984643 39 183 39 258 c 0
 39 351 122 416 213 416 c 0
 258 416 277.748008122 397.186323426 320 389 c 24
 340.350585938 385.056640625 353 385 373 385 c 0
 389 385 416 388 426 388 c 0
 433 388 435 375 435 366 c 0
 435 357 432 349 426 349 c 0
 369 349 378 343 364 341 c 1
 360 330 360 310 360 295 c 0
EndSplineSet
Validated: 1
Substitution2: "Smallcaps1 subtable" g.sc
AlternateSubs2: "alternate_g subtable" g.01
Substitution2: "sups subtable" g.sups
Substitution2: "sinf subtable" g.sinf
Substitution2: "ordn subtable" g.ordn
Substitution2: "subs subtable" g.subs
EndChar

StartChar: P
Encoding: 48 80 26
GlifName: P_
Width: 552
VWidth: 0
Flags: HMW
AnchorPoint: "below_accent" 170 -100 basechar 0
AnchorPoint: "top_accent" 286 710 basechar 0
LayerCount: 3
Fore
SplineSet
441 458 m 0
 441 580 371 630 274 630 c 0
 236 630 210 618 210 588 c 2
 210 111 l 2
 210 63 227 33 277 24 c 0
 300 20 310 15 310 6 c 0
 310 -2 298 -5 281 -5 c 0
 227 -5 221 2 183 2 c 24
 132 2 107 -5 53 -5 c 0
 36 -5 24 -2 24 6 c 0
 24 15 34 20 57 24 c 0
 107 33 130 51 130 100 c 2
 130 522 l 2
 130 582 119 613 69 622 c 0
 46 626 36 633 36 642 c 0
 36 650 48 653 65 653 c 0
 119 653 122 652 163 652 c 0
 203 652 246 658 274 658 c 0
 423 658 531 590 531 482 c 0
 531 359 456 254 303 254 c 0
 274 254 258 265 258 273 c 0
 258 278 267 284 274 284 c 0
 280 284 293 279 320 279 c 0
 400 279 441 340 441 458 c 0
EndSplineSet
Validated: 1
Substitution2: "c2sc subtable" P.sc
Substitution2: "sups subtable" P.sups
Substitution2: "sinf subtable" P.sinf
Substitution2: "ordn subtable" P.ordn
Substitution2: "subs subtable" P.subs
Position2: "Single Positioning lookup 38 subtable" dx=0 dy=0 dh=75 dv=0
Position2: "Single Positioning lookup 37 subtable" dx=0 dy=0 dh=75 dv=0
Position2: "Single Positioning lookup 36 subtable" dx=0 dy=0 dh=65 dv=0
Position2: "Single Positioning lookup 35 subtable" dx=0 dy=0 dh=40 dv=0
EndChar

StartChar: M
Encoding: 45 77 27
GlifName: M_
Width: 901
VWidth: 0
Flags: HMW
AnchorPoint: "cedilla" 733 8 basechar 0
AnchorPoint: "below_accent" 406 -100 basechar 0
AnchorPoint: "top_accent" 449 710 basechar 0
LayerCount: 3
Fore
SplineSet
735 568 m 0
 735 382 749 246 757 95 c 0
 759 54 782 33 832 24 c 0
 855 20 865 15 865 6 c 0
 865 -2 853 -5 836 -5 c 0
 782 -5 765 0 719 0 c 24
 678 0 668 -5 614 -5 c 0
 597 -5 585 -2 585 6 c 0
 585 15 595 21 618 24 c 0
 657 29 669 49 669 96 c 8
 669 240 663 329 657 464 c 0
 657 475 655 480 652 480 c 0
 650 480 646 474 641 464 c 2
 419 14 l 2
 411 -3 406 -10 402 -10 c 0
 397 -10 393 1 388 16 c 0
 336 172 284 296 209 471 c 16
 203 485 198 486 196 471 c 8
 177 330 164 238 164 102 c 0
 164 76 180 33 229 24 c 0
 252 20 262 15 262 6 c 0
 262 -2 250 -5 233 -5 c 0
 179 -5 176 0 139 0 c 24
 103 0 102 -5 48 -5 c 0
 31 -5 19 -2 19 6 c 0
 19 15 29 20 52 24 c 0
 102 33 112 89 114 102 c 0
 138 282 155 454 155 538 c 0
 155 548 154 555 154 561 c 0
 154 572 150 580 139 593 c 0
 119 616 80 621 56 627 c 0
 50 629 42 635 42 644 c 0
 42 654 59 655 65 655 c 0
 102 655 205 647 231 647 c 0
 249 647 257 581 267 554 c 2
 425 153 l 2
 429 143 433 138 437 138 c 0
 440 138 444 142 448 150 c 2
 645 560 l 2
 660 592 658 648 673 648 c 2
 709 648 l 10
 752 648 800 656 820 656 c 2
 823 656 l 2
 829 656 844 655 844 646 c 0
 844 635 824 625 818 623 c 0
 784 613 735 600 735 568 c 0
EndSplineSet
Validated: 1
Substitution2: "c2sc subtable" M.sc
Substitution2: "sups subtable" M.sups
Substitution2: "sinf subtable" M.sinf
Substitution2: "ordn subtable" M.ordn
Substitution2: "subs subtable" M.subs
EndChar

StartChar: N
Encoding: 46 78 28
GlifName: N_
Width: 770
VWidth: 0
Flags: HMW
AnchorPoint: "below_accent" 405 -100 basechar 0
AnchorPoint: "top_accent" 411 710 basechar 0
LayerCount: 3
Fore
SplineSet
616 650 m 2
 664 650 670 653 731 653 c 0
 748 653 760 650 760 642 c 0
 760 633 750 626 727 622 c 0
 677 613 665 601 664 568 c 0
 663 544 662 63 662 8 c 0
 662 -13 651 -17 641 -17 c 0
 629 -17 592 2 560 46 c 0
 542 71 227 456 204 484 c 0
 194 496 188 500 183 500 c 0
 176 500 174 487 174 479 c 0
 172 380 169 227 169 104 c 0
 169 68 183 33 233 24 c 0
 256 20 266 15 266 6 c 0
 266 -2 254 -5 237 -5 c 0
 183 -5 180 0 143 0 c 24
 107 0 106 -5 52 -5 c 0
 35 -5 23 -2 23 6 c 0
 23 15 33 19 56 25 c 0
 94 35 110 66 114 107 c 0
 122 182 132 342 132 507 c 0
 132 578 92 601 33 620 c 0
 27 622 2 632 2 644 c 0
 2 656 18 658 25 658 c 0
 103 656 107 653 179 653 c 0
 191 653 196 645 203 636 c 0
 222 609 564 180 584 156 c 0
 589 150 601 136 609 136 c 0
 614 136 618 142 619 157 c 0
 620 189 621 365 621 477 c 2
 621 564 l 1
 620 590 585 615 563 619 c 0
 540 623 530 630 530 639 c 0
 530 647 542 650 559 650 c 2
 616 650 l 2
EndSplineSet
Validated: 1
Substitution2: "c2sc subtable" N.sc
Substitution2: "sups subtable" N.sups
Substitution2: "sinf subtable" N.sinf
Substitution2: "ordn subtable" N.ordn
Substitution2: "subs subtable" N.subs
EndChar

StartChar: R
Encoding: 50 82 29
GlifName: R_
Width: 713
VWidth: 0
Flags: HMW
AnchorPoint: "below_accent" 374 -100 basechar 0
AnchorPoint: "top_accent" 283 710 basechar 0
LayerCount: 3
Fore
SplineSet
413 477 m 0
 413 558 391 627 278 627 c 0
 223 627 215 603 214 573 c 0
 211 500 210 444 210 364 c 0
 210 331 230 329 263 329 c 0
 355 329 413 400 413 477 c 0
385 325 m 0
 380 323 381 318 385 312 c 0
 447 218 494 143 588 58 c 24
 623 27 656 25 703 25 c 0
 713 25 718 22 718 14 c 0
 718 -15 662 -21 637 -21 c 0
 580 -21 534 -10 499 33 c 0
 450 93 416 129 347 241 c 0
 336 259 324 270 304 280 c 24
 275 294 243 300 225 302 c 0
 214 303 210 294 210 282 c 2
 210 110 l 2
 210 67 227 33 277 24 c 0
 300 20 310 15 310 6 c 0
 310 -2 298 -5 281 -5 c 0
 227 -5 221 2 183 2 c 24
 132 2 107 -5 53 -5 c 0
 36 -5 24 -2 24 6 c 0
 24 15 34 20 57 24 c 0
 107 33 130 51 130 100 c 2
 130 522 l 2
 130 582 119 613 69 622 c 0
 46 626 36 633 36 642 c 0
 36 650 48 653 65 653 c 0
 119 653 122 652 163 652 c 0
 201 652 220 657 278 657 c 0
 424 657 503 602 503 493 c 0
 503 403 440 353 385 325 c 0
EndSplineSet
Validated: 1
Substitution2: "c2sc subtable" R.sc
Substitution2: "sups subtable" R.sups
Substitution2: "sinf subtable" R.sinf
Substitution2: "ordn subtable" R.ordn
Substitution2: "subs subtable" R.subs
EndChar

StartChar: B
Encoding: 34 66 30
GlifName: B_
Width: 578
VWidth: 0
Flags: HMW
AnchorPoint: "below_accent" 272 -100 basechar 0
AnchorPoint: "top_accent" 257 710 basechar 0
LayerCount: 3
Fore
SplineSet
254 371 m 0
 280 371 325 376 365 400 c 0
 379 408 410 437 410 495 c 0
 410 552 387 627 274 627 c 0
 219 627 208 612 208 582 c 2
 208 408 l 2
 208 373 238 371 254 371 c 0
178 0 m 0
 126 0 106 -5 48 -5 c 0
 31 -5 19 -2 19 6 c 0
 19 15 29 20 52 24 c 0
 102 33 130 51 130 99 c 2
 130 549 l 2
 130 597 112 618 63 622 c 0
 40 624 30 633 30 642 c 0
 30 650 42 653 59 653 c 0
 113 653 122 652 163 652 c 0
 201 652 216 657 274 657 c 0
 420 657 496 617 496 508 c 0
 496 463 477 427 462 412 c 0
 441 392 428 382 395 369 c 0
 390 367 389 361 395 359 c 0
 455 340 537 310 537 194 c 0
 537 84 474 51 433 30 c 0
 391 9 339 -4 273 -4 c 0
 255 -4 218 0 178 0 c 0
287 37 m 0
 365 37 443 103 443 189 c 0
 443 266 396 303 369 318 c 0
 351 328 315 343 265 343 c 0
 222 343 208 320 208 307 c 2
 208 108 l 2
 208 52 236 37 287 37 c 0
EndSplineSet
Validated: 1
Substitution2: "c2sc subtable" B.sc
Substitution2: "sups subtable" B.sups
Substitution2: "sinf subtable" B.sinf
Substitution2: "ordn subtable" B.ordn
Substitution2: "subs subtable" B.subs
EndChar

StartChar: A
Encoding: 33 65 31
GlifName: A_
Width: 692
VWidth: 0
Flags: HMW
AnchorPoint: "POJ_TOP_RIGHT" 587 633 basechar 0
AnchorPoint: "cedilla" 124 8 basechar 0
AnchorPoint: "ogonek" 508 18 basechar 0
AnchorPoint: "below_accent" 334 -100 basechar 0
AnchorPoint: "top_accent" 363 710 basechar 0
LayerCount: 3
Fore
SplineSet
668 -5 m 0
 640 -5 574 1 529 1 c 0
 490 1 448 0 424 0 c 0
 407 0 395 4 395 12 c 0
 395 21 410 28 428 31 c 0
 472 38 489 54 489 76 c 0
 489 105 466 183 451 233 c 0
 448 243 442 244 424 244 c 2
 233 244 l 2
 227 244 221 240 216 226 c 0
 207 200 176 100 176 87 c 0
 176 58 202 38 234 30 c 0
 257 24 267 19 267 10 c 0
 267 2 255 -1 238 -1 c 0
 220 -1 184 1 147 1 c 0
 103 1 60 -5 27 -5 c 0
 10 -5 -2 0 -2 8 c 0
 -2 17 9 24 31 31 c 0
 65 41 95 58 117 108 c 0
 192 279 237 393 304 578 c 0
 319 620 316 635 318 636 c 0
 330 640 342 643 354 651 c 0
 368 660 370 686 375 686 c 0
 380 686 382 671 385 662 c 0
 449 459 530 223 563 128 c 0
 591 48 624 35 664 28 c 0
 687 24 697 14 697 5 c 0
 697 -3 685 -5 668 -5 c 0
333 542 m 2
 243 302 l 2
 242 299 241 296 241 294 c 0
 241 287 249 287 262 287 c 2
 417 287 l 2
 427 287 431 287 431 292 c 0
 431 294 430 298 429 302 c 2
 350 541 l 2
 346 553 344 559 341 559 c 0
 339 559 337 553 333 542 c 2
EndSplineSet
Substitution2: "c2sc subtable" A.sc
Substitution2: "sups subtable" A.sups
Substitution2: "sinf subtable" A.sinf
Substitution2: "ordn subtable" A.ordn
Substitution2: "subs subtable" A.subs
Position2: "rtbd subtable" dx=0 dy=0 dh=-34 dv=0
Position2: "lfbd subtable" dx=-34 dy=0 dh=-34 dv=0
EndChar

StartChar: C
Encoding: 35 67 32
GlifName: C_
Width: 640
VWidth: 0
Flags: HMW
AnchorPoint: "cedilla" 426 8 basechar 0
AnchorPoint: "below_accent" 404 -100 basechar 0
AnchorPoint: "top_accent" 381 710 basechar 0
LayerCount: 3
Fore
SplineSet
586 137 m 0
 592 148 606 152 611 156 c 0
 612 157 612 157 613 157 c 0
 617 157 620 147 620 138 c 0
 620 135 619 132 619 130 c 0
 615 105 601 49 586 26 c 0
 581 18 562 13 537 5 c 0
 502 -6 429 -15 369 -15 c 8
 187 -15 46 141 46 323 c 0
 46 517 216 663 410 663 c 0
 442 663 498 657 516 651 c 0
 534 645 572 636 592 633 c 0
 600 632 604 617 605 603 c 0
 609 572 612 546 613 494 c 0
 614 485 612 470 602 471 c 0
 591 472 580 485 576 508 c 1
 571 548 553 570 541 581 c 0
 531 591 486 632 394 632 c 8
 247 632 146 494 146 347 c 8
 146 184 244 16 400 16 c 0
 512 16 560 86 586 137 c 0
EndSplineSet
Validated: 1
Substitution2: "c2sc subtable" C.sc
Substitution2: "sups subtable" C.sups
Substitution2: "sinf subtable" C.sinf
Substitution2: "ordn subtable" C.ordn
Substitution2: "subs subtable" C.subs
Position2: "lfbd subtable" dx=-32 dy=0 dh=-32 dv=0
EndChar

StartChar: I
Encoding: 41 73 33
GlifName: I_
Width: 340
VWidth: 0
Flags: HMW
AnchorPoint: "POJ_TOP_RIGHT" 327 527 basechar 0
AnchorPoint: "cedilla" 186 8 basechar 0
AnchorPoint: "ogonek" 206 18 basechar 0
AnchorPoint: "below_accent" 170 -100 basechar 0
AnchorPoint: "top_accent" 170 710 basechar 0
LayerCount: 3
Fore
SplineSet
130 550 m 2
 130 597 113 613 63 622 c 0
 40 626 30 633 30 642 c 0
 30 650 42 653 59 653 c 0
 113 653 130 650 176 650 c 24
 219 650 231 653 285 653 c 0
 302 653 314 650 314 642 c 0
 314 633 304 626 281 622 c 0
 231 613 210 597 210 550 c 2
 210 98 l 2
 210 51 239 33 289 24 c 0
 312 20 322 15 322 6 c 0
 322 -2 310 -5 293 -5 c 0
 239 -5 222 0 176 0 c 24
 126 0 102 -5 48 -5 c 0
 31 -5 19 -2 19 6 c 0
 19 15 29 20 52 24 c 0
 102 33 130 51 130 98 c 2
 130 550 l 2
EndSplineSet
Substitution2: "c2sc subtable" I.sc
Substitution2: "sups subtable" I.sups
Substitution2: "sinf subtable" I.sinf
Substitution2: "ordn subtable" I.ordn
Substitution2: "subs subtable" I.subs
EndChar

StartChar: T
Encoding: 52 84 34
GlifName: T_
Width: 670
VWidth: 0
Flags: HMW
AnchorPoint: "cedilla" 356 18 basechar 0
AnchorPoint: "below_accent" 334 -100 basechar 0
AnchorPoint: "top_accent" 341 710 basechar 0
LayerCount: 3
Fore
SplineSet
376 102 m 2
 376 54 405 33 455 24 c 0
 478 20 488 15 488 6 c 0
 488 -2 476 -5 459 -5 c 0
 405 -5 388 0 342 0 c 24
 292 0 268 -5 214 -5 c 0
 197 -5 185 -2 185 6 c 0
 185 15 195 20 218 24 c 0
 268 33 296 54 296 102 c 2
 296 557 l 2
 296 575 294 597 278 600 c 0
 259 604 238 604 204 604 c 2
 157 604 l 2
 125 604 89 591 75 565 c 0
 69 554 49 527 34 527 c 0
 29 527 27 533 27 540 c 0
 27 546 29 554 32 560 c 0
 50 598 57 629 63 671 c 0
 66 693 75 694 80 694 c 0
 85 694 99 673 105 662 c 0
 113 648 147 642 175 642 c 2
 556 642 l 2
 585 642 604 649 614 656 c 0
 634 670 649 692 664 692 c 0
 668 692 671 679 671 669 c 0
 671 666 670 662 670 660 c 0
 661 623 654 587 654 561 c 0
 654 557 654 553 654 549 c 0
 654 537 648 517 638 517 c 0
 628 517 624 532 619 558 c 0
 614 586 591 604 527 604 c 0
 475 604 450 604 432 604 c 0
 381 604 376 599 376 558 c 2
 376 102 l 2
EndSplineSet
Validated: 1
Substitution2: "c2sc subtable" T.sc
Substitution2: "sups subtable" T.sups
Substitution2: "sinf subtable" T.sinf
Substitution2: "ordn subtable" T.ordn
Substitution2: "subs subtable" T.subs
Position2: "rtbd subtable" dx=0 dy=0 dh=-33 dv=0
Position2: "lfbd subtable" dx=-33 dy=0 dh=-33 dv=0
Position2: "Single Positioning lookup 67 subtable" dx=0 dy=0 dh=170 dv=0
Position2: "Single Positioning lookup 66 subtable" dx=0 dy=0 dh=135 dv=0
Position2: "Single Positioning lookup 65 subtable" dx=0 dy=0 dh=115 dv=0
Position2: "Single Positioning lookup 64 subtable" dx=0 dy=0 dh=100 dv=0
Position2: "Single Positioning lookup 63 subtable" dx=0 dy=0 dh=80 dv=0
Position2: "Single Positioning lookup 62 subtable" dx=0 dy=0 dh=50 dv=0
Position2: "Single Positioning lookup 61 subtable" dx=0 dy=0 dh=95 dv=0
Position2: "Single Positioning lookup 60 subtable" dx=0 dy=0 dh=60 dv=0
Position2: "Single Positioning lookup 59 subtable" dx=0 dy=0 dh=40 dv=0
Position2: "Single Positioning lookup 58 subtable" dx=0 dy=0 dh=25 dv=0
Position2: "Single Positioning lookup 57 subtable" dx=0 dy=0 dh=60 dv=0
Position2: "Single Positioning lookup 56 subtable" dx=0 dy=0 dh=25 dv=0
Position2: "Single Positioning lookup 55 subtable" dx=0 dy=0 dh=10 dv=0
Position2: "Single Positioning lookup 54 subtable" dx=0 dy=0 dh=180 dv=0
Position2: "Single Positioning lookup 53 subtable" dx=0 dy=0 dh=145 dv=0
Position2: "Single Positioning lookup 52 subtable" dx=0 dy=0 dh=125 dv=0
Position2: "Single Positioning lookup 51 subtable" dx=0 dy=0 dh=110 dv=0
Position2: "Single Positioning lookup 50 subtable" dx=0 dy=0 dh=90 dv=0
Position2: "Single Positioning lookup 49 subtable" dx=0 dy=0 dh=60 dv=0
Position2: "Single Positioning lookup 48 subtable" dx=0 dy=0 dh=80 dv=0
Position2: "Single Positioning lookup 47 subtable" dx=0 dy=0 dh=80 dv=0
Position2: "Single Positioning lookup 46 subtable" dx=0 dy=0 dh=100 dv=0
Position2: "Single Positioning lookup 45 subtable" dx=0 dy=0 dh=115 dv=0
Position2: "Single Positioning lookup 44 subtable" dx=0 dy=0 dh=115 dv=0
Position2: "Single Positioning lookup 43 subtable" dx=0 dy=0 dh=100 dv=0
Position2: "Single Positioning lookup 42 subtable" dx=0 dy=0 dh=100 dv=0
Position2: "Single Positioning lookup 41 subtable" dx=0 dy=0 dh=120 dv=0
Position2: "Single Positioning lookup 40 subtable" dx=0 dy=0 dh=135 dv=0
Position2: "Single Positioning lookup 39 subtable" dx=0 dy=0 dh=135 dv=0
EndChar

StartChar: E
Encoding: 37 69 35
GlifName: E_
Width: 535
VWidth: 0
Flags: HMW
AnchorPoint: "POJ_TOP_RIGHT" 568 653 basechar 0
AnchorPoint: "cedilla" 322 8 basechar 0
AnchorPoint: "ogonek" 450 18 basechar 0
AnchorPoint: "below_accent" 280 -100 basechar 0
AnchorPoint: "top_accent" 287 710 basechar 0
LayerCount: 3
Fore
SplineSet
210 102 m 2
 210 51 231 35 276 35 c 2
 380 35 l 2
 430 35 443 43 456 53 c 0
 474 67 490 99 498 116 c 0
 502 124 505 127 512 126 c 16
 519 125 525 123 525 115 c 0
 525 97 515 38 508 12 c 0
 506 3 502 -5 494 -5 c 8
 366 -5 267 1 167 1 c 8
 122 1 106 -5 52 -5 c 0
 35 -5 23 -2 23 6 c 0
 23 15 33 20 56 24 c 0
 106 33 130 51 130 99 c 2
 130 549 l 2
 130 597 113 613 63 622 c 0
 40 626 30 633 30 642 c 0
 30 650 42 653 59 653 c 0
 134 653 166 650 236 650 c 0
 327 650 448 653 458 653 c 0
 465 653 475 651 476 644 c 0
 483 606 491 568 491 541 c 0
 491 529 483 526 477 526 c 0
 470 526 468 529 466 536 c 0
 459 558 453 581 444 591 c 0
 425 612 402 618 377 618 c 2
 246 618 l 2
 235 618 210 605 210 586 c 2
 210 374 l 2
 210 362 218 352 228 352 c 2
 324 352 l 2
 353 352 375 368 385 391 c 0
 387 396 398 408 403 408 c 0
 408 408 416 402 416 392 c 0
 416 383 413 353 413 337 c 0
 413 317 415 277 415 269 c 0
 415 260 414 252 406 252 c 8
 393 252 385 268 383 275 c 0
 373 306 354 320 337 320 c 2
 244 320 l 2
 221 320 210 317 210 294 c 2
 210 102 l 2
EndSplineSet
Substitution2: "c2sc subtable" E.sc
Substitution2: "sups subtable" E.sups
Substitution2: "sinf subtable" E.sinf
Substitution2: "ordn subtable" E.ordn
Substitution2: "subs subtable" E.subs
EndChar

StartChar: L
Encoding: 44 76 36
GlifName: L_
Width: 584
VWidth: 0
Flags: HMW
AnchorPoint: "top_right" 437 624 basechar 0
AnchorPoint: "top_right1" 437 640 basechar 0
AnchorPoint: "cedilla" 183 8 basechar 0
AnchorPoint: "below_accent" 314 -100 basechar 0
AnchorPoint: "top_accent" 186 710 basechar 0
LayerCount: 3
Fore
SplineSet
210 567 m 2
 210 96 l 2
 210 55 221 35 287 35 c 2
 433 35 l 2
 438 35 471 45 489 61 c 24
 515 84 524 96 541 132 c 0
 544 140 554 162 563 162 c 0
 571 162 575 152 575 144 c 0
 575 142 574 140 574 139 c 0
 560 87 551 54 547 12 c 0
 546 3 543 -5 533 -5 c 8
 399 -5 290 0 190 0 c 0
 140 0 55 -5 55 -5 c 2
 37 -5 27 0 27 7 c 0
 27 19 45 23 49 24 c 0
 101 34 130 52 130 96 c 2
 130 560 l 2
 130 608 119 613 69 622 c 0
 46 626 36 633 36 642 c 0
 36 650 48 653 65 653 c 0
 119 653 133 650 177 650 c 24
 226 650 249 653 303 653 c 0
 320 653 332 650 332 642 c 0
 332 633 322 626 299 622 c 0
 249 613 210 606 210 567 c 2
EndSplineSet
Validated: 1
Substitution2: "c2sc subtable" L.sc
Substitution2: "sups subtable" L.sups
Substitution2: "sinf subtable" L.sinf
Substitution2: "ordn subtable" L.ordn
Substitution2: "subs subtable" L.subs
Position2: "rtbd subtable" dx=0 dy=0 dh=-29 dv=0
EndChar

StartChar: V
Encoding: 54 86 37
GlifName: V_
Width: 672
VWidth: 0
Flags: HMW
AnchorPoint: "below_accent" 297 -100 basechar 0
AnchorPoint: "top_accent" 323 710 basechar 0
LayerCount: 3
Fore
SplineSet
535 650 m 0
 574 650 623 653 649 653 c 0
 666 653 678 650 678 642 c 0
 678 633 668 627 645 622 c 0
 596 611 562 571 547 535 c 10
 359 79 l 2
 354 66 330 -15 316 -15 c 0
 311 -15 296 28 286 56 c 18
 103 547 l 10
 89 584 67 610 33 620 c 0
 11 627 0 633 0 642 c 0
 0 650 12 653 29 653 c 0
 60 653 105 650 151 650 c 0
 191 650 233 652 253 652 c 0
 270 652 282 649 282 641 c 0
 282 632 272 625 249 621 c 0
 219 615 186 598 186 580 c 0
 186 572 192 542 195 533 c 2
 322 197 l 2
 329 178 335 169 340 169 c 0
 345 169 350 178 358 197 c 2
 499 547 l 2
 501 551 507 575 507 579 c 0
 507 595 464 613 440 620 c 0
 426 624 407 631 407 640 c 0
 407 648 419 651 436 651 c 0
 462 651 497 650 535 650 c 0
EndSplineSet
Validated: 1
Substitution2: "c2sc subtable" V.sc
Substitution2: "sups subtable" V.sups
Substitution2: "sinf subtable" V.sinf
Substitution2: "ordn subtable" V.ordn
Substitution2: "subs subtable" V.subs
Position2: "rtbd subtable" dx=0 dy=0 dh=-34 dv=0
Position2: "lfbd subtable" dx=-34 dy=0 dh=-34 dv=0
Position2: "Single Positioning lookup 82 subtable" dx=0 dy=0 dh=135 dv=0
Position2: "Single Positioning lookup 81 subtable" dx=0 dy=0 dh=100 dv=0
Position2: "Single Positioning lookup 80 subtable" dx=0 dy=0 dh=80 dv=0
Position2: "Single Positioning lookup 79 subtable" dx=0 dy=0 dh=65 dv=0
Position2: "Single Positioning lookup 78 subtable" dx=0 dy=0 dh=45 dv=0
Position2: "Single Positioning lookup 77 subtable" dx=0 dy=0 dh=15 dv=0
Position2: "Single Positioning lookup 76 subtable" dx=0 dy=0 dh=60 dv=0
Position2: "Single Positioning lookup 75 subtable" dx=0 dy=0 dh=25 dv=0
Position2: "Single Positioning lookup 74 subtable" dx=0 dy=0 dh=15 dv=0
Position2: "Single Positioning lookup 73 subtable" dx=0 dy=0 dh=135 dv=0
Position2: "Single Positioning lookup 72 subtable" dx=0 dy=0 dh=100 dv=0
Position2: "Single Positioning lookup 71 subtable" dx=0 dy=0 dh=80 dv=0
Position2: "Single Positioning lookup 70 subtable" dx=0 dy=0 dh=65 dv=0
Position2: "Single Positioning lookup 69 subtable" dx=0 dy=0 dh=45 dv=0
Position2: "Single Positioning lookup 68 subtable" dx=0 dy=0 dh=15 dv=0
EndChar

StartChar: W
Encoding: 55 87 38
GlifName: W_
Width: 916
VWidth: 0
Flags: HMW
AnchorPoint: "below_accent" 454 -100 basechar 0
AnchorPoint: "top_accent" 481 710 basechar 0
LayerCount: 3
Fore
SplineSet
294 653 m 0
 325 653 352 650 388 650 c 0
 418 650 445 652 465 652 c 0
 482 652 494 649 494 641 c 0
 494 624 453 622 453 599 c 0
 453 596 454 594 455 591 c 0
 459 579 491 497 500 478 c 0
 504 469 506 465 509 465 c 0
 511 465 514 469 518 478 c 0
 534 514 553 574 558 591 c 0
 559 594 559 596 559 598 c 0
 559 622 522 624 522 641 c 0
 522 649 534 652 551 652 c 0
 580 652 584 650 603 650 c 0
 626 650 638 653 662 653 c 0
 679 653 691 650 691 642 c 0
 691 633 681 627 658 622 c 0
 615 612 607 602 590 574 c 0
 579 555 553 494 537 451 c 0
 533 441 530 429 530 420 c 0
 530 417 530 415 531 413 c 2
 634 148 l 2
 637 141 641 145 645 154 c 0
 678 242 722 388 767 541 c 0
 771 553 773 566 773 577 c 0
 773 597 765 614 743 620 c 0
 729 624 710 631 710 640 c 0
 710 648 722 651 739 651 c 0
 765 651 785 650 811 650 c 0
 844 650 876 653 901 653 c 0
 918 653 930 650 930 642 c 0
 930 633 920 627 897 622 c 0
 848 611 826 563 815 534 c 1
 654 58 l 2
 644 30 628 -12 622 -12 c 0
 617 -12 609 -2 605 7 c 8
 552 126 529 199 482 316 c 0
 478 325 476 323 471 310 c 0
 423 197 399 133 357 15 c 0
 352 1 343 -16 335 -16 c 0
 332 -16 326 -1 321 12 c 2
 105 554 l 9
 89 588 67 610 33 620 c 0
 11 627 0 633 0 642 c 0
 0 650 12 653 29 653 c 0
 60 653 84 650 118 650 c 0
 155 650 191 652 211 652 c 0
 228 652 240 649 240 641 c 0
 240 632 230 627 207 621 c 0
 191 617 187 603 187 588 c 0
 187 567 195 545 195 545 c 1
 256 389 292 303 359 152 c 0
 366 137 370 140 374 151 c 2
 452 344 l 2
 456 354 458 361 458 367 c 0
 458 375 455 383 450 396 c 2
 393 538 l 2
 376 581 332 610 298 620 c 0
 276 627 265 633 265 642 c 0
 265 650 277 653 294 653 c 0
EndSplineSet
Validated: 1
Substitution2: "c2sc subtable" W.sc
Substitution2: "sups subtable" W.sups
Substitution2: "sinf subtable" W.sinf
Substitution2: "ordn subtable" W.ordn
Substitution2: "subs subtable" W.subs
Position2: "rtbd subtable" dx=0 dy=0 dh=-34 dv=0
Position2: "lfbd subtable" dx=-34 dy=0 dh=-34 dv=0
Position2: "Single Positioning lookup 82 subtable" dx=0 dy=0 dh=135 dv=0
Position2: "Single Positioning lookup 81 subtable" dx=0 dy=0 dh=100 dv=0
Position2: "Single Positioning lookup 80 subtable" dx=0 dy=0 dh=80 dv=0
Position2: "Single Positioning lookup 79 subtable" dx=0 dy=0 dh=65 dv=0
Position2: "Single Positioning lookup 78 subtable" dx=0 dy=0 dh=45 dv=0
Position2: "Single Positioning lookup 77 subtable" dx=0 dy=0 dh=15 dv=0
Position2: "Single Positioning lookup 76 subtable" dx=0 dy=0 dh=60 dv=0
Position2: "Single Positioning lookup 75 subtable" dx=0 dy=0 dh=25 dv=0
Position2: "Single Positioning lookup 74 subtable" dx=0 dy=0 dh=15 dv=0
Position2: "Single Positioning lookup 73 subtable" dx=0 dy=0 dh=135 dv=0
Position2: "Single Positioning lookup 72 subtable" dx=0 dy=0 dh=100 dv=0
Position2: "Single Positioning lookup 71 subtable" dx=0 dy=0 dh=80 dv=0
Position2: "Single Positioning lookup 70 subtable" dx=0 dy=0 dh=65 dv=0
Position2: "Single Positioning lookup 69 subtable" dx=0 dy=0 dh=45 dv=0
Position2: "Single Positioning lookup 68 subtable" dx=0 dy=0 dh=15 dv=0
EndChar

StartChar: period
Encoding: 14 46 39
GlifName: period
Width: 230
VWidth: 0
Flags: HMW
LayerCount: 3
Fore
SplineSet
115 96 m 24
 145 96 170 71 170 41 c 24
 170 11 145 -14 115 -14 c 24
 85 -14 60 11 60 41 c 24
 60 71 85 96 115 96 c 24
EndSplineSet
Validated: 1
Substitution2: "sups subtable" period.sups
Substitution2: "sinf subtable" period.sinf
Substitution2: "ordn subtable" period.ordn
Substitution2: "subs subtable" period.subs
Position2: "rtbd subtable" dx=0 dy=0 dh=-161 dv=0
EndChar

StartChar: G
Encoding: 39 71 40
GlifName: G_
Width: 729
VWidth: 0
Flags: HMW
AnchorPoint: "below_accent" 401 -100 basechar 0
AnchorPoint: "top_accent" 400 710 basechar 0
LayerCount: 3
Fore
SplineSet
621 624 m 0
 627 582 632 538 632 512 c 0
 632 502 625 492 617 492 c 8
 603 492 598 507 594 519 c 0
 586 540 579 553 563 572 c 0
 550 588 499 625 404 625 c 8
 249 625 144 482 144 324 c 0
 144 134 273 23 406 23 c 0
 483 23 516 48 528 60 c 0
 543 75 558 102 558 137 c 0
 558 154 560 177 560 195 c 0
 560 209 559 220 555 225 c 0
 538 247 477 256 457 256 c 0
 452 256 437 263 437 273 c 0
 437 283 452 290 457 290 c 8
 506 290 528 286 583 286 c 8
 618 286 636 290 672 290 c 0
 677 290 693 287 693 274 c 0
 693 265 677 257 672 256 c 0
 643 248 634 234 630 207 c 0
 626 178 625 157 625 132 c 2
 625 105 l 10
 625 98 628 95 631 89 c 24
 635 82 644 77 644 72 c 0
 644 67 644 55 630 53 c 0
 610 50 519 -14 392 -14 c 8
 207 -14 45 126 45 311 c 0
 45 509 214 663 413 663 c 16
 463 663 619 639 621 624 c 0
EndSplineSet
Validated: 1
Substitution2: "c2sc subtable" G.sc
Substitution2: "sups subtable" G.sups
Substitution2: "sinf subtable" G.sinf
Substitution2: "ordn subtable" G.ordn
Substitution2: "subs subtable" G.subs
Position2: "lfbd subtable" dx=-36 dy=0 dh=-36 dv=0
EndChar

StartChar: F
Encoding: 38 70 41
GlifName: F_
Width: 512
VWidth: 0
Flags: HMW
AnchorPoint: "top_accent" 279 710 basechar 0
LayerCount: 3
Fore
SplineSet
485 544 m 0
 485 532 482 523 476 523 c 0
 469 523 463 528 461 535 c 0
 454 557 447 574 438 584 c 0
 419 605 396 611 371 611 c 2
 244 611 l 2
 213 611 211 587 210 561 c 0
 209 536 209 502 209 467 c 0
 209 433 209 398 210 374 c 0
 210 363 211 352 220 352 c 0
 262 352 312 355 336 355 c 0
 365 355 387 371 397 394 c 0
 399 399 410 411 415 411 c 0
 420 411 429 404 428 395 c 0
 426 372 425 356 425 340 c 0
 425 320 426 301 428 272 c 0
 428 263 427 255 419 255 c 8
 406 255 398 271 396 278 c 0
 386 309 365 317 349 317 c 0
 332 317 315 318 299 318 c 0
 276 318 255 317 234 316 c 0
 221 315 210 308 210 291 c 0
 210 230 210 167 213 101 c 0
 215 58 229 33 279 24 c 0
 302 20 312 15 312 6 c 0
 312 -2 300 -5 283 -5 c 0
 229 -5 223 2 185 2 c 24
 136 2 113 -5 59 -5 c 0
 42 -5 30 -2 30 6 c 0
 30 15 40 20 63 24 c 0
 113 33 130 51 130 100 c 2
 130 522 l 2
 130 582 119 613 69 622 c 0
 46 626 36 633 36 642 c 0
 36 650 48 653 65 653 c 0
 138 653 168 650 237 650 c 0
 328 650 462 653 462 653 c 0
 469 653 479 651 480 644 c 0
 484 621 485 558 485 544 c 0
EndSplineSet
Validated: 1
Substitution2: "c2sc subtable" F.sc
Substitution2: "sups subtable" F.sups
Substitution2: "sinf subtable" F.sinf
Substitution2: "ordn subtable" F.ordn
Substitution2: "subs subtable" F.subs
Position2: "rtbd subtable" dx=0 dy=0 dh=-26 dv=0
EndChar

StartChar: J
Encoding: 42 74 42
GlifName: J_
Width: 300
VWidth: 0
Flags: HMW
AnchorPoint: "top_accent" 173 710 basechar 0
LayerCount: 3
Fore
SplineSet
64 -158 m 0
 111 -158 130 -97 130 0 c 2
 130 551 l 2
 130 597 112 613 64 622 c 0
 42 626 31 633 31 642 c 0
 31 650 43 653 60 653 c 0
 114 653 131 650 177 650 c 24
 214 650 217 653 271 653 c 0
 288 653 300 650 300 642 c 0
 300 633 290 626 267 622 c 0
 217 613 210 597 210 551 c 2
 210 142 l 2
 210 -68 185 -94 157 -134 c 0
 130 -173 93 -200 34 -200 c 0
 -31 -200 -69 -179 -69 -158 c 0
 -69 -131 -51 -103 -33 -103 c 0
 -7 -103 5 -111 17 -129 c 0
 32 -152 47 -158 64 -158 c 0
EndSplineSet
Validated: 1
Substitution2: "c2sc subtable" J.sc
Substitution2: "historic_j subtable" J.hist
Substitution2: "sups subtable" J.sups
Substitution2: "sinf subtable" J.sinf
Substitution2: "ordn subtable" J.ordn
Substitution2: "subs subtable" J.subs
Position2: "lfbd subtable" dx=-15 dy=0 dh=-15 dv=0
EndChar

StartChar: D
Encoding: 36 68 43
GlifName: D_
Width: 754
VWidth: 0
Flags: HMW
AnchorPoint: "cedilla" 412 8 basechar 0
AnchorPoint: "below_accent" 370 -100 basechar 0
AnchorPoint: "top_accent" 342 710 basechar 0
LayerCount: 3
Fore
SplineSet
371 -7 m 0
 351 -7 242 0 163 0 c 0
 123 0 111 -5 58 -5 c 0
 41 -5 29 -2 29 6 c 0
 29 15 39 20 62 24 c 0
 112 33 129 51 129 99 c 2
 129 549 l 2
 129 597 112 613 62 622 c 0
 39 626 29 633 29 642 c 0
 29 650 41 653 58 653 c 0
 112 653 121 651 162 651 c 2
 169 651 l 2
 212 651 313 659 340 659 c 0
 611 659 719 517 719 342 c 8
 719 150 562 -7 371 -7 c 0
209 121 m 2
 209 40 284 28 359 28 c 0
 515 28 624 151 624 325 c 0
 624 517 482 628 345 628 c 0
 258 628 209 627 209 567 c 2
 209 121 l 2
EndSplineSet
Validated: 1
Substitution2: "c2sc subtable" D.sc
Substitution2: "sups subtable" D.sups
Substitution2: "sinf subtable" D.sinf
Substitution2: "ordn subtable" D.ordn
Substitution2: "subs subtable" D.subs
Position2: "rtbd subtable" dx=0 dy=0 dh=-38 dv=0
EndChar

StartChar: Q
Encoding: 49 81 44
GlifName: Q_
Width: 806
VWidth: 0
Flags: HMW
AnchorPoint: "top_accent" 405 710 basechar 0
LayerCount: 3
Fore
SplineSet
383 626 m 0
 236 626 139 493 139 354 c 0
 139 181 264 12 430 12 c 0
 582 12 666 184 666 324 c 0
 666 478 546 626 383 626 c 0
374 -54 m 0
 354 -38 275 6 259 10 c 0
 183 30 45 141 45 307 c 0
 45 505 194 662 402 662 c 0
 577 662 761 553 761 350 c 0
 761 112 596 18 497 -8 c 0
 485 -11 483 -14 483 -17 c 0
 483 -20 484 -23 487 -26 c 0
 526 -68 557 -93 607 -129 c 0
 674 -177 724 -192 802 -192 c 0
 826 -192 849 -189 858 -185 c 0
 864 -183 871 -181 877 -181 c 0
 883 -181 888 -183 888 -189 c 0
 888 -201 885 -206 870 -215 c 0
 832 -237 790 -248 753 -248 c 0
 657 -248 596 -219 532 -173 c 0
 480 -136 440 -106 374 -54 c 0
EndSplineSet
Validated: 1
Substitution2: "Single Substitution lookup 99 subtable" Q.low
Substitution2: "Single Substitution lookup 98 subtable" Q.short
Substitution2: "Single Substitution lookup 97 subtable" Q.long
Substitution2: "Single Substitution lookup 96 subtable" Q.long
Substitution2: "c2sc subtable" Q.sc
Substitution2: "sups subtable" Q.sups
Substitution2: "sinf subtable" Q.sinf
Substitution2: "ordn subtable" Q.ordn
Substitution2: "subs subtable" Q.subs
Position2: "rtbd subtable" dx=0 dy=0 dh=-56 dv=0
Position2: "lfbd subtable" dx=-38 dy=0 dh=-38 dv=0
EndChar

StartChar: S
Encoding: 51 83 45
GlifName: S_
Width: 465
VWidth: 0
Flags: HMW
AnchorPoint: "cedilla" 265 8 basechar 0
AnchorPoint: "below_accent" 225 -100 basechar 0
AnchorPoint: "top_accent" 240 710 basechar 0
LayerCount: 3
Fore
SplineSet
223 17 m 0
 298 17 338 62 338 132 c 0
 338 198 268 263 186 318 c 0
 116 365 59 417 59 497 c 0
 59 584 140 664 260 664 c 0
 324 664 369 644 379 644 c 0
 388 644 394 631 396 621 c 0
 397 618 405 568 405 537 c 0
 405 522 403 512 398 512 c 0
 379 512 366 525 363 540 c 0
 353 598 307 631 251 631 c 0
 189 631 136 590 136 523 c 0
 136 459 218 408 269 375 c 0
 326 338 422 262 422 160 c 0
 422 80 364 -16 214 -16 c 0
 141 -16 97 0 80 8 c 0
 67 14 61 20 59 25 c 0
 48 48 41 104 41 140 c 0
 41 149 51 169 62 169 c 0
 71 169 82 135 92 103 c 0
 111 42 165 17 223 17 c 0
EndSplineSet
Validated: 1
Substitution2: "c2sc subtable" S.sc
Substitution2: "sups subtable" S.sups
Substitution2: "sinf subtable" S.sinf
Substitution2: "ordn subtable" S.ordn
Substitution2: "subs subtable" S.subs
EndChar

StartChar: O
Encoding: 47 79 46
GlifName: O_
Width: 763
VWidth: 0
Flags: HMW
AnchorPoint: "POJ_TOP_RIGHT" 718 664 basechar 0
AnchorPoint: "cedilla" 412 8 basechar 0
AnchorPoint: "ogonek" 520 18 basechar 0
AnchorPoint: "below_accent" 370 -100 basechar 0
AnchorPoint: "top_accent" 383 710 basechar 0
LayerCount: 3
Fore
SplineSet
375 625 m 0
 227 625 142 490 142 350 c 0
 142 179 247 25 395 25 c 0
 545 25 621 134 621 305 c 0
 621 495 535 625 375 625 c 0
45 320 m 0
 45 501 166 664 390 664 c 0
 564 664 718 532 718 335 c 0
 718 155 601 -14 382 -14 c 0
 205 -14 45 130 45 320 c 0
EndSplineSet
Substitution2: "c2sc subtable" O.sc
Substitution2: "sups subtable" O.sups
Substitution2: "sinf subtable" O.sinf
Substitution2: "ordn subtable" O.ordn
Substitution2: "subs subtable" O.subs
Position2: "rtbd subtable" dx=0 dy=0 dh=-38 dv=0
Position2: "lfbd subtable" dx=-38 dy=0 dh=-38 dv=0
EndChar

StartChar: H
Encoding: 40 72 47
GlifName: H_
Width: 810
VWidth: 0
Flags: HMW
AnchorPoint: "cedilla" 186 8 basechar 0
AnchorPoint: "below_accent" 423 -100 basechar 0
AnchorPoint: "top_accent" 406 710 basechar 0
LayerCount: 3
Fore
SplineSet
682 100 m 2
 682 51 687 33 737 24 c 0
 760 20 770 15 770 6 c 0
 770 -2 758 -5 741 -5 c 0
 687 -5 678 0 637 0 c 24
 595 0 584 -5 530 -5 c 0
 513 -5 501 -2 501 6 c 0
 501 15 511 20 534 24 c 0
 576 32 602 54 602 97 c 2
 602 287 l 2
 602 294 603 302 597 302 c 2
 215 302 l 2
 210 302 210 299 210 291 c 2
 210 106 l 2
 210 64 243 32 289 24 c 0
 312 20 322 15 322 6 c 0
 322 -2 310 -5 293 -5 c 0
 239 -5 222 0 176 0 c 24
 133 0 120 -5 66 -5 c 0
 49 -5 37 -2 37 6 c 0
 37 15 47 20 70 24 c 0
 120 33 130 51 130 99 c 2
 130 551 l 2
 130 597 127 613 77 622 c 0
 54 626 44 633 44 642 c 0
 44 650 56 653 73 653 c 0
 127 653 136 650 176 650 c 24
 217 650 228 653 282 653 c 0
 299 653 311 650 311 642 c 0
 311 633 301 626 278 622 c 0
 228 613 210 590 210 551 c 2
 210 359 l 2
 210 351 218 350 224 350 c 2
 595 350 l 2
 600 350 602 353 602 362 c 2
 602 552 l 2
 602 588 586 613 536 622 c 0
 513 626 503 633 503 642 c 0
 503 650 515 653 532 653 c 0
 586 653 603 650 648 650 c 24
 684 650 685 653 739 653 c 0
 756 653 768 650 768 642 c 0
 768 633 758 626 735 622 c 0
 685 613 682 590 682 552 c 2
 682 100 l 2
EndSplineSet
Validated: 1
Substitution2: "c2sc subtable" H.sc
Substitution2: "sups subtable" H.sups
Substitution2: "sinf subtable" H.sinf
Substitution2: "ordn subtable" H.ordn
Substitution2: "subs subtable" H.subs
EndChar

StartChar: U
Encoding: 53 85 48
GlifName: U_
Width: 738
VWidth: 0
Flags: HMW
AnchorPoint: "POJ_TOP_RIGHT" 742 537 basechar 0
AnchorPoint: "cedilla" 412 8 basechar 0
AnchorPoint: "ogonek" 490 18 basechar 0
AnchorPoint: "below_accent" 370 -100 basechar 0
AnchorPoint: "top_accent" 390 710 basechar 0
LayerCount: 3
Fore
SplineSet
645 547 m 0
 638 432 638 342 635 250 c 0
 630 95 519 -14 372 -14 c 0
 193 -14 103 87 103 240 c 2
 103 547 l 2
 103 595 79 614 57 620 c 0
 34 626 24 633 24 642 c 0
 24 650 36 653 53 653 c 0
 83 653 112 650 149 650 c 24
 180 650 208 652 229 652 c 0
 246 652 258 649 258 641 c 0
 258 632 247 628 225 621 c 0
 209 616 183 589 183 549 c 2
 183 268 l 2
 183 108 271 36 393 36 c 0
 530 36 592 140 592 296 c 0
 592 340 590 434 588 511 c 0
 587 562 575 612 547 620 c 0
 533 624 514 631 514 640 c 0
 514 648 526 651 543 651 c 0
 573 651 589 650 618 650 c 24
 650 650 676 653 699 653 c 0
 716 653 728 650 728 642 c 0
 728 633 718 627 695 622 c 0
 660 615 647 587 645 547 c 0
EndSplineSet
Substitution2: "c2sc subtable" U.sc
Substitution2: "Single Substitution lookup 42 subtable" U.LAT
Substitution2: "sups subtable" U.sups
Substitution2: "sinf subtable" U.sinf
Substitution2: "ordn subtable" U.ordn
Substitution2: "subs subtable" U.subs
Substitution2: "loclLAT subtable" U.LAT
EndChar

StartChar: Y
Encoding: 57 89 49
GlifName: Y_
Width: 578
VWidth: 0
Flags: HMW
AnchorPoint: "ogonek" 355 18 basechar 0
AnchorPoint: "below_accent" 302 -100 basechar 0
AnchorPoint: "top_accent" 320 710 basechar 0
LayerCount: 3
Fore
SplineSet
264 108 m 2
 264 256 l 2
 264 283 244 321 239 330 c 2
 122 522 l 2
 107 546 67 610 33 620 c 0
 11 627 0 633 0 642 c 0
 0 650 12 653 29 653 c 0
 59 653 100 650 146 650 c 24
 177 650 205 652 226 652 c 0
 243 652 255 649 255 641 c 0
 255 632 244 626 222 621 c 0
 203 616 190 611 190 596 c 0
 190 588 194 576 203 560 c 2
 295 395 l 2
 310 369 317 357 323 357 c 0
 331 357 338 367 356 395 c 0
 387 442 406 474 440 534 c 0
 453 556 458 573 458 585 c 0
 458 610 436 617 417 620 c 0
 403 622 384 631 384 640 c 0
 384 648 396 651 413 651 c 0
 443 651 459 650 488 650 c 24
 529 650 569 653 592 653 c 0
 609 653 621 650 621 642 c 0
 621 633 596 625 568 617 c 0
 533 607 516 581 480 526 c 0
 426 443 415 425 369 346 c 0
 344 303 344 295 344 256 c 2
 344 108 l 2
 344 63 373 33 423 24 c 0
 446 20 456 15 456 6 c 0
 456 -2 444 -5 427 -5 c 0
 373 -5 356 0 310 0 c 24
 260 0 236 -5 182 -5 c 0
 165 -5 153 -2 153 6 c 0
 153 15 163 20 186 24 c 0
 236 33 264 60 264 108 c 2
EndSplineSet
Validated: 1
Substitution2: "c2sc subtable" Y.sc
Substitution2: "sups subtable" Y.sups
Substitution2: "sinf subtable" Y.sinf
Substitution2: "ordn subtable" Y.ordn
Substitution2: "subs subtable" Y.subs
Position2: "rtbd subtable" dx=0 dy=0 dh=-29 dv=0
Position2: "lfbd subtable" dx=-29 dy=0 dh=-29 dv=0
Position2: "Single Positioning lookup 97 subtable" dx=0 dy=0 dh=135 dv=0
Position2: "Single Positioning lookup 96 subtable" dx=0 dy=0 dh=100 dv=0
Position2: "Single Positioning lookup 95 subtable" dx=0 dy=0 dh=80 dv=0
Position2: "Single Positioning lookup 94 subtable" dx=0 dy=0 dh=65 dv=0
Position2: "Single Positioning lookup 93 subtable" dx=0 dy=0 dh=45 dv=0
Position2: "Single Positioning lookup 92 subtable" dx=0 dy=0 dh=15 dv=0
Position2: "Single Positioning lookup 91 subtable" dx=0 dy=0 dh=60 dv=0
Position2: "Single Positioning lookup 90 subtable" dx=0 dy=0 dh=25 dv=0
Position2: "Single Positioning lookup 89 subtable" dx=0 dy=0 dh=15 dv=0
Position2: "Single Positioning lookup 88 subtable" dx=0 dy=0 dh=135 dv=0
Position2: "Single Positioning lookup 87 subtable" dx=0 dy=0 dh=100 dv=0
Position2: "Single Positioning lookup 86 subtable" dx=0 dy=0 dh=80 dv=0
Position2: "Single Positioning lookup 85 subtable" dx=0 dy=0 dh=65 dv=0
Position2: "Single Positioning lookup 84 subtable" dx=0 dy=0 dh=45 dv=0
Position2: "Single Positioning lookup 83 subtable" dx=0 dy=0 dh=15 dv=0
EndChar

StartChar: one
Encoding: 17 49 50
GlifName: one
Width: 289
VWidth: 0
Flags: HMW
LayerCount: 3
Fore
SplineSet
109 68 m 2
 109 333 l 2
 109 380 73 380 46 384 c 0
 41 384 39 390 39 395 c 0
 39 401 41 406 46 406 c 0
 106 406 106 403 145 403 c 24
 183 403 184 406 242 406 c 0
 248 406 250 401 250 396 c 0
 250 391 247 385 242 384 c 0
 214 378 181 379 181 333 c 2
 181 68 l 2
 181 29 208 28 252 22 c 0
 260 21 264 15 264 9 c 0
 264 3 260 -3 252 -3 c 0
 195 -3 187 2 145 2 c 24
 102 2 90 -3 36 -3 c 0
 29 -3 25 4 25 11 c 0
 25 17 28 22 36 22 c 0
 63 24 109 27 109 68 c 2
EndSplineSet
Validated: 1
Substitution2: "one_variants subtable" one.01
Substitution2: "'tnum' Tabular Numbers lookup 36 subtable" one.taboldstyle
Substitution2: "'lnum' Lining Figures lookup 34 subtable" one.lnum
Substitution2: "Single Substitution lookup 33 subtable" one.ordn
Substitution2: "Single Substitution lookup 32 subtable" one.subs
Substitution2: "sups subtable" one.sups
Substitution2: "sinf subtable" one.sinf
Substitution2: "ordn subtable" one.ordn
Substitution2: "subs subtable" one.subs
EndChar

StartChar: bracketleft
Encoding: 59 91 51
GlifName: bracketleft
Width: 373
VWidth: 0
Flags: HMW
LayerCount: 3
Fore
SplineSet
150 702 m 10
 315 701 l 26
 324 701 333 698 333 688 c 0
 333 678 320 674 307 673 c 2
 199 667 l 2
 184 667 160 643 160 624 c 2
 160 -105 l 2
 160 -132 177 -152 195 -154 c 2
 307 -167 l 2
 320 -169 333 -173 333 -185 c 24
 333 -197 319 -200 307 -200 c 26
 143 -200 l 18
 120 -200 112 -199 112 -175 c 2
 112 668 l 2
 112 702 118 702 150 702 c 10
EndSplineSet
Validated: 1
Substitution2: "sups subtable" bracketleft.sups
Substitution2: "sinf subtable" bracketleft.sinf
Substitution2: "ordn subtable" bracketleft.ordn
Substitution2: "subs subtable" bracketleft.subs
EndChar

StartChar: bracketright
Encoding: 61 93 52
GlifName: bracketright
Width: 373
VWidth: 0
Flags: HMW
LayerCount: 3
Fore
SplineSet
219 702 m 18
 251 702 257 702 257 668 c 2
 257 -175 l 2
 257 -199 249 -200 226 -200 c 10
 62 -200 l 26
 50 -200 36 -197 36 -185 c 24
 36 -173 49 -169 62 -167 c 2
 174 -154 l 2
 192 -152 209 -132 209 -105 c 2
 209 624 l 2
 209 643 185 667 170 667 c 2
 62 673 l 2
 49 674 36 678 36 688 c 0
 36 698 45 701 54 701 c 26
 219 702 l 18
EndSplineSet
Validated: 1
Substitution2: "sups subtable" bracketright.sups
Substitution2: "sinf subtable" bracketright.sinf
Substitution2: "ordn subtable" bracketright.ordn
Substitution2: "subs subtable" bracketright.subs
EndChar

StartChar: x
Encoding: 88 120 53
GlifName: x
Width: 430
VWidth: 0
Flags: HMW
AnchorPoint: "below_accent" 202 -100 basechar 0
AnchorPoint: "top_accent" 235 550 basechar 0
LayerCount: 3
Fore
SplineSet
220 8 m 0
 220 32 276 24 276 52 c 0
 276 57 274 63 270 70 c 2
 216 162 l 2
 213 167 210 168 208 165 c 2
 141 67 l 2
 139 64 136 56 136 48 c 0
 136 39 140 29 150 26 c 0
 161 22 173 18 173 8 c 0
 173 -2 155 -1 150 -1 c 0
 139 -1 113 1 97 1 c 0
 60 1 48 -4 30 -4 c 0
 22 -4 10 -3 10 5 c 0
 10 16 22 20 33 23 c 0
 53 29 69.9883524959 42.5393404478 100 80 c 2
 185 186 l 2
 194 197 192 201 187 209 c 2
 106 335 l 2
 90 361 80 371 60 377 c 0
 49 380 37 384 37 395 c 0
 37 405 55 404 60 404 c 0
 99 404 90 400 139 400 c 0
 163 400 167 402 190 402 c 0
 195 402 213 403 213 393 c 0
 213 376 174 382 174 362 c 0
 174 355 179 343 187 330 c 2
 227 268 l 2
 232 260 233 260 235 263 c 2
 284 338 l 2
 289 345 292 353 292 360 c 0
 292 367 289 373 279 376 c 0
 268 380 256 384 256 394 c 0
 256 404 274 403 279 403 c 0
 289 403 313 400 329 400 c 0
 366 400 375 405 392 405 c 0
 400 405 412 404 412 396 c 0
 412 386 400 382 389 378 c 0
 369 372 337 358 318 331 c 18
 253 239 l 2
 251 236 251 230 254 226 c 2
 351 65 l 2
 367 39 377 29 397 23 c 0
 408 20 420 16 420 5 c 0
 420 -3 408 -4 400 -4 c 0
 359 -4 366 0 316 0 c 0
 292 0 266 -1 243 -1 c 0
 238 -1 220 -2 220 8 c 0
EndSplineSet
Validated: 1
Substitution2: "Smallcaps1 subtable" x.sc
Substitution2: "sups subtable" x.sups
Substitution2: "sinf subtable" x.sinf
Substitution2: "ordn subtable" x.ordn
Substitution2: "subs subtable" x.subs
Position2: "rtbd subtable" dx=0 dy=0 dh=-22 dv=0
Position2: "lfbd subtable" dx=-22 dy=0 dh=-22 dv=0
EndChar

StartChar: comma
Encoding: 12 44 54
GlifName: comma
Width: 228
VWidth: 0
Flags: HMW
LayerCount: 3
Fore
SplineSet
36 -147 m 0
 24 -147 18 -142 18 -136 c 0
 18 -131 23 -126 32 -124 c 0
 75 -115 128 -85 128 -15 c 0
 128 1 111 27 89 29 c 0
 60 32 42 49 42 71 c 0
 42 98 68 117 97 117 c 0
 145 117 180 76 180 20 c 0
 180 -81 87 -147 36 -147 c 0
EndSplineSet
Validated: 1
Substitution2: "sups subtable" comma.sups
Substitution2: "sinf subtable" comma.sinf
Substitution2: "ordn subtable" comma.ordn
Substitution2: "subs subtable" comma.subs
Position2: "rtbd subtable" dx=0 dy=0 dh=-114 dv=0
EndChar

StartChar: quotedblbase
Encoding: 1575 8222 55
GlifName: quotedblbase
Width: 420
VWidth: 0
Flags: HMW
LayerCount: 3
Fore
SplineSet
289 29 m 0
 260 32 242 49 242 71 c 0
 242 98 268 117 297 117 c 0
 345 117 380 76 380 20 c 0
 380 -81 289 -145 238 -147 c 1
 236 -147 l 2
 224 -147 218 -142 218 -136 c 0
 218 -131 223 -126 232 -124 c 0
 275 -115 328 -85 328 -15 c 0
 328 1 311 27 289 29 c 0
111 29 m 0
 82 32 64 49 64 71 c 0
 64 98 90 117 119 117 c 0
 167 117 202 76 202 20 c 0
 202 -81 111 -145 60 -147 c 1
 58 -147 l 2
 46 -147 40 -142 40 -136 c 0
 40 -131 45 -126 54 -124 c 0
 97 -115 150 -85 150 -15 c 0
 150 1 133 27 111 29 c 0
EndSplineSet
Validated: 1
Position2: "rtbd subtable" dx=0 dy=0 dh=-168 dv=0
Position2: "lfbd subtable" dx=-168 dy=0 dh=-168 dv=0
EndChar

StartChar: quotesinglbase
Encoding: 1572 8218 56
GlifName: quotesinglbase
Width: 242
VWidth: 0
Flags: HMW
LayerCount: 3
Fore
SplineSet
111 29 m 0
 82 32 64 49 64 71 c 0
 64 98 90 117 119 117 c 0
 167 117 202 76 202 20 c 0
 202 -81 111 -145 60 -147 c 1
 58 -147 l 2
 46 -147 40 -142 40 -136 c 0
 40 -131 45 -126 54 -124 c 0
 97 -115 150 -85 150 -15 c 0
 150 1 133 27 111 29 c 0
EndSplineSet
Validated: 1
Position2: "rtbd subtable" dx=0 dy=0 dh=-96 dv=0
Position2: "lfbd subtable" dx=-96 dy=0 dh=-96 dv=0
EndChar

StartChar: quotedblleft
Encoding: 1573 8220 57
GlifName: quotedblleft
Width: 420
VWidth: 0
Flags: HMW
LayerCount: 3
Fore
SplineSet
131 514 m 0
 160 511 178 494 178 472 c 0
 178 445 152 426 123 426 c 0
 75 426 40 467 40 523 c 0
 40 624 131 688 182 690 c 1
 184 690 l 2
 196 690 202 685 202 679 c 0
 202 674 197 669 188 667 c 0
 145 658 92 628 92 558 c 0
 92 542 109 516 131 514 c 0
309 514 m 0
 338 511 356 494 356 472 c 0
 356 445 330 426 301 426 c 0
 253 426 218 467 218 523 c 0
 218 624 309 688 360 690 c 1
 362 690 l 2
 374 690 380 685 380 679 c 0
 380 674 375 669 366 667 c 0
 323 658 270 628 270 558 c 0
 270 542 287 516 309 514 c 0
EndSplineSet
Validated: 1
Position2: "rtbd subtable" dx=0 dy=0 dh=-168 dv=0
Position2: "lfbd subtable" dx=-168 dy=0 dh=-168 dv=0
EndChar

StartChar: quotedblright
Encoding: 1574 8221 58
GlifName: quotedblright
Width: 420
VWidth: 0
Flags: HMW
LayerCount: 3
Fore
SplineSet
289 602 m 0
 260 605 242 622 242 644 c 0
 242 671 268 690 297 690 c 0
 345 690 380 649 380 593 c 0
 380 492 289 428 238 426 c 1
 236 426 l 2
 224 426 218 431 218 437 c 0
 218 442 223 447 232 449 c 0
 275 458 328 488 328 558 c 0
 328 574 311 600 289 602 c 0
111 602 m 0
 82 605 64 622 64 644 c 0
 64 671 90 690 119 690 c 0
 167 690 202 649 202 593 c 0
 202 492 111 428 60 426 c 1
 58 426 l 2
 46 426 40 431 40 437 c 0
 40 442 45 447 54 449 c 0
 97 458 150 488 150 558 c 0
 150 574 133 600 111 602 c 0
EndSplineSet
Validated: 1
Position2: "rtbd subtable" dx=0 dy=0 dh=-210 dv=0
Position2: "lfbd subtable" dx=-126 dy=0 dh=-126 dv=0
EndChar

StartChar: quoteleft
Encoding: 1570 8216 59
GlifName: quoteleft
Width: 240
Flags: HMW
LayerCount: 3
Fore
SplineSet
131 514 m 0
 160 511 178 494 178 472 c 0
 178 445 152 426 123 426 c 0
 75 426 40 467 40 523 c 0
 40 624 131 688 182 690 c 1
 184 690 l 2
 196 690 202 685 202 679 c 0
 202 674 197 669 188 667 c 0
 145 658 92 628 92 558 c 0
 92 542 109 516 131 514 c 0
EndSplineSet
Validated: 1
Position2: "rtbd subtable" dx=0 dy=0 dh=-96 dv=0
Position2: "lfbd subtable" dx=-96 dy=0 dh=-96 dv=0
EndChar

StartChar: quoteright
Encoding: 1571 8217 60
GlifName: quoteright
Width: 240
Flags: HMW
LayerCount: 3
Fore
SplineSet
111 602 m 0
 82 605 64 622 64 644 c 0
 64 671 90 690 119 690 c 0
 167 690 202 649 202 593 c 0
 202 492 111 428 60 426 c 1
 58 426 l 2
 46 426 40 431 40 437 c 0
 40 442 45 447 54 449 c 0
 97 458 150 488 150 558 c 0
 150 574 133 600 111 602 c 0
EndSplineSet
Validated: 1
Substitution2: "Single Substitution lookup 49 subtable" quoteright.01
Position2: "rtbd subtable" dx=0 dy=0 dh=-120 dv=0
Position2: "lfbd subtable" dx=-72 dy=0 dh=-72 dv=0
EndChar

StartChar: K
Encoding: 43 75 61
GlifName: K_
Width: 681
VWidth: 0
Flags: HMW
AnchorPoint: "below_accent" 355 -100 basechar 0
AnchorPoint: "top_accent" 343 710 basechar 0
LayerCount: 3
Fore
SplineSet
659 -5 m 0
 600 -5 575 0 520 0 c 0
 495 0 484 -1 439 -1 c 0
 422 -1 410 2 410 10 c 0
 410 19 418 23 437 27 c 0
 457 32 465 39 465 47 c 0
 465 55 458 63 450 72 c 2
 238 306 l 26
 230 314 220 323 215 323 c 0
 210 323 211 309 211 302 c 0
 211 239 213 190 216 110 c 0
 218 67 230 33 280 24 c 0
 303 20 313 15 313 6 c 0
 313 -2 301 -5 284 -5 c 0
 230 -5 224 2 186 2 c 24
 137 2 114 -5 60 -5 c 0
 43 -5 31 -2 31 6 c 0
 31 15 41 20 64 24 c 0
 114 33 131 51 131 101 c 2
 131 551 l 2
 131 597 114 613 64 622 c 0
 41 626 31 633 31 642 c 0
 31 650 43 653 60 653 c 0
 114 653 128 651 172 651 c 24
 210 651 215 653 269 653 c 0
 286 653 298 650 298 642 c 0
 298 633 288 626 265 622 c 0
 215 613 211 590 211 551 c 2
 211 364 l 2
 211 359 211 345 216 345 c 0
 223 345 236 355 243 363 c 2
 443 567 l 2
 453 577 458 588 458 597 c 0
 458 608 451 617 439 620 c 0
 416 626 408 631 408 640 c 0
 408 648 420 651 437 651 c 2
 491 651 l 2
 548 651 640 655 653 655 c 0
 666 655 675 651 675 644 c 0
 675 635 665 628 642 624 c 0
 592 615 536 597 490 558 c 0
 418 497 368 448 298 371 c 24
 293 366 296 360 303 353 c 2
 545 95 l 1
 588 47 598 36 655 24 c 0
 678 19 688 15 688 6 c 0
 688 -2 676 -5 659 -5 c 0
EndSplineSet
Validated: 1
Substitution2: "c2sc subtable" K.sc
Substitution2: "sups subtable" K.sups
Substitution2: "sinf subtable" K.sinf
Substitution2: "ordn subtable" K.ordn
Substitution2: "subs subtable" K.subs
Position2: "rtbd subtable" dx=0 dy=0 dh=-34 dv=0
EndChar

StartChar: k
Encoding: 75 107 62
GlifName: k
Width: 469
VWidth: 0
Flags: HMW
AnchorPoint: "below_accent" 233 -100 basechar 0
AnchorPoint: "top_accent" 280 761 basechar 0
LayerCount: 3
Fore
SplineSet
254 9 m 0
 254 30 298 26 298 46 c 0
 298 50 295 55 291 60 c 2
 165 205 l 2
 162 208 155 207 155 199 c 0
 154 180 154 158 154 135 c 0
 154 112 154 88 155 65 c 1
 155 38 170 30 190 24 c 0
 201 20 213 16 213 6 c 0
 213 -4 195 -3 190 -3 c 0
 151 -3 155 2 120 2 c 0
 85 2 81 -3 42 -3 c 0
 37 -3 19 -4 19 6 c 0
 19 16 31 20 42 24 c 0
 62 30 85 38 85 65 c 2
 85 566 l 2
 85 613 72 632 39 639 c 0
 34 640 31 646 31 652 c 0
 31 658 34 663 38 664 c 0
 89 676 124 692 156 704 c 0
 157 704 157 705 158 705 c 0
 161 705 164 700 164 696 c 0
 164 682 155 647 155 562 c 2
 155 231 l 2
 155 224 157 223 161 224 c 0
 170 226 181 232 196 245 c 0
 250 292 299 342 310 358 c 0
 311 359 311 360 311 361 c 0
 311 368 299 375 285 378 c 0
 282 379 273 383 273 386 c 0
 273 398 291 400 295 400 c 10
 344 400 l 2
 380 400 413 409 440 412 c 0
 443 412 448 409 448 405 c 0
 448 397 437 386 428 384 c 0
 403 379 376 364 358 353 c 0
 345 345 278 289 230 247 c 0
 225 243 223 234 227 230 c 0
 279 167 353 89 374 70 c 0
 396 49 436 28 456 22 c 0
 467 18 479 14 479 4 c 0
 479 -4 466 -5 459 -5 c 0
 407 -5 340 0 277 0 c 0
 272 0 254 -1 254 9 c 0
EndSplineSet
Validated: 1
Substitution2: "Single Substitution lookup 90 subtable" k.f_
Substitution2: "Single Substitution lookup 82 subtable" k.f_
Substitution2: "Smallcaps1 subtable" k.sc
Substitution2: "alternate_h subtable" k.01
Substitution2: "sups subtable" k.sups
Substitution2: "sinf subtable" k.sinf
Substitution2: "ordn subtable" k.ordn
Substitution2: "subs subtable" k.subs
Position2: "rtbd subtable" dx=0 dy=0 dh=-23 dv=0
EndChar

StartChar: X
Encoding: 56 88 63
GlifName: X_
Width: 707
VWidth: 0
Flags: HMW
AnchorPoint: "cedilla" 426 8 basechar 0
AnchorPoint: "below_accent" 404 -100 basechar 0
AnchorPoint: "top_accent" 381 710 basechar 0
LayerCount: 3
Fore
SplineSet
553 650 m 0
 592 650 640 656 667 656 c 0
 684 656 696 653 696 645 c 0
 696 636 686 631 663 625 c 0
 625 615 577 562 533 510 c 18
 418 374 l 2
 407 361 400 352 400 344 c 0
 400 341 402 338 404 334 c 2
 559 111 l 10
 589 67 628 36 666 26 c 0
 689 20 699 15 699 6 c 0
 699 -2 687 -5 670 -5 c 0
 642 -5 574 1 527 1 c 0
 486 1 448 0 424 0 c 0
 407 0 395 3 395 11 c 0
 395 20 414 27 428 31 c 0
 448 37 472 53 472 78 c 0
 472 88 469 99 460 111 c 2
 356 262 l 2
 346 276 341 276 334 267 c 2
 199 93 l 2
 193 85 190 77 190 70 c 0
 190 51 208 36 235 30 c 0
 258 24 268 19 268 10 c 0
 268 2 256 -1 239 -1 c 0
 221 -1 186 1 150 1 c 0
 105 1 57 -5 24 -5 c 0
 7 -5 -5 -2 -5 6 c 0
 -5 15 6 21 28 28 c 0
 62 38 129 72 171 124 c 18
 296 280 l 2
 307 295 314 308 314 317 c 0
 314 320 314 323 312 325 c 2
 167 529 l 2
 117 599 85 612 51 622 c 0
 29 629 18 635 18 644 c 0
 18 652 30 655 47 655 c 0
 80 655 140 650 190 650 c 0
 230 650 271 652 289 652 c 0
 306 652 318 649 318 641 c 0
 318 632 308 628 285 621 c 0
 252 611 234 606 234 590 c 0
 234 578 244 560 267 528 c 2
 358 400 l 2
 365 390 370 385 374 385 c 0
 378 385 382 389 388 397 c 2
 495 538 l 2
 511 558 521 576 521 589 c 0
 521 604 508 614 476 620 c 0
 462 623 443 631 443 640 c 0
 443 648 455 651 472 651 c 0
 496 651 523 650 553 650 c 0
EndSplineSet
Validated: 1
Substitution2: "c2sc subtable" X.sc
Substitution2: "sups subtable" X.sups
Substitution2: "sinf subtable" X.sinf
Substitution2: "ordn subtable" X.ordn
Substitution2: "subs subtable" X.subs
Position2: "rtbd subtable" dx=0 dy=0 dh=-35 dv=0
Position2: "lfbd subtable" dx=-35 dy=0 dh=-35 dv=0
EndChar

StartChar: Z
Encoding: 58 90 64
GlifName: Z_
Width: 603
VWidth: 0
Flags: HMW
AnchorPoint: "cedilla" 312 8 basechar 0
AnchorPoint: "below_accent" 306 -100 basechar 0
AnchorPoint: "top_accent" 315 710 basechar 0
LayerCount: 3
Fore
SplineSet
231 -2 m 0
 191 -2 150 -3 112 -3 c 2
 35 -3 l 10
 29 -3 28 11 28 11 c 1
 28 21 63 73 86 104 c 0
 222 290 301 395 428 588 c 16
 430 591 432 593 432 596 c 0
 432 600 428 603 413 604 c 0
 377 605 320 606 267 606 c 0
 228 606 190 606 165 604 c 0
 133 602 91 584 73 535 c 0
 68 523 60 503 45 503 c 0
 39 503 36 508 36 514 c 0
 36 522 40 533 43 541 c 0
 50 562 66 610 70 652 c 0
 71 667 80 669 85 669 c 0
 90 669 100 663 110 655 c 0
 118 649 154 647 183 647 c 16
 235 646 283 646 328 646 c 0
 411 646 485 647 559 649 c 0
 565 649 574 636 570 631 c 2
 509 550 l 1
 371 364 295 262 171 70 c 16
 169 67 168 62 168 58 c 0
 168 50 172 42 179 41 c 0
 208 38 248 36 292 36 c 0
 337 36 386 38 433 41 c 0
 481 45 529 76 557 142 c 0
 560 150 569 163 579 163 c 0
 585 163 588 159 588 150 c 0
 588 139 562 36 551 12 c 0
 547 4 543 -5 533 -5 c 0
 419 -5 320 -2 231 -2 c 0
EndSplineSet
Validated: 1
Substitution2: "c2sc subtable" Z.sc
Substitution2: "sups subtable" Z.sups
Substitution2: "sinf subtable" Z.sinf
Substitution2: "ordn subtable" Z.ordn
Substitution2: "subs subtable" Z.subs
EndChar

StartChar: z
Encoding: 90 122 65
GlifName: z
Width: 377
VWidth: 0
Flags: HMW
AnchorPoint: "cedilla" 230 8 basechar 0
AnchorPoint: "below_accent" 178 -100 basechar 0
AnchorPoint: "top_accent" 201 550 basechar 0
LayerCount: 3
Fore
SplineSet
256 35 m 2
 286 35 312 69 342 112 c 0
 345 117 352 136 364 136 c 0
 373 136 372 117 372 113 c 0
 372 105 349 25 344 9 c 0
 343 4 336 -5 330 -5 c 0
 301 -5 228 0 119 0 c 0
 91 0 56 -5 39 -5 c 0
 34 -5 25 7 25 12 c 0
 25 17 48 51 62 70 c 0
 129 166 175 238 248 354 c 0
 251 358 254 364 239 364 c 2
 122 364 l 2
 104 364 90 337 70 311 c 0
 65 305 53 286 43 286 c 0
 34 286 33 300 37 308 c 0
 45 327 54 373 54 398 c 0
 54 408 65 416 69 416 c 0
 72 416 78 412 84 407 c 0
 90 402 109 401 127 401 c 0
 142 401 156 402 165 402 c 0
 234 402 290 403 351 405 c 0
 356 405 361 397 358 393 c 0
 344 376 334 363 320 343 c 2
 127 50 l 2
 122 42 133 35 139 35 c 2
 256 35 l 2
EndSplineSet
Validated: 1
Substitution2: "Smallcaps1 subtable" z.sc
Substitution2: "sups subtable" z.sups
Substitution2: "sinf subtable" z.sinf
Substitution2: "ordn subtable" z.ordn
Substitution2: "subs subtable" z.subs
EndChar

StartChar: exclam
Encoding: 1 33 66
GlifName: exclam
Width: 285
VWidth: 0
Flags: HMW
LayerCount: 3
Fore
SplineSet
160 106 m 24
 193 106 220 79 220 46 c 24
 220 13 193 -14 160 -14 c 24
 127 -14 100 13 100 46 c 24
 100 79 127 106 160 106 c 24
114 598 m 8
 114 625 134 649 161 649 c 24
 188 649 206 625 206 598 c 16
 206 535 187.916244813 357.375496072 176 244 c 0
 173.679468115 221.921613923 168 205 158 205 c 0
 148 205 143 215 140 244 c 0
 128 358 114 535 114 598 c 8
EndSplineSet
Validated: 1
Substitution2: "sups subtable" exclam.sups
Substitution2: "sinf subtable" exclam.sinf
Substitution2: "ordn subtable" exclam.ordn
Substitution2: "subs subtable" exclam.subs
EndChar

StartChar: exclamdown
Encoding: 96 161 67
GlifName: exclamdown
Width: 275
VWidth: 0
Flags: HMW
LayerCount: 3
Fore
SplineSet
125 374 m 24
 92 374 65 401 65 434 c 24
 65 467 92 494 125 494 c 24
 158 494 185 467 185 434 c 24
 185 401 158 374 125 374 c 24
126 -180 m 0
 90 -180 74 -145 74 -106 c 0
 74 -43 87 87 97 205 c 0
 99 234 110 263 125 263 c 0
 135 263 145 233 147 211 c 0
 159 95 174 -21 174 -108 c 0
 174 -144 159 -180 126 -180 c 0
EndSplineSet
Validated: 1
EndChar

StartChar: quotedbl
Encoding: 2 34 68
GlifName: quotedbl
Width: 309
VWidth: 0
Flags: HMW
LayerCount: 3
Fore
SplineSet
193 620 m 0
 193 634 204 648 212 655 c 0
 228 668 239 676 255 676 c 0
 265 676 269 661 269 644 c 0
 269 592 238 505 222 469 c 0
 217 457 208 444 203 444 c 0
 198 444 196 458 196 467 c 0
 197 488 196 506 196 524 c 0
 196 560 193 619 193 620 c 0
62 620 m 0
 62 634 73 648 81 655 c 0
 97 668 108 676 124 676 c 0
 134 676 138 661 138 644 c 0
 138 592 107 505 91 469 c 0
 86 457 77 444 72 444 c 0
 67 444 65 458 65 467 c 0
 66 488 65 506 65 524 c 0
 65 560 62 619 62 620 c 0
EndSplineSet
Validated: 33
Substitution2: "sups subtable" quotedbl.sups
Substitution2: "sinf subtable" quotedbl.sinf
Substitution2: "ordn subtable" quotedbl.ordn
Substitution2: "subs subtable" quotedbl.subs
EndChar

StartChar: quotesingle
Encoding: 7 39 69
GlifName: quotesingle
Width: 178
VWidth: 0
Flags: HMW
LayerCount: 3
Fore
SplineSet
62 620 m 0
 62 634 73 648 81 655 c 0
 97 668 108 676 124 676 c 0
 134 676 138 661 138 644 c 0
 138 592 107 505 91 469 c 0
 86 457 77 444 72 444 c 0
 67 444 65 458 65 467 c 0
 66 488 66 506 66 524 c 0
 66 560 62 619 62 620 c 0
EndSplineSet
Validated: 1
Substitution2: "sups subtable" quotesingle.sups
Substitution2: "sinf subtable" quotesingle.sinf
Substitution2: "ordn subtable" quotesingle.ordn
Substitution2: "subs subtable" quotesingle.subs
EndChar

StartChar: colon
Encoding: 26 58 70
GlifName: colon
Width: 248
VWidth: 0
Flags: HMW
LayerCount: 3
Fore
SplineSet
125 96 m 24
 155 96 180 71 180 41 c 24
 180 11 155 -14 125 -14 c 24
 95 -14 70 11 70 41 c 24
 70 71 95 96 125 96 c 24
125 373 m 24
 155 373 180 348 180 318 c 24
 180 288 155 263 125 263 c 24
 95 263 70 288 70 318 c 24
 70 348 95 373 125 373 c 24
EndSplineSet
Validated: 1
Substitution2: "sups subtable" colon.sups
Substitution2: "sinf subtable" colon.sinf
Substitution2: "ordn subtable" colon.ordn
Substitution2: "subs subtable" colon.subs
Position2: "rtbd subtable" dx=0 dy=0 dh=-74 dv=0
EndChar

StartChar: semicolon
Encoding: 27 59 71
GlifName: semicolon
Width: 228
VWidth: 0
Flags: HMW
LayerCount: 3
Fore
SplineSet
36 -147 m 0
 24 -147 18 -142 18 -136 c 0
 18 -131 23 -126 32 -124 c 0
 75 -115 128 -85 128 -15 c 0
 128 1 111 27 89 29 c 0
 60 32 42 49 42 71 c 0
 42 98 68 117 97 117 c 0
 145 117 180 76 180 20 c 0
 180 -81 87 -147 36 -147 c 0
106 373 m 24
 136 373 161 348 161 318 c 24
 161 288 136 263 106 263 c 24
 76 263 51 288 51 318 c 24
 51 348 76 373 106 373 c 24
EndSplineSet
Validated: 1
Substitution2: "sups subtable" semicolon.sups
Substitution2: "sinf subtable" semicolon.sinf
Substitution2: "ordn subtable" semicolon.ordn
Substitution2: "subs subtable" semicolon.subs
Position2: "rtbd subtable" dx=0 dy=0 dh=-68 dv=0
EndChar

StartChar: dieresis
Encoding: 103 168 72
GlifName: dieresis
Width: 317
VWidth: 0
Flags: HMW
LayerCount: 3
Fore
SplineSet
247 574 m 0
 272 574 297 549 297 524 c 0
 297 499 272 474 247 474 c 0
 222 474 197 499 197 524 c 0
 197 549 222 574 247 574 c 0
70 574 m 0
 95 574 120 549 120 524 c 0
 120 499 95 474 70 474 c 0
 45 474 20 499 20 524 c 0
 20 549 45 574 70 574 c 0
EndSplineSet
Validated: 1
EndChar

StartChar: dotlessi
Encoding: 240 305 76
GlifName: dotlessi
Width: 245
VWidth: 0
Flags: HMW
AnchorPoint: "cedilla" 130 8 basechar 0
AnchorPoint: "ogonek" 169 18 basechar 0
AnchorPoint: "top_accent" 115 550 basechar 0
LayerCount: 3
Fore
SplineSet
162 434 m 0
 166 434 169 432 169 429 c 0
 165 388 160 339 160 294 c 2
 160 62 l 2
 160 35 183 30 203 24 c 0
 214 20 226 16 226 6 c 0
 226 -2 215 -3 206 -3 c 0
 168 -3 160 2 125 2 c 0
 90 2 83 -3 44 -3 c 0
 36 -3 24 -2 24 6 c 0
 24 16 36 20 47 24 c 0
 67 30 90 35 90 62 c 2
 90 279 l 2
 90 315 77 345 43 352 c 0
 38 353 35 359 35 365 c 0
 35 370 38 376 42 377 c 0
 109 393 154 434 162 434 c 0
EndSplineSet
Validated: 1
Substitution2: "Smallcaps1 subtable" dotlessi.sc
EndChar

StartChar: two
Encoding: 18 50 77
GlifName: two
Width: 422
VWidth: 0
Flags: HMW
LayerCount: 3
Fore
SplineSet
363 -4 m 0
 349 -4 259 0 192 0 c 24
 128 0 34 -3 29 -3 c 0
 26 -3 22 1 22 5 c 0
 22 9 25 13 29 17 c 0
 46 34 74 61 90 74 c 0
 112 92 226 186 226 267 c 0
 226 314 199 345 161 345 c 0
 116 345 79 335 45 297 c 0
 41 293 38 290 32 290 c 8
 26 290 25 298 25 304 c 0
 25 313 72 413 190 413 c 0
 254 413 294 353 294 290 c 0
 294 258 277 220 253 191 c 0
 223 155 142 80 132 73 c 0
 126 69 135 65 141 65 c 2
 296 65 l 2
 334 65 370 90 389 128 c 0
 392 133 399 138 408 138 c 0
 411 138 412 135 412 132 c 0
 412 130 412 128 411 126 c 0
 395 81 378 22 378 12 c 0
 378 2 365 -4 363 -4 c 0
EndSplineSet
Validated: 1
Substitution2: "'tnum' Tabular Numbers lookup 36 subtable" two.taboldstyle
Substitution2: "'lnum' Lining Figures lookup 34 subtable" two.lnum
Substitution2: "Single Substitution lookup 33 subtable" two.ordn
Substitution2: "Single Substitution lookup 32 subtable" two.subs
Substitution2: "sups subtable" two.sups
Substitution2: "sinf subtable" two.sinf
Substitution2: "ordn subtable" two.ordn
Substitution2: "subs subtable" two.subs
EndChar

StartChar: five
Encoding: 21 53 78
GlifName: five
Width: 359
VWidth: 0
Flags: HMW
LayerCount: 3
Fore
SplineSet
86 -189 m 0
 71 -189 52 -186 52 -177 c 0
 52 -167 73 -162 85 -160 c 0
 160 -147 229 -106 229 0 c 0
 229 67 171 129 108 167 c 0
 70 190 58 205 58 222 c 0
 58 276 81 330 89 347 c 0
 98 366 115 376 125 380 c 0
 165 395 257 415 272 415 c 0
 279 415 283 408 283 401 c 0
 283 376 259 333 232 328 c 0
 181 318 147 314 110 309 c 0
 103 308 91 296 91 276 c 0
 91 268 97 260 111 252 c 0
 169 220 219 178 247 150 c 0
 274 123 309 69 309 17 c 0
 309 -112 186 -189 86 -189 c 0
EndSplineSet
Validated: 1
Substitution2: "'tnum' Tabular Numbers lookup 36 subtable" five.taboldstyle
Substitution2: "'lnum' Lining Figures lookup 34 subtable" five.lnum
Substitution2: "Single Substitution lookup 33 subtable" five.ordn
Substitution2: "Single Substitution lookup 32 subtable" five.subs
Substitution2: "sups subtable" five.sups
Substitution2: "sinf subtable" five.sinf
Substitution2: "ordn subtable" five.ordn
Substitution2: "subs subtable" five.subs
EndChar

StartChar: four
Encoding: 20 52 79
GlifName: four
Width: 492
VWidth: 0
Flags: HMW
LayerCount: 3
Fore
SplineSet
266 104 m 2
 271 104 278 108 278 112 c 2
 278 281 l 2
 278 284 271 285 268 282 c 18
 116 113 l 2
 113.323477575 110.027420698 117 104 121 104 c 2
 266 104 l 2
311 377 m 2
 325.635067802 393.42604001 348 421 351 421 c 0
 357 421 354 414 354 409 c 8
 354 292 350 226 350 109 c 24
 350 106 352 103 355 103 c 16
 370 102 383 102 395 102 c 0
 414 102 432 103 454 104 c 0
 460 104 465 101 465 97 c 0
 465 81 451 53 444 53 c 0
 429 53 411 54 395 54 c 0
 383 54 372 53 364 52 c 0
 359 51 351 47 351 46 c 2
 351 -133 l 2
 351 -158 300 -181 293 -181 c 0
 285 -181 278 -178 278 -168 c 2
 278 41 l 2
 278 47 264 50 263 50 c 0
 181 50 139 44 34 43 c 0
 29 43 21 43 21 48 c 0
 21 49 24 55 25 56 c 2
 311 377 l 2
EndSplineSet
Validated: 1
Substitution2: "'tnum' Tabular Numbers lookup 36 subtable" four.taboldstyle
Substitution2: "'lnum' Lining Figures lookup 34 subtable" four.lnum
Substitution2: "Single Substitution lookup 33 subtable" four.ordn
Substitution2: "Single Substitution lookup 32 subtable" four.subs
Substitution2: "sups subtable" four.sups
Substitution2: "sinf subtable" four.sinf
Substitution2: "ordn subtable" four.ordn
Substitution2: "subs subtable" four.subs
EndChar

StartChar: seven
Encoding: 23 55 80
GlifName: seven
Width: 460
VWidth: 0
Flags: HMW
LayerCount: 3
Fore
SplineSet
344 313 m 2
 346 318 349 322 334 323 c 0
 295 324 160 326 128 326 c 2
 115 326 l 2
 95 326 71 324 55 303 c 0
 50 297 38 281 29 281 c 0
 25 281 24 284 24 289 c 0
 24 296 27 306 28 311 c 0
 35 340 40 370 40 395 c 0
 40 405 47 406 50 406 c 0
 53 406 88 403 113 402 c 0
 142 401 180 401 220 401 c 0
 309 401 407 403 426 407 c 0
 430 407 433 398 433 393 c 0
 433 377 405 340 395 323 c 2
 115 -166 l 10
 109 -177 100 -193 96 -193 c 0
 81 -193 68 -182 68 -167 c 0
 68 -163 80 -142 89 -126 c 18
 344 313 l 2
EndSplineSet
Validated: 1
Substitution2: "'tnum' Tabular Numbers lookup 36 subtable" seven.taboldstyle
Substitution2: "'lnum' Lining Figures lookup 34 subtable" seven.lnum
Substitution2: "Single Substitution lookup 33 subtable" seven.ordn
Substitution2: "Single Substitution lookup 32 subtable" seven.subs
Substitution2: "sups subtable" seven.sups
Substitution2: "sinf subtable" seven.sinf
Substitution2: "ordn subtable" seven.ordn
Substitution2: "subs subtable" seven.subs
EndChar

StartChar: six
Encoding: 22 54 81
GlifName: six
Width: 489
VWidth: 0
Flags: HMW
LayerCount: 3
Fore
SplineSet
232 -14 m 0
 100 -14 41 73 41 193 c 0
 41 342 121 436 156 477 c 0
 205 533 305 607 427 639 c 1
 432 639 l 2
 436 639 441 638 441 635 c 0
 441 623 419 616 415 614 c 0
 325 575 264 529 213 456 c 0
 179 407 124 310 124 190 c 0
 124 140 140 101 158 79 c 0
 175 58 218 22 261 22 c 0
 290 22 311 30 327 43 c 0
 349 60 370 93 370 142 c 0
 370 203 329 260 276 260 c 0
 241 260 219 257 196 245 c 0
 184 239 182 248 189 256 c 0
 199 267 205 272 216 280 c 0
 231 291 277 313 314 313 c 0
 383 313 439 262 439 190 c 0
 439 85 372 -14 232 -14 c 0
EndSplineSet
Validated: 1
Substitution2: "'tnum' Tabular Numbers lookup 36 subtable" six.taboldstyle
Substitution2: "'lnum' Lining Figures lookup 34 subtable" six.lnum
Substitution2: "Single Substitution lookup 33 subtable" six.ordn
Substitution2: "Single Substitution lookup 32 subtable" six.subs
Substitution2: "sups subtable" six.sups
Substitution2: "sinf subtable" six.sinf
Substitution2: "ordn subtable" six.ordn
Substitution2: "subs subtable" six.subs
EndChar

StartChar: nine
Encoding: 25 57 82
GlifName: nine
Width: 466
VWidth: 0
Flags: HMW
LayerCount: 3
Fore
SplineSet
251 414 m 0
 348 414 426 328 426 210 c 0
 426 96 354 6 300 -47 c 0
 245 -101 124 -176 55 -186 c 1
 50 -186 l 2
 45 -186 41 -185 41 -181 c 8
 41 -174 48 -170 55 -168 c 0
 112 -150 228 -56 270 0 c 0
 306 48 346 114 346 227 c 0
 346 310 291 378 218 378 c 0
 153 378 122 316 122 267 c 0
 122 206 167 142 220 142 c 0
 261 142 275 156 300 168 c 0
 305 170 309 161 307 157 c 0
 300 144 285 130 274 122 c 0
 259 111 219 89 182 89 c 0
 113 89 53 143 53 215 c 0
 53 306 130 414 251 414 c 0
EndSplineSet
Validated: 1
Substitution2: "'tnum' Tabular Numbers lookup 36 subtable" nine.taboldstyle
Substitution2: "'lnum' Lining Figures lookup 34 subtable" nine.lnum
Substitution2: "Single Substitution lookup 33 subtable" nine.ordn
Substitution2: "Single Substitution lookup 32 subtable" nine.subs
Substitution2: "sups subtable" nine.sups
Substitution2: "sinf subtable" nine.sinf
Substitution2: "ordn subtable" nine.ordn
Substitution2: "subs subtable" nine.subs
EndChar

StartChar: zero
Encoding: 16 48 83
GlifName: zero
Width: 507
VWidth: 0
Flags: HMW
LayerCount: 3
Fore
SplineSet
259 372 m 0
 177 372 118 301 118 204 c 0
 118 119 165 26 247 26 c 0
 329 26 389 78 389 203 c 0
 389 286 343 372 259 372 c 0
252 413 m 0
 370 413 467 320 467 203 c 16
 467 84 372 -15 254 -15 c 0
 134 -15 40 85 40 204 c 16
 40 320 136 413 252 413 c 0
EndSplineSet
Validated: 1
Substitution2: "'tnum' Tabular Numbers lookup 36 subtable" zero.taboldstyle
Substitution2: "'lnum' Lining Figures lookup 34 subtable" zero.lnum
Substitution2: "Single Substitution lookup 33 subtable" zero.ordn
Substitution2: "Single Substitution lookup 32 subtable" zero.subs
Substitution2: "sups subtable" zero.sups
Substitution2: "sinf subtable" zero.sinf
Substitution2: "ordn subtable" zero.ordn
Substitution2: "subs subtable" zero.subs
EndChar

StartChar: three
Encoding: 19 51 84
GlifName: three
Width: 372
VWidth: 0
Flags: HMW
LayerCount: 3
Fore
SplineSet
181 413 m 0
 246 413 289 372 289 309 c 0
 289 277 273 212 195 167 c 0
 191 165 191 161 196 161 c 0
 288 159 319 97 319 53 c 0
 319 -68 234 -130 155 -169 c 0
 131 -181 98 -190 86 -190 c 0
 75 -190 59 -186 59 -176 c 0
 59 -164 74 -146 86 -146 c 0
 95 -146 136 -145 153 -136 c 0
 204 -109 243 -79 243 17 c 0
 243 49 231 112 157 112 c 0
 126 112 99 92 95 92 c 0
 87 92 78 94 78 101 c 16
 78 110 97 128 109 135 c 0
 131 148 150 160 179 186 c 0
 197 202 219 239 219 292 c 0
 219 330 194 358 155 358 c 0
 110 358 86 337 59 308 c 0
 56 304 48 300 43 300 c 8
 37 300 36 305 36 312 c 0
 36 333 104 413 181 413 c 0
EndSplineSet
Validated: 1
Substitution2: "'tnum' Tabular Numbers lookup 36 subtable" three.taboldstyle
Substitution2: "'lnum' Lining Figures lookup 34 subtable" three.lnum
Substitution2: "Single Substitution lookup 33 subtable" three.ordn
Substitution2: "Single Substitution lookup 32 subtable" three.subs
Substitution2: "sups subtable" three.sups
Substitution2: "sinf subtable" three.sinf
Substitution2: "ordn subtable" three.ordn
Substitution2: "subs subtable" three.subs
EndChar

StartChar: eight
Encoding: 24 56 85
GlifName: eight
Width: 452
VWidth: 0
Flags: HMW
LayerCount: 3
Fore
SplineSet
265 340 m 0
 308 375 319 416 319 472 c 16
 319 519 284 565 237 565 c 8
 189 565 142 532 142 486 c 8
 142 414 188 393 253 340 c 0
 257 337 261 337 265 340 c 0
286 315 m 0
 356 269 403 232 403 157 c 8
 403 60 314 -13 222 -13 c 8
 137 -13 61 47 61 132 c 16
 61 214 135 256 183 282 c 0
 192 287 188 289 180 295 c 0
 123 342 72 388 72 467 c 16
 72 543 160 589 242 589 c 16
 316 589 389 540 389 465 c 16
 389 420 363 393 341 374 c 0
 323 358 313 351 291 335 c 0
 275 323 276 322 286 315 c 0
197 261 m 0
 157 229 131 207 131 147 c 8
 131 84 173 24 236 24 c 16
 292 24 333 65 333 118 c 16
 333 176 277 222 223 259 c 0
 216 264 213 267 208 267 c 0
 205 267 202 265 197 261 c 0
EndSplineSet
Validated: 1
Substitution2: "'tnum' Tabular Numbers lookup 36 subtable" eight.taboldstyle
Substitution2: "'lnum' Lining Figures lookup 34 subtable" eight.lnum
Substitution2: "Single Substitution lookup 33 subtable" eight.ordn
Substitution2: "Single Substitution lookup 32 subtable" eight.subs
Substitution2: "sups subtable" eight.sups
Substitution2: "sinf subtable" eight.sinf
Substitution2: "ordn subtable" eight.ordn
Substitution2: "subs subtable" eight.subs
EndChar

StartChar: question
Encoding: 31 63 86
GlifName: question
Width: 387
VWidth: 0
Flags: HMW
LayerCount: 3
Fore
SplineSet
180 106 m 24
 213 106 240 79 240 46 c 24
 240 13 213 -14 180 -14 c 24
 147 -14 120 13 120 46 c 24
 120 79 147 106 180 106 c 24
140 661 m 0
 173 661 215 644 248 611 c 0
 304 555 341 469 341 418 c 0
 341 369 319 345 299 334 c 0
 255 310 245 304 213 283 c 0
 185 265 182 236 181 204 c 0
 181 194 176 181 166 181 c 0
 159 181 148 194 144 210 c 0
 138 231 128 252 128 297 c 0
 128 331 166 355 229 387 c 0
 257 401 290 429 290 458 c 0
 290 524 257 572 189 573 c 0
 170 573 161 569 142 569 c 0
 121 569 100 598 100 625 c 0
 100 644 123 661 140 661 c 0
EndSplineSet
Validated: 1
Substitution2: "sups subtable" question.sups
Substitution2: "sinf subtable" question.sinf
Substitution2: "ordn subtable" question.ordn
Substitution2: "subs subtable" question.subs
EndChar

StartChar: grave
Encoding: 64 96 87
GlifName: grave
Width: 279
VWidth: 0
Flags: HMW
LayerCount: 3
Fore
SplineSet
40 636 m 0
 40 650 57 664 75 664 c 0
 97 664 114 655 125 637 c 0
 146 603 218 477 218 462 c 0
 218 453 214 449 205 449 c 0
 196 449 183 464 178 471 c 0
 98 582 40 617 40 636 c 0
EndSplineSet
Validated: 1
Substitution2: "sups subtable" grave.sups
Substitution2: "sinf subtable" grave.sinf
Substitution2: "ordn subtable" grave.ordn
Substitution2: "subs subtable" grave.subs
EndChar

StartChar: acute
Encoding: 115 180 88
GlifName: acute
Width: 382
VWidth: 0
Flags: HMW
LayerCount: 3
Fore
SplineSet
281 650 m 0
 299 650 316 645 316 631 c 0
 316 612 263 582 183 471 c 0
 178 464 165 449 156 449 c 0
 147 449 143 453 143 462 c 0
 143 477 210 598 231 632 c 0
 242 650 259 650 281 650 c 0
EndSplineSet
Validated: 1
EndChar

StartChar: asciicircum
Encoding: 62 94 89
GlifName: asciicircum
Width: 500
VWidth: 0
Flags: HMW
LayerCount: 3
Fore
SplineSet
250 603 m 1
 276 566 408 375 449 305 c 0
 451 302 452 298 452 295 c 0
 452 289 448 284 443 284 c 2
 441 284 l 1
 429 287 410 295 404 302 c 0
 368 341 284 470 254 514 c 0
 249 520 248 520 244 514 c 0
 214 470 123 332 96 302 c 0
 89 295 71 287 59 284 c 1
 57 284 l 2
 52 284 48 289 48 295 c 0
 48 298 49 302 51 305 c 0
 89 369 222 564 250 603 c 1
EndSplineSet
Validated: 1
Substitution2: "sups subtable" asciicircum.sups
Substitution2: "sinf subtable" asciicircum.sinf
Substitution2: "ordn subtable" asciicircum.ordn
Substitution2: "subs subtable" asciicircum.subs
EndChar

StartChar: circumflexcomb
Encoding: 666 770 91
GlifName: uni0302
Width: 0
VWidth: 0
Flags: HMW
AnchorPoint: "top_accent" 138 550 mark 0
LayerCount: 3
Fore
SplineSet
135 553 m 0
 110 523 81 485 69 469 c 0
 62 460 47 447 39 447 c 0
 30 447 30 451 30 460 c 0
 30 475 98 597 118 630 c 0
 123 639 130 648 138 648 c 0
 146 648 153 639 158 630 c 0
 178 597 247 475 247 460 c 0
 247 451 247 447 238 447 c 0
 230 447 215 459 208 469 c 0
 196 485 166 523 142 553 c 0
 139 557 138 557 135 553 c 0
EndSplineSet
Validated: 1
Substitution2: "Smallcaps1 subtable" circumflexcomb.sc
Substitution2: "Single Substitution lookup 18 subtable" uni0302.stack
Substitution2: "Single Substitution lookup 16 subtable" uni0302.stack
Substitution2: "Single Substitution lookup 14 subtable" uni0302.flat
Substitution2: "'case' Case-Sensitive Forms lookup 9 subtable" circumflexcomb.cap
EndChar

StartChar: caroncomb
Encoding: 676 780 92
GlifName: uni030C_
Width: 0
VWidth: 0
Flags: HMW
AnchorPoint: "top_accent" 139 533 mark 0
LayerCount: 3
Fore
SplineSet
135 533 m 0
 138 529 139 529 142 533 c 0
 164 563 195 603 208 618 c 0
 216 627 229 640 237 640 c 0
 246 640 246 636 246 627 c 0
 246 614 178 504 158 473 c 0
 153 465 146 455 138 455 c 0
 130 455 123 465 118 473 c 0
 98 504 30 614 30 627 c 0
 30 636 30 640 39 640 c 0
 47 640 61 627 69 618 c 0
 82 603 113 563 135 533 c 0
EndSplineSet
Validated: 1
Substitution2: "Smallcaps1 subtable" caroncomb.sc
Substitution2: "Single Substitution lookup 18 subtable" uni030C.stack
Substitution2: "Single Substitution lookup 16 subtable" uni030C.stack
Substitution2: "Single Substitution lookup 14 subtable" uni030C.flat
Substitution2: "Single Substitution lookup 13 subtable" uni030C.alt
Substitution2: "'case' Case-Sensitive Forms lookup 9 subtable" caroncomb.cap
EndChar

StartChar: hyphen
Encoding: 13 45 93
GlifName: hyphen
Width: 274
VWidth: 0
Flags: HMW
LayerCount: 3
Fore
SplineSet
35 170 m 0
 30 170 29 172 29 176 c 0
 29 198 35 229 45 230 c 0
 109 239 173 248 237 255 c 0
 241 255 245 253 245 249 c 0
 245 224 240 197 224 195 c 0
 164 186 103 176 35 170 c 0
EndSplineSet
Validated: 1
Substitution2: "Single Substitution lookup 113 subtable" hyphen.cap
Substitution2: "sups subtable" hyphen.sups
Substitution2: "sinf subtable" hyphen.sinf
Substitution2: "ordn subtable" hyphen.ordn
Substitution2: "subs subtable" hyphen.subs
Substitution2: "'case' Case-Sensitive Forms lookup 9 subtable" hyphen.cap
Position2: "rtbd subtable" dx=0 dy=0 dh=-137 dv=0
Position2: "lfbd subtable" dx=-82 dy=0 dh=-82 dv=0
EndChar

StartChar: numbersign
Encoding: 3 35 94
GlifName: numbersign
Width: 468
VWidth: 0
Flags: HMW
LayerCount: 3
Fore
SplineSet
134 206 m 1
 90 27 l 2
 87 14 73 12 60 12 c 0
 54 12 50 18 50 24 c 0
 50 25 50 26 50 27 c 2
 94 204 l 1
 31 201 l 2
 24 201 17 206 17 213 c 0
 17 223 20 260 41 261 c 2
 108 264 l 1
 142 402 l 1
 78 399 l 2
 71 399 64 404 64 411 c 0
 64 421 67 458 88 459 c 2
 157 462 l 1
 199 633 l 2
 202 647 218 650 232 650 c 0
 237 650 240 644 240 638 c 0
 240 636 239 635 239 633 c 2
 198 464 l 1
 311 470 l 1
 354 644 l 2
 357 658 373 661 387 661 c 0
 392 661 395 655 395 649 c 0
 395 647 394 646 394 644 c 2
 352 472 l 1
 411 475 l 2
 418 475 424 471 424 464 c 0
 424 454 415 416 393 415 c 2
 337 412 l 1
 303 274 l 1
 364 277 l 2
 371 277 377 272 377 265 c 0
 377 255 368 218 346 217 c 2
 288 214 l 1
 245 38 l 2
 242 25 228 23 215 23 c 0
 209 23 205 29 205 35 c 0
 205 36 205 37 205 38 c 2
 248 212 l 1
 134 206 l 1
149 266 m 1
 263 272 l 1
 296 410 l 1
 183 404 l 1
 149 266 l 1
EndSplineSet
Validated: 1
Substitution2: "sups subtable" numbersign.sups
Substitution2: "sinf subtable" numbersign.sinf
Substitution2: "ordn subtable" numbersign.ordn
Substitution2: "subs subtable" numbersign.subs
EndChar

StartChar: slash
Encoding: 15 47 95
GlifName: slash
Width: 399
VWidth: 0
Flags: HMW
LayerCount: 3
Fore
SplineSet
30 -47 m 10
 327 648 l 26
 334 663 349 665 366 665 c 16
 373 665 380 659 380 652 c 0
 380 651 379 649 379 648 c 10
 82 -47 l 26
 76 -61 61 -62 46 -62 c 16
 38 -62 29 -57 29 -50 c 0
 29 -49 30 -48 30 -47 c 10
EndSplineSet
Validated: 1
Substitution2: "frac_slash subtable" fraction
Substitution2: "sups subtable" slash.sups
Substitution2: "sinf subtable" slash.sinf
Substitution2: "ordn subtable" slash.ordn
Substitution2: "subs subtable" slash.subs
EndChar

StartChar: backslash
Encoding: 60 92 96
GlifName: backslash
Width: 399
VWidth: 0
Flags: HMW
LayerCount: 3
Fore
SplineSet
378 -47 m 18
 378 -48 379 -49 379 -50 c 0
 379 -57 370 -62 362 -62 c 8
 347 -62 332 -61 326 -47 c 26
 29 648 l 18
 29 649 28 651 28 652 c 0
 28 659 35 665 42 665 c 8
 59 665 74 663 81 648 c 26
 378 -47 l 18
EndSplineSet
Validated: 1
Substitution2: "sups subtable" backslash.sups
Substitution2: "sinf subtable" backslash.sinf
Substitution2: "ordn subtable" backslash.ordn
Substitution2: "subs subtable" backslash.subs
EndChar

StartChar: dollar
Encoding: 4 36 97
GlifName: dollar
Width: 458
VWidth: 0
Flags: HMW
LayerCount: 3
Fore
SplineSet
264 270 m 2
 234 26 l 1
 234 18 236 16 242 16 c 0
 317 21 352 54 352 148 c 0
 352 186 288 261 266 276 c 0
 265 277 265 274 264 270 c 2
292 367 m 0
 343 331 442 273 442 171 c 0
 442 91 386 -19 236 -19 c 0
 233 -19 228 -20 227 -25 c 2
 218 -101 l 10
 217 -112 204 -116 193 -116 c 16
 185 -116 177 -109 177 -102 c 0
 180 -75 184 -49 187 -22 c 0
 187 -19 184 -15 181 -15 c 0
 145 -9 122 2 98 8 c 0
 84 11 86 15 84 20 c 0
 73 43 55 122 53 158 c 0
 53 166 62 174 73 174 c 0
 82 174 113 62 185 26 c 0
 186 26 188 25 189 25 c 0
 191 25 193 26 193 28 c 2
 226 297 l 2
 226 300 226 305 214 314 c 0
 145 362 83 417 83 497 c 0
 83 555 137 651 261 659 c 0
 267 660 271 662 271 665 c 2
 275 691 l 10
 277 704 291 708 304 708 c 16
 311 708 317 700 317 693 c 0
 316 683 314 674 313 665 c 0
 313 662 314 659 319 658 c 0
 359 655 383 647 398 644 c 8
 409 642 414 632 416 622 c 0
 422 588 430 550 430 515 c 0
 430 506 425 490 420 490 c 0
 415 490 398 500 394 515 c 0
 380 566 342 618 311 618 c 0
 309 618 307 615 307 613 c 2
 279 386 l 2
 278 378 278 377 292 367 c 0
259 627 m 0
 201 622 160 569 160 517 c 0
 160 476 193 440 231 411 c 0
 233 410 234 409 236 409 c 0
 238 409 240 411 240 413 c 2
 266 619 l 2
 266 624 264 627 259 627 c 0
EndSplineSet
Validated: 1
Substitution2: "sups subtable" dollar.sups
Substitution2: "sinf subtable" dollar.sinf
Substitution2: "ordn subtable" dollar.ordn
Substitution2: "subs subtable" dollar.subs
EndChar

StartChar: equal
Encoding: 29 61 98
GlifName: equal
Width: 590
VWidth: 0
Flags: HMW
LayerCount: 3
Fore
SplineSet
74 193 m 26
 527 193 l 18
 533 193 541 188 541 182 c 0
 541 181 540 180 540 179 c 8
 534 162 528 143 509 143 c 26
 64 143 l 26
 57 143 50 149 50 155 c 0
 50 164 56 193 74 193 c 26
74 364 m 26
 527 364 l 18
 533 364 541 359 541 353 c 0
 541 352 540 351 540 350 c 8
 534 333 528 314 509 314 c 26
 64 314 l 26
 57 314 50 320 50 326 c 0
 50 335 56 364 74 364 c 26
EndSplineSet
Validated: 1
Substitution2: "sups subtable" equal.sups
Substitution2: "sinf subtable" equal.sinf
Substitution2: "ordn subtable" equal.ordn
Substitution2: "subs subtable" equal.subs
EndChar

StartChar: plus
Encoding: 11 43 99
GlifName: plus
Width: 590
VWidth: 0
Flags: HMW
LayerCount: 3
Fore
SplineSet
330 278 m 2
 330 273 330 272 332 272 c 0
 400 272 469 272 537 272 c 8
 544 272 550 268 550 262 c 0
 550 245 538 222 519 222 c 18
 334 222 l 2
 331 222 330 221 330 218 c 2
 330 16 l 10
 330 -5 291 -8 282 -8 c 0
 276 -8 270 -1 270 6 c 18
 270 217 l 2
 270 220 269 222 266 222 c 2
 64 222 l 10
 57 222 50 228 50 234 c 0
 50 243 56 272 74 272 c 18
 263 272 l 2
 269 272 270 274 270 280 c 2
 270 451 l 10
 270 473 310 482 316 482 c 0
 323 482 330 476 330 469 c 18
 330 278 l 2
EndSplineSet
Validated: 1
Substitution2: "sups subtable" plus.sups
Substitution2: "sinf subtable" plus.sinf
Substitution2: "ordn subtable" plus.ordn
Substitution2: "subs subtable" plus.subs
EndChar

StartChar: less
Encoding: 28 60 100
GlifName: less
Width: 590
VWidth: 0
Flags: HMW
LayerCount: 3
Fore
SplineSet
133 229 m 2
 513 55 l 10
 532 46 537 16 537 7 c 0
 537 2 532 -6 526 -6 c 0
 525 -6 524 -5 523 -5 c 10
 94 195 l 26
 77 203 53 216 53 222 c 0
 53 231 66 259 86 268 c 26
 523 468 l 18
 524 468 525 469 526 469 c 0
 532 469 536 465 536 459 c 0
 536 447 525 417 505 408 c 18
 132 234 l 2
 129 233 130 230 133 229 c 2
EndSplineSet
Validated: 1
Substitution2: "sups subtable" less.sups
Substitution2: "sinf subtable" less.sinf
Substitution2: "ordn subtable" less.ordn
Substitution2: "subs subtable" less.subs
EndChar

StartChar: greater
Encoding: 30 62 101
GlifName: greater
Width: 590
VWidth: 0
Flags: HMW
LayerCount: 3
Fore
SplineSet
457 234 m 2
 77 408 l 10
 58 417 53 447 53 456 c 0
 53 461 58 469 64 469 c 0
 65 469 66 468 67 468 c 10
 496 268 l 26
 513 260 537 247 537 241 c 0
 537 232 524 204 504 195 c 26
 67 -5 l 18
 66 -5 65 -6 64 -6 c 0
 58 -6 54 -1 54 4 c 0
 54 16 65 46 85 55 c 18
 458 229 l 2
 461 230 460 233 457 234 c 2
EndSplineSet
Validated: 1
Substitution2: "sups subtable" greater.sups
Substitution2: "sinf subtable" greater.sinf
Substitution2: "ordn subtable" greater.ordn
Substitution2: "subs subtable" greater.subs
EndChar

StartChar: underscore
Encoding: 63 95 102
GlifName: underscore
Width: 500
VWidth: 0
Flags: HMW
LayerCount: 3
Fore
SplineSet
24 -132 m 26
 487 -132 l 18
 493 -132 501 -137 501 -143 c 0
 501 -144 500 -145 500 -146 c 8
 494 -163 488 -182 469 -182 c 26
 14 -182 l 26
 7 -182 0 -176 0 -170 c 0
 0 -161 6 -132 24 -132 c 26
EndSplineSet
Validated: 1
Substitution2: "sups subtable" underscore.sups
Substitution2: "sinf subtable" underscore.sinf
Substitution2: "ordn subtable" underscore.ordn
Substitution2: "subs subtable" underscore.subs
EndChar

StartChar: endash
Encoding: 1566 8211 103
GlifName: endash
Width: 550
VWidth: 0
Flags: HMW
LayerCount: 3
Fore
SplineSet
74 239 m 26
 487 239 l 18
 493 239 500 233 500 227 c 0
 500 207 485 185 469 185 c 26
 64 185 l 26
 57 185 50 191 50 197 c 0
 50 206 55 239 74 239 c 26
EndSplineSet
Validated: 1
Substitution2: "Single Substitution lookup 113 subtable" endash.cap
Substitution2: "'case' Case-Sensitive Forms lookup 9 subtable" endash.cap
Position2: "rtbd subtable" dx=0 dy=0 dh=-165 dv=0
Position2: "lfbd subtable" dx=-165 dy=0 dh=-165 dv=0
EndChar

StartChar: emdash
Encoding: 1567 8212 104
GlifName: emdash
Width: 950
VWidth: 0
Flags: HMW
LayerCount: 3
Fore
SplineSet
74 239 m 26
 887 239 l 18
 893 239 900 233 900 227 c 0
 900 207 885 185 869 185 c 26
 64 185 l 26
 57 185 50 191 50 197 c 0
 50 206 55 239 74 239 c 26
EndSplineSet
Validated: 1
Substitution2: "Single Substitution lookup 113 subtable" emdash.cap
Substitution2: "'case' Case-Sensitive Forms lookup 9 subtable" emdash.cap
Position2: "rtbd subtable" dx=0 dy=0 dh=-190 dv=0
Position2: "lfbd subtable" dx=-190 dy=0 dh=-190 dv=0
EndChar

StartChar: bar
Encoding: 92 124 105
GlifName: bar
Width: 260
VWidth: 0
Flags: HMW
LayerCount: 3
Fore
SplineSet
100 676 m 10
 100 698 140 707 146 707 c 0
 153 707 160 701 160 694 c 18
 160 -265 l 10
 160 -286 121 -289 112 -289 c 0
 106 -289 100 -282 100 -275 c 18
 100 676 l 10
EndSplineSet
Validated: 1
Substitution2: "sups subtable" bar.sups
Substitution2: "sinf subtable" bar.sinf
Substitution2: "ordn subtable" bar.ordn
Substitution2: "subs subtable" bar.subs
EndChar

StartChar: brokenbar
Encoding: 101 166 106
GlifName: brokenbar
Width: 260
VWidth: 0
Flags: HMW
LayerCount: 3
Fore
SplineSet
112 276 m 0
 106 276 100 289 100 299 c 2
 100 674 l 10
 100 696 140 705 146 705 c 0
 153 705 160 699 160 692 c 18
 160 297 l 2
 160 287 121 276 112 276 c 0
146 179 m 0
 153 179 160 167 160 157 c 2
 160 -266 l 10
 160 -287 121 -290 112 -290 c 0
 106 -290 100 -283 100 -276 c 18
 100 156 l 2
 100 166 140 179 146 179 c 0
EndSplineSet
Validated: 1
Substitution2: "sups subtable" brokenbar.sups
Substitution2: "sinf subtable" brokenbar.sinf
Substitution2: "ordn subtable" brokenbar.ordn
Substitution2: "subs subtable" brokenbar.subs
EndChar

StartChar: parenleft
Encoding: 8 40 107
GlifName: parenleft
Width: 315
VWidth: 0
Flags: HMW
LayerCount: 3
Fore
SplineSet
264 -192 m 0
 264 -206 250 -214 237 -214 c 0
 231 -214 225 -212 220 -207 c 0
 149 -136 40 99 40 269 c 0
 40 439 145 623 216 694 c 0
 222 700 233 705 243 705 c 0
 250 705 265 698 265 689 c 0
 265 687 254 672 252 670 c 0
 181 599 100 451 100 281 c 0
 100 111 177 -102 248 -173 c 0
 250 -175 264 -190 264 -192 c 0
EndSplineSet
Validated: 1
Substitution2: "sups subtable" parenleft.sups
Substitution2: "sinf subtable" parenleft.sinf
Substitution2: "ordn subtable" parenleft.ordn
Substitution2: "subs subtable" parenleft.subs
EndChar

StartChar: parenright
Encoding: 9 41 108
GlifName: parenright
Width: 316
VWidth: 0
Flags: HMW
LayerCount: 3
Fore
SplineSet
266 281 m 0
 266 111 154 -136 83 -207 c 0
 79 -211 73 -213 66 -213 c 0
 52 -213 36 -205 36 -195 c 0
 36 -192 43 -184 46 -181 c 0
 117 -110 206 97 206 267 c 0
 206 437 119 608 48 679 c 0
 45 682 40 688 40 691 c 0
 40 700 56 704 67 704 c 8
 77 704 84 701 91 694 c 0
 162 623 266 451 266 281 c 0
EndSplineSet
Validated: 1
Substitution2: "sups subtable" parenright.sups
Substitution2: "sinf subtable" parenright.sinf
Substitution2: "ordn subtable" parenright.ordn
Substitution2: "subs subtable" parenright.subs
EndChar

StartChar: asciitilde
Encoding: 94 126 109
GlifName: asciitilde
Width: 500
VWidth: 0
Flags: HMW
LayerCount: 3
Fore
SplineSet
440 382 m 0
 445 382 450 368 450 362 c 0
 450 348 374 260 325 260 c 0
 277 260 212 308 158 308 c 0
 113 308 70 261 65 261 c 0
 57 261 50 272 50 279 c 0
 50 289 130 381 175 381 c 0
 221 381 271 333 337 333 c 16
 382 333 435 382 440 382 c 0
EndSplineSet
Validated: 1
Substitution2: "sups subtable" asciitilde.sups
Substitution2: "sinf subtable" asciitilde.sinf
Substitution2: "ordn subtable" asciitilde.ordn
Substitution2: "subs subtable" asciitilde.subs
EndChar

StartChar: tildecomb
Encoding: 667 771 110
GlifName: tildecomb
Width: 0
VWidth: 0
Flags: HMW
AnchorPoint: "top_stack" 148 644 basemark 0
AnchorPoint: "top_accent" 152 533 mark 0
LayerCount: 3
Fore
SplineSet
40 453 m 0
 30 453 26 463 26 473 c 0
 26 483 89 557 114 557 c 0
 139 557 196 549 221 549 c 0
 256 549 270 583 278 583 c 0
 288 583 294 576 294 566 c 0
 294 556 234 483 209 483 c 0
 184 483 122 490 97 490 c 0
 72 490 48 453 40 453 c 0
EndSplineSet
Validated: 1
Substitution2: "Smallcaps1 subtable" tildecomb.sc
Substitution2: "Single Substitution lookup 18 subtable" tildecomb.stack
Substitution2: "Single Substitution lookup 16 subtable" tildecomb.stack
Substitution2: "'case' Case-Sensitive Forms lookup 9 subtable" tildecomb.cap
EndChar

StartChar: periodcentered
Encoding: 118 183 112
GlifName: periodcentered
Width: 200
VWidth: 0
Flags: HMW
LayerCount: 3
Fore
SplineSet
100 260 m 24
 130 260 155 235 155 205 c 24
 155 175 130 150 100 150 c 24
 70 150 45 175 45 205 c 24
 45 235 70 260 100 260 c 24
EndSplineSet
Validated: 1
Substitution2: "Single Substitution lookup 4 subtable" periodcentered.CATuc
Substitution2: "Single Substitution lookup 3 subtable" periodcentered.CAT
EndChar

StartChar: guillemotright
Encoding: 122 187 115
GlifName: guillemotright
Width: 676
VWidth: 0
Flags: HMW
LayerCount: 3
Fore
SplineSet
141 37 m 0
 128 24 119 19 111 19 c 0
 106 19 102 25 102 31 c 0
 102 55 185 147 257 203 c 0
 265 209 265 211 257 217 c 0
 182 275 100 362 100 391 c 0
 100 397 102 400 106 400 c 0
 117 400 129 388 135 382 c 0
 204 316 259 279 361 218 c 0
 363 217 364 214 364 211 c 0
 364 202 356 187 346 182 c 0
 287 155 210 106 141 37 c 0
353 37 m 0
 340 24 331 19 323 19 c 0
 318 19 314 25 314 31 c 0
 314 55 397 147 469 203 c 0
 477 209 477 211 469 217 c 0
 394 275 312 362 312 391 c 0
 312 397 314 400 318 400 c 0
 329 400 341 388 347 382 c 0
 416 316 471 279 573 218 c 0
 575 217 576 214 576 211 c 0
 576 202 568 187 558 182 c 0
 499 155 422 106 353 37 c 0
EndSplineSet
Validated: 1
Substitution2: "guillemet_var subtable" guillemotright.alt
Position2: "rtbd subtable" dx=0 dy=0 dh=-232 dv=0
Position2: "lfbd subtable" dx=-186 dy=0 dh=-186 dv=0
EndChar

StartChar: guillemotleft
Encoding: 106 171 116
GlifName: guillemotleft
Width: 676
VWidth: 0
Flags: HMW
LayerCount: 3
Fore
SplineSet
535 37 m 0
 466 106 389 155 330 182 c 0
 320 187 312 202 312 211 c 0
 312 214 313 217 315 218 c 0
 417 279 472 316 541 382 c 0
 547 388 559 400 570 400 c 0
 574 400 576 397 576 391 c 0
 576 362 494 275 419 217 c 0
 411 211 411 209 419 203 c 0
 491 147 574 55 574 31 c 0
 574 25 570 19 565 19 c 0
 557 19 548 24 535 37 c 0
323 37 m 0
 254 106 177 155 118 182 c 0
 108 187 100 202 100 211 c 0
 100 214 101 217 103 218 c 0
 205 279 260 316 329 382 c 0
 335 388 347 400 358 400 c 0
 362 400 364 397 364 391 c 0
 364 362 282 275 207 217 c 0
 199 211 199 209 207 203 c 0
 279 147 362 55 362 31 c 0
 362 25 358 19 353 19 c 0
 345 19 336 24 323 37 c 0
EndSplineSet
Validated: 1
Substitution2: "guillemet_var subtable" guillemotleft.alt
Position2: "rtbd subtable" dx=0 dy=0 dh=-186 dv=0
Position2: "lfbd subtable" dx=-186 dy=0 dh=-186 dv=0
EndChar

StartChar: guilsinglright
Encoding: 1592 8250 117
GlifName: guilsinglright
Width: 464
VWidth: 0
Flags: HMW
LayerCount: 3
Fore
SplineSet
257 217 m 0
 213 251 161 291 105 376 c 0
 101 381 100 387 100 392 c 0
 100 397 101 400 105 400 c 0
 118 400 129 387 135 382 c 0
 204 316 259 279 361 218 c 0
 363 217 364 214 364 211 c 0
 364 202 356 187 346 182 c 0
 287 155 210 104 141 37 c 0
 135 32 124 19 111 19 c 0
 106 19 102 24 102 30 c 0
 102 33 103 37 105 40 c 0
 161 125 213 169 257 203 c 0
 265 209 265 211 257 217 c 0
EndSplineSet
Validated: 1
Substitution2: "guillemet_var subtable" guilsinglright.alt
Position2: "rtbd subtable" dx=0 dy=0 dh=-232 dv=0
Position2: "lfbd subtable" dx=-140 dy=0 dh=-140 dv=0
EndChar

StartChar: guilsinglleft
Encoding: 1591 8249 118
GlifName: guilsinglleft
Width: 464
VWidth: 0
Flags: HMW
LayerCount: 3
Fore
SplineSet
207 217 m 0
 199 211 199 209 207 203 c 0
 251 169 303 125 359 40 c 0
 361 37 362 34 362 31 c 0
 362 25 358 19 353 19 c 0
 340 19 328 32 323 37 c 0
 254 104 177 155 118 182 c 0
 108 187 100 202 100 211 c 0
 100 214 101 217 103 218 c 0
 205 279 260 316 329 382 c 0
 334 387 346 400 358 400 c 0
 362 400 364 396 364 391 c 0
 364 386 362 381 359 376 c 0
 303 291 251 251 207 217 c 0
EndSplineSet
Validated: 1
Substitution2: "guillemet_var subtable" guilsinglleft.alt
Position2: "rtbd subtable" dx=0 dy=0 dh=-186 dv=0
Position2: "lfbd subtable" dx=-186 dy=0 dh=-186 dv=0
EndChar

StartChar: brevecomb
Encoding: 670 774 120
GlifName: uni0306
Width: 0
VWidth: 0
Flags: HMW
AnchorPoint: "top_accent" 169 533 mark 0
AnchorPoint: "grk_top" 169 520 mark 0
LayerCount: 3
Fore
SplineSet
92 570 m 0
 97 545 119 521 169 521 c 0
 219 521 241 545 246 570 c 0
 248 580 251 591 261 591 c 0
 271 591 276 580 276 567 c 0
 276 517 239 461 169 461 c 0
 99 461 62 517 62 567 c 0
 62 580 67 591 77 591 c 0
 87 591 90 580 92 570 c 0
EndSplineSet
Validated: 1
Substitution2: "Smallcaps1 subtable" brevecomb.sc
Substitution2: "Single Substitution lookup 18 subtable" uni0306.stack
Substitution2: "Single Substitution lookup 16 subtable" uni0306.stack
Substitution2: "'case' Case-Sensitive Forms lookup 9 subtable" brevecomb.cap
EndChar

StartChar: uni0307
Encoding: 671 775 121
GlifName: uni0307
Width: 0
VWidth: 0
Flags: HMW
AnchorPoint: "top_accent" 111 550 mark 0
LayerCount: 3
Fore
SplineSet
62 543 m 0
 62 572 84 594 112 594 c 0
 141 594 163 572 163 543 c 0
 163 515 141 493 112 493 c 0
 84 493 62 515 62 543 c 0
EndSplineSet
Validated: 1
Substitution2: "Smallcaps1 subtable" uni0307.sc
Substitution2: "Single Substitution lookup 18 subtable" uni0307.stack
Substitution2: "Single Substitution lookup 16 subtable" uni0307.stack
Substitution2: "'case' Case-Sensitive Forms lookup 9 subtable" uni0307.cap
EndChar

StartChar: ringcomb
Encoding: 674 778 122
GlifName: uni030A_
Width: 0
VWidth: 0
Flags: HMW
AnchorPoint: "top_accent" 111 550 mark 0
LayerCount: 3
Fore
SplineSet
115 647 m 0
 159 647 196 613 196 569 c 0
 196 517 153 480 109 480 c 0
 65 480 28 519 28 563 c 0
 28 607 71 647 115 647 c 0
69 568 m 0
 69 535 88 506 116 506 c 0
 146 506 155 530 155 562 c 0
 155 590 134 620 106 620 c 0
 78 620 69 596 69 568 c 0
EndSplineSet
Validated: 1
Substitution2: "Smallcaps1 subtable" ringcomb.sc
Substitution2: "Single Substitution lookup 18 subtable" uni030A.stack
Substitution2: "Single Substitution lookup 16 subtable" uni030A.stack
Substitution2: "'case' Case-Sensitive Forms lookup 9 subtable" ringcomb.cap
EndChar

StartChar: hungarumlautcomb
Encoding: 675 779 123
GlifName: uni030B_
Width: 0
VWidth: 0
Flags: HMW
AnchorPoint: "top_accent" 109 550 mark 0
LayerCount: 3
Fore
SplineSet
177 478 m 0
 169 469 155 456 147 456 c 0
 138 456 138 460 138 469 c 0
 138 484 200 598 219 631 c 0
 225 641 236 649 246 649 c 0
 271 649 295 642 295 626 c 0
 295 612 208 511 177 478 c 0
53 478 m 0
 45 469 31 456 23 456 c 0
 14 456 14 460 14 469 c 0
 14 484 76 598 95 631 c 0
 101 641 112 649 122 649 c 0
 147 649 171 642 171 626 c 0
 171 612 84 511 53 478 c 0
EndSplineSet
Validated: 1
Substitution2: "Smallcaps1 subtable" hungarumlautcomb.sc
Substitution2: "'case' Case-Sensitive Forms lookup 9 subtable" hungarumlautcomb.cap
EndChar

StartChar: uni0312
Encoding: 682 786 124
GlifName: uni0312
Width: 0
VWidth: 0
Flags: HMW
AnchorPoint: "top_accent" 107 550 mark 0
LayerCount: 3
Fore
SplineSet
115 547 m 0
 144 547 162 527 162 505 c 0
 162 489 144 469 115 469 c 0
 67 469 32 510 32 566 c 0
 32 630 106 689 158 689 c 0
 170 689 176 684 176 679 c 0
 176 675 171 670 162 668 c 0
 118 659 84 626 84 592 c 0
 84 571 96 547 115 547 c 0
EndSplineSet
Validated: 1
Substitution2: "Smallcaps1 subtable" uni0312.sc
EndChar

StartChar: uni0313
Encoding: 683 787 125
GlifName: uni0313
Width: 0
VWidth: 0
Flags: HMW
AnchorPoint: "top_accent" 59 550 mark 0
AnchorPoint: "grk_top" 59 560 mark 0
AnchorPoint: "grk_uc_top_left" 82 665 mark 0
LayerCount: 3
Fore
SplineSet
42 588 m 0
 19 592 0 605 0 628 c 0
 0 651 23 666 47 666 c 0
 94 666 120 617 120 569 c 0
 120 516 76 472 24 472 c 0
 11 472 4 477 4 482 c 0
 4 489 13 492 21 496 c 0
 48 509 68 527 68 556 c 0
 68 572 58 585 42 588 c 0
EndSplineSet
Validated: 1
Substitution2: "Smallcaps1 subtable" uni0313.sc
Substitution2: "Single Substitution lookup 22 subtable" uni0313.grkstack
Substitution2: "Single Substitution lookup 21 subtable" uni0313.grk
EndChar

StartChar: uni0314
Encoding: 684 788 126
GlifName: uni0314
Width: 0
VWidth: 0
Flags: HMW
AnchorPoint: "top_accent" 59 550 mark 0
AnchorPoint: "grk_top" 59 560 mark 0
AnchorPoint: "grk_uc_top_left" 84 665 mark 0
LayerCount: 3
Fore
SplineSet
78 588 m 0
 62 585 52 572 52 556 c 0
 52 527 72 509 99 496 c 0
 107 492 116 489 116 482 c 0
 116 477 109 472 96 472 c 0
 43 472 0 516 0 569 c 0
 0 616 26 666 73 666 c 0
 97 666 120 651 120 628 c 0
 120 605 101 592 78 588 c 0
EndSplineSet
Validated: 1
Substitution2: "Smallcaps1 subtable" uni0314.sc
Substitution2: "Single Substitution lookup 22 subtable" uni0314.grkstack
Substitution2: "Single Substitution lookup 21 subtable" uni0314.grk
EndChar

StartChar: uni0328
Encoding: 704 808 127
GlifName: uni0328
Width: 0
VWidth: 0
Flags: HMW
AnchorPoint: "ogonek" 156 18 mark 0
LayerCount: 3
Fore
SplineSet
107 -287 m 8
 49 -287 6 -253 6 -179 c 0
 6 -72 144 18 144 18 c 9
 170 18 l 17
 170 18 80 -43 80 -152 c 0
 80 -196 106 -221 140 -221 c 0
 175 -221 194 -200 199 -200 c 0
 203 -200 207 -201 207 -207 c 0
 207 -226 163 -287 107 -287 c 8
EndSplineSet
Validated: 1
Substitution2: "'case' Case-Sensitive Forms lookup 9 subtable" uni0328.cap
EndChar

StartChar: uni0326
Encoding: 702 806 128
GlifName: uni0326
Width: 0
VWidth: 0
Flags: HMW
AnchorPoint: "below_accent" 106 -100 mark 0
LayerCount: 3
Fore
SplineSet
64 -275 m 0
 56 -275 51 -271 51 -266 c 0
 51 -261 56 -256 65 -253 c 0
 104 -239 118 -202 118 -174 c 0
 118 -156 106 -149 88 -145 c 0
 65 -140 38 -122 38 -100 c 0
 38 -76 55 -57 84 -57 c 0
 132 -57 172 -98 172 -154 c 0
 172 -239 89 -275 64 -275 c 0
EndSplineSet
Validated: 1
EndChar

StartChar: ccedilla
Encoding: 166 231 159
GlifName: ccedilla
Width: 377
VWidth: 0
Flags: HMW
AnchorPoint: "top_accent" 230 550 basechar 0
LayerCount: 3
Fore
SplineSet
151 -129 m 0
 144 -129 133 -123 133 -114 c 0
 133 -111 135 -108 138 -104 c 2
 209 -14 l 2
 208 -14 207 -14 206 -14 c 0
 105 -14 35 77 35 180 c 0
 35 303 123 413 246 413 c 0
 289 413 336 402 366 365 c 0
 369 361 371 357 371 353 c 0
 371 336 343 319 333 319 c 0
 324 319 313 324 308 329 c 0
 275 365 264 376 214 376 c 0
 141 376 104 299 104 226 c 0
 104 130 167 38 263 38 c 0
 305 38 325 54 351 88 c 0
 354 91 357 93 360 93 c 0
 366 93 372 86 372 79 c 0
 372 47 314 2 243 -11 c 1
 218 -43 l 2
 216 -45 214 -49 214 -51 c 0
 214 -57 221 -62 225 -63 c 0
 257 -77 286 -106 286 -139 c 0
 286 -219 197 -274 161 -274 c 0
 134 -274 131 -252 131 -233 c 0
 131 -219 140 -214 144 -214 c 0
 151 -214 164 -225 197 -225 c 0
 223 -225 236 -206 236 -180 c 0
 236 -144 212 -123 177 -123 c 0
 164 -123 158 -129 151 -129 c 0
EndSplineSet
Validated: 1
Substitution2: "Smallcaps1 subtable" ccedilla.sc
MultipleSubs2: "CCMP_Precomp subtable" c uni0327
EndChar

StartChar: Aogonek
Encoding: 195 260 182
GlifName: A_ogonek
Width: 684
VWidth: 0
Flags: HMW
AnchorPoint: "cedilla" 124 8 basechar 0
AnchorPoint: "below_accent" 334 -100 basechar 0
AnchorPoint: "top_accent" 363 700 basechar 0
LayerCount: 3
Fore
SplineSet
333 542 m 2
 243 302 l 2
 242 299 241 296 241 294 c 0
 241 287 249 287 262 287 c 2
 417 287 l 2
 427 287 431 287 431 292 c 0
 431 294 430 298 429 302 c 2
 350 541 l 2
 346 553 344 559 341 559 c 0
 339 559 337 553 333 542 c 2
508 -287 m 0
 445 -287 394 -237 394 -174 c 0
 394 -99 487 -30 536 1 c 1
 497 2 449 0 424 0 c 0
 407 0 395 4 395 12 c 0
 395 21 410 28 428 31 c 0
 472 38 489 54 489 76 c 0
 489 105 466 183 451 233 c 0
 448 243 442 244 424 244 c 2
 233 244 l 2
 227 244 221 240 216 226 c 0
 207 200 176 100 176 87 c 0
 176 58 202 38 234 30 c 0
 257 24 267 19 267 10 c 0
 267 2 255 -1 238 -1 c 0
 220 -1 184 1 147 1 c 0
 103 1 60 -5 27 -5 c 0
 10 -5 -2 0 -2 8 c 0
 -2 17 9 24 31 31 c 0
 65 41 95 58 117 108 c 0
 192 279 237 393 304 578 c 0
 319 620 316 635 318 636 c 0
 330 640 342 643 354 651 c 0
 368 660 370 676 375 676 c 0
 380 676 382 671 385 662 c 0
 449 459 530 223 563 128 c 0
 591 48 624 35 664 28 c 0
 687 24 697 14 697 5 c 0
 697 -3 685 -5 668 -5 c 0
 647 -5 605 -2 567 -0 c 1
 534 -28 479 -85 479 -155 c 0
 479 -190 510 -216 545 -216 c 0
 580 -216 618 -181 627 -176 c 0
 632 -173 639 -174 639 -182 c 0
 639 -225 562 -287 508 -287 c 0
EndSplineSet
Validated: 33
Substitution2: "c2sc subtable" Aogonek.sc
MultipleSubs2: "CCMP_Precomp subtable" A uni0328.cap
Position2: "rtbd subtable" dx=0 dy=0 dh=-34 dv=0
Position2: "lfbd subtable" dx=-34 dy=0 dh=-34 dv=0
EndChar

StartChar: aogonek
Encoding: 196 261 183
GlifName: aogonek
Width: 399
VWidth: 0
Flags: HMW
LayerCount: 3
Fore
SplineSet
292 -287 m 0
 234 -287 191 -253 191 -179 c 0
 191 -109 254 -47 299 -12 c 1
 258 -2 251 38 244 38 c 0
 231 38 203 -13 121 -14 c 0
 80 -14 35 26 35 65 c 0
 35 107 59 135 108 155 c 2
 210 197 l 2
 236 208 237 210 238 237 c 2
 240 299 l 1
 240 301 l 2
 240 335 217 365 181 365 c 0
 157 365 128 347 120 333 c 0
 117 328 116 321 116 314 c 0
 116 309 117 305 117 300 c 0
 117 286 61 265 48 265 c 0
 42 265 40 271 40 274 c 0
 40 295 55 321 80 343 c 0
 111 371 176 414 229 414 c 0
 276 414 312 374 311 325 c 2
 306 109 l 2
 306 107 306 105 306 103 c 0
 306 66 315 32 342 32 c 0
 360 32 371 36 382 46 c 0
 388 52 398 45 398 37 c 0
 398 36 397 35 397 34 c 0
 395 29 371 3 343 -9 c 1
 309 -37 265 -85 265 -152 c 0
 265 -196 291 -221 325 -221 c 0
 360 -221 379 -200 384 -200 c 0
 388 -200 392 -201 392 -207 c 0
 392 -226 348 -287 292 -287 c 0
115 87 m 0
 115 49 145 32 164 32 c 0
 190 32 208 45 224 59 c 0
 231 65 235 74 236 99 c 2
 238 148 l 2
 239 163 237 169 229 169 c 0
 226 169 220 168 215 166 c 0
 138 140 115 110 115 87 c 0
EndSplineSet
Validated: 33
Substitution2: "Smallcaps1 subtable" aogonek.sc
MultipleSubs2: "CCMP_Precomp subtable" a uni0328
EndChar

StartChar: Eogonek
Encoding: 215 280 200
GlifName: E_ogonek
Width: 535
VWidth: 0
Flags: HMW
LayerCount: 3
Fore
SplineSet
381 -287 m 0
 318 -287 267 -237 267 -174 c 0
 267 -103 352 -37 402 -4 c 1
 316 -2 242 1 167 1 c 0
 122 1 106 -5 52 -5 c 0
 35 -5 23 -2 23 6 c 0
 23 15 33 20 56 24 c 0
 106 33 130 51 130 99 c 2
 130 549 l 2
 130 597 113 613 63 622 c 0
 40 626 30 633 30 642 c 0
 30 650 42 653 59 653 c 0
 134 653 166 650 236 650 c 0
 327 650 448 653 458 653 c 0
 465 653 475 651 476 644 c 0
 483 606 491 568 491 541 c 0
 491 529 483 526 477 526 c 0
 470 526 468 529 466 536 c 0
 459 558 453 581 444 591 c 0
 425 612 402 618 377 618 c 2
 246 618 l 2
 235 618 210 605 210 586 c 2
 210 374 l 2
 210 362 218 352 228 352 c 2
 324 352 l 2
 353 352 375 368 385 391 c 0
 387 396 398 408 403 408 c 0
 408 408 416 402 416 392 c 0
 416 383 413 353 413 337 c 0
 413 317 415 277 415 269 c 0
 415 260 414 252 406 252 c 0
 393 252 385 268 383 275 c 0
 373 306 354 320 337 320 c 2
 244 320 l 2
 221 320 210 317 210 294 c 2
 210 102 l 2
 210 51 231 35 276 35 c 2
 380 35 l 2
 430 35 443 43 456 53 c 0
 474 67 490 99 498 116 c 0
 502 124 505 127 512 126 c 0
 519 125 525 123 525 115 c 0
 525 97 515 38 508 12 c 0
 506 3 502 -5 494 -5 c 0
 474 -5 454 -5 435 -5 c 1
 402 -34 352 -88 352 -155 c 0
 352 -190 383 -216 418 -216 c 0
 453 -216 491 -181 500 -176 c 0
 505 -173 512 -174 512 -182 c 0
 512 -225 435 -287 381 -287 c 0
EndSplineSet
Validated: 1
Substitution2: "c2sc subtable" Eogonek.sc
MultipleSubs2: "CCMP_Precomp subtable" E uni0328.cap
EndChar

StartChar: eogonek
Encoding: 216 281 201
GlifName: eogonek
Width: 388
VWidth: 0
Flags: HMW
LayerCount: 3
Fore
SplineSet
243 -287 m 0
 185 -287 142 -253 142 -179 c 0
 142 -107 204 -43 245 -9 c 1
 231 -12 215 -14 198 -14 c 0
 107 -14 30 70 30 203 c 0
 30 316 116 414 229 414 c 0
 310 414 358 376 358 323 c 0
 358 290 351 275 337 268 c 0
 323 261 303 257 281 257 c 2
 117 257 l 2
 101 257 92 254 92 220 c 0
 92 130 153 46 243 46 c 0
 268 46 311 56 337 90 c 0
 340 93 345 97 348 97 c 0
 355 97 356 85 354 77 c 0
 349 59 331 35 303 16 c 1
 287 4 216 -55 216 -152 c 0
 216 -196 242 -221 276 -221 c 0
 311 -221 330 -200 335 -200 c 0
 339 -200 343 -201 343 -207 c 0
 343 -226 299 -287 243 -287 c 0
213 383 m 0
 157 383 111 329 111 303 c 0
 111 295 116 288 130 288 c 2
 212 288 l 2
 241 288 264 289 285 293 c 0
 292 294 295 310 295 321 c 0
 295 361 252 383 213 383 c 0
EndSplineSet
Validated: 1
Substitution2: "Smallcaps1 subtable" eogonek.sc
MultipleSubs2: "CCMP_Precomp subtable" e uni0328
EndChar

StartChar: Iogonek
Encoding: 237 302 220
GlifName: I_ogonek
Width: 340
VWidth: 0
Flags: HMW
LayerCount: 3
Fore
SplineSet
152 -287 m 0
 89 -287 38 -237 38 -174 c 0
 38 -100 130 -31 179 -0 c 1
 178 0 177 0 176 0 c 0
 126 0 102 -5 48 -5 c 0
 31 -5 19 -2 19 6 c 0
 19 15 29 20 52 24 c 0
 102 33 130 51 130 98 c 2
 130 550 l 2
 130 597 113 613 63 622 c 0
 40 626 30 633 30 642 c 0
 30 650 42 653 59 653 c 0
 113 653 130 650 176 650 c 0
 219 650 231 653 285 653 c 0
 302 653 314 650 314 642 c 0
 314 633 304 626 281 622 c 0
 231 613 210 597 210 550 c 2
 210 98 l 2
 210 51 239 33 289 24 c 0
 312 20 322 15 322 6 c 0
 322 -2 310 -5 293 -5 c 0
 255 -5 235 -2 210 -1 c 1
 177 -29 123 -85 123 -155 c 0
 123 -190 154 -216 189 -216 c 0
 224 -216 262 -181 271 -176 c 0
 276 -173 283 -174 283 -182 c 0
 283 -225 206 -287 152 -287 c 0
EndSplineSet
Validated: 1
Substitution2: "c2sc subtable" Iogonek.sc
MultipleSubs2: "CCMP_Precomp subtable" I uni0328.cap
EndChar

StartChar: iogonek
Encoding: 238 303 221
GlifName: iogonek
Width: 245
VWidth: 0
Flags: HMW
LayerCount: 3
Fore
SplineSet
121 -287 m 0
 63 -287 20 -253 20 -179 c 0
 20 -87 100 -19 123 2 c 1
 90 2 82 -3 44 -3 c 0
 36 -3 24 -2 24 6 c 0
 24 16 36 20 47 24 c 0
 67 30 90 35 90 62 c 2
 90 279 l 2
 90 315 77 345 43 352 c 0
 38 353 35 359 35 365 c 0
 35 370 38 376 42 377 c 0
 109 393 154 434 162 434 c 0
 166 434 169 432 169 429 c 0
 165 388 160 339 160 294 c 2
 160 62 l 2
 160 35 183 30 203 24 c 0
 214 20 226 16 226 6 c 0
 226 -2 215 -3 206 -3 c 0
 179 -3 167 0 150 1 c 1
 135 -17 94 -63 94 -152 c 0
 94 -196 120 -221 154 -221 c 0
 189 -221 208 -200 213 -200 c 0
 217 -200 221 -201 221 -207 c 0
 221 -226 177 -287 121 -287 c 0
68 563 m 0
 68 592 90 614 118 614 c 0
 147 614 169 592 169 563 c 0
 169 535 147 513 118 513 c 0
 90 513 68 535 68 563 c 0
EndSplineSet
Validated: 1
Substitution2: "Smallcaps1 subtable" iogonek.sc
MultipleSubs2: "CCMP_Precomp subtable" i uni0328
EndChar

StartChar: Scedilla
Encoding: 285 350 256
GlifName: S_cedilla
Width: 465
VWidth: 0
Flags: HMW
LayerCount: 3
Fore
SplineSet
223 17 m 0
 298 17 338 62 338 132 c 0
 338 198 268 263 186 318 c 0
 116 365 59 417 59 497 c 0
 59 584 140 664 260 664 c 0
 324 664 369 644 379 644 c 0
 388 644 394 631 396 621 c 0
 397 618 405 568 405 537 c 0
 405 522 403 512 398 512 c 0
 379 512 366 525 363 540 c 0
 353 598 307 631 251 631 c 0
 189 631 136 590 136 523 c 0
 136 459 218 408 269 375 c 0
 326 338 422 262 422 160 c 0
 422 91 378 10 269 -11 c 1
 241 -54 l 2
 236 -61 246 -68 251 -70 c 0
 279 -82 317 -112 317 -159 c 0
 317 -227 233 -275 188 -275 c 0
 153 -275 143 -258 143 -243 c 0
 143 -220 151 -209 159 -209 c 0
 167 -209 173 -222 222 -222 c 0
 239 -222 264 -212 264 -183 c 0
 264 -159 252 -129 217 -129 c 0
 205 -129 200 -132 191 -132 c 0
 174 -132 165 -121 165 -115 c 0
 165 -108 168 -104 171 -100 c 2
 234 -15 l 1
 228 -15 221 -16 214 -16 c 0
 141 -16 97 0 80 8 c 0
 67 14 61 20 59 25 c 0
 48 48 41 104 41 140 c 0
 41 149 51 169 62 169 c 0
 71 169 82 135 92 103 c 0
 111 42 165 17 223 17 c 0
EndSplineSet
Validated: 1
Substitution2: "c2sc subtable" Scedilla.sc
MultipleSubs2: "CCMP_Precomp subtable" S uni0327.cap
EndChar

StartChar: scedilla
Encoding: 286 351 257
GlifName: scedilla
Width: 323
VWidth: 0
Flags: HMW
LayerCount: 3
Fore
SplineSet
104 -129 m 0
 97 -129 86 -123 86 -114 c 0
 86 -111 88 -108 91 -104 c 2
 162 -14 l 1
 158 -14 153 -14 149 -14 c 0
 95 -14 49 9 43 22 c 0
 36 36 31 60 30 83 c 0
 30 89 39 92 47 92 c 0
 54 92 61 90 62 85 c 0
 69 51 114 13 155 13 c 0
 203 13 225 43 225 83 c 0
 225 119 193 143 149 174 c 0
 101 208 53 247 53 296 c 0
 53 353 89 414 187 414 c 0
 227 414 252 401 262 391 c 1
 274 376 279 341 279 313 c 0
 279 310 277 309 273 309 c 0
 263 309 239 321 239 330 c 0
 238 358 209 388 176 388 c 0
 138 388 113 362 113 322 c 0
 113 282 166 251 198 231 c 0
 228 212 293 172 293 106 c 0
 293 48 270 3 196 -10 c 1
 171 -43 l 2
 169 -45 167 -49 167 -51 c 0
 167 -57 174 -62 178 -63 c 0
 210 -77 239 -106 239 -139 c 0
 239 -219 150 -274 114 -274 c 0
 87 -274 84 -252 84 -233 c 0
 84 -219 93 -214 97 -214 c 0
 104 -214 117 -225 150 -225 c 0
 176 -225 189 -206 189 -180 c 0
 189 -144 165 -123 130 -123 c 0
 117 -123 111 -129 104 -129 c 0
EndSplineSet
Validated: 1
Substitution2: "Smallcaps1 subtable" scedilla.sc
MultipleSubs2: "CCMP_Precomp subtable" s uni0327
EndChar

StartChar: uni0162
Encoding: 289 354 260
GlifName: uni0162
Width: 670
VWidth: 0
Flags: HMW
LayerCount: 3
Fore
SplineSet
256 -105 m 0
 256 -98 259 -94 262 -90 c 2
 329 -0 l 1
 288 -1 263 -5 214 -5 c 0
 197 -5 185 -2 185 6 c 0
 185 15 195 20 218 24 c 0
 268 33 296 54 296 102 c 2
 296 557 l 2
 296 575 294 597 278 600 c 0
 259 604 238 604 204 604 c 2
 157 604 l 2
 125 604 89 591 75 565 c 0
 69 554 49 527 34 527 c 0
 29 527 27 533 27 540 c 0
 27 546 29 554 32 560 c 0
 50 598 57 629 63 671 c 0
 66 693 75 694 80 694 c 0
 85 694 99 673 105 662 c 0
 113 648 147 642 175 642 c 2
 556 642 l 2
 585 642 604 649 614 656 c 0
 634 670 649 692 664 692 c 0
 668 692 671 679 671 669 c 0
 671 666 670 662 670 660 c 0
 661 623 654 587 654 561 c 0
 654 557 654 553 654 549 c 0
 654 537 648 517 638 517 c 0
 628 517 624 532 619 558 c 0
 614 586 591 604 527 604 c 0
 475 604 410 602 392 600 c 0
 378 598 376 575 376 557 c 2
 376 102 l 2
 376 54 405 33 455 24 c 0
 478 20 488 15 488 6 c 0
 488 -2 476 -5 459 -5 c 0
 413 -5 394 -1 361 -0 c 1
 332 -44 l 2
 327 -51 337 -58 342 -60 c 0
 370 -72 408 -102 408 -149 c 0
 408 -217 324 -265 279 -265 c 0
 244 -265 234 -248 234 -233 c 0
 234 -210 242 -199 250 -199 c 0
 258 -199 264 -212 313 -212 c 0
 330 -212 355 -202 355 -173 c 0
 355 -149 343 -119 308 -119 c 0
 296 -119 291 -122 282 -122 c 0
 265 -122 256 -111 256 -105 c 0
EndSplineSet
Validated: 1
Substitution2: "c2sc subtable" uni0162.sc
MultipleSubs2: "CCMP_Precomp subtable" T uni0327.cap
Position2: "rtbd subtable" dx=0 dy=0 dh=-33 dv=0
Position2: "lfbd subtable" dx=-33 dy=0 dh=-33 dv=0
Position2: "Single Positioning lookup 67 subtable" dx=0 dy=0 dh=170 dv=0
Position2: "Single Positioning lookup 66 subtable" dx=0 dy=0 dh=135 dv=0
Position2: "Single Positioning lookup 65 subtable" dx=0 dy=0 dh=115 dv=0
Position2: "Single Positioning lookup 64 subtable" dx=0 dy=0 dh=100 dv=0
Position2: "Single Positioning lookup 63 subtable" dx=0 dy=0 dh=80 dv=0
Position2: "Single Positioning lookup 62 subtable" dx=0 dy=0 dh=50 dv=0
Position2: "Single Positioning lookup 61 subtable" dx=0 dy=0 dh=95 dv=0
Position2: "Single Positioning lookup 60 subtable" dx=0 dy=0 dh=60 dv=0
Position2: "Single Positioning lookup 59 subtable" dx=0 dy=0 dh=40 dv=0
Position2: "Single Positioning lookup 58 subtable" dx=0 dy=0 dh=25 dv=0
Position2: "Single Positioning lookup 57 subtable" dx=0 dy=0 dh=60 dv=0
Position2: "Single Positioning lookup 56 subtable" dx=0 dy=0 dh=25 dv=0
Position2: "Single Positioning lookup 55 subtable" dx=0 dy=0 dh=10 dv=0
Position2: "Single Positioning lookup 54 subtable" dx=0 dy=0 dh=180 dv=0
Position2: "Single Positioning lookup 53 subtable" dx=0 dy=0 dh=145 dv=0
Position2: "Single Positioning lookup 52 subtable" dx=0 dy=0 dh=125 dv=0
Position2: "Single Positioning lookup 51 subtable" dx=0 dy=0 dh=110 dv=0
Position2: "Single Positioning lookup 50 subtable" dx=0 dy=0 dh=90 dv=0
Position2: "Single Positioning lookup 49 subtable" dx=0 dy=0 dh=60 dv=0
Position2: "Single Positioning lookup 48 subtable" dx=0 dy=0 dh=80 dv=0
Position2: "Single Positioning lookup 47 subtable" dx=0 dy=0 dh=80 dv=0
Position2: "Single Positioning lookup 46 subtable" dx=0 dy=0 dh=100 dv=0
Position2: "Single Positioning lookup 45 subtable" dx=0 dy=0 dh=115 dv=0
Position2: "Single Positioning lookup 44 subtable" dx=0 dy=0 dh=115 dv=0
Position2: "Single Positioning lookup 43 subtable" dx=0 dy=0 dh=100 dv=0
Position2: "Single Positioning lookup 42 subtable" dx=0 dy=0 dh=100 dv=0
Position2: "Single Positioning lookup 41 subtable" dx=0 dy=0 dh=120 dv=0
Position2: "Single Positioning lookup 40 subtable" dx=0 dy=0 dh=135 dv=0
Position2: "Single Positioning lookup 39 subtable" dx=0 dy=0 dh=135 dv=0
EndChar

StartChar: uni0163
Encoding: 290 355 261
GlifName: uni0163
Width: 314
VWidth: 0
Flags: HMW
LayerCount: 3
Fore
SplineSet
116 -129 m 0
 109 -129 98 -123 98 -114 c 0
 98 -111 100 -108 103 -104 c 2
 174 -13 l 1
 120 -8 85 29 85 105 c 2
 85 337 l 2
 85 349 78 352 47 352 c 0
 43 352 35 365 35 372 c 0
 35 375 38 378 40 379 c 0
 93 394 134 468 144 468 c 0
 150 468 158 467 158 458 c 2
 156 414 l 2
 156 405 167 400 180 400 c 2
 294 400 l 2
 299 400 304 388 304 376 c 0
 304 364 299 352 294 352 c 2
 195 352 l 2
 161 352 155 351 155 324 c 2
 155 135 l 2
 155 61 190 41 221 41 c 0
 260 41 280 48 296 60 c 0
 302 64 306 55 306 47 c 0
 306 37 260 -5 206 -13 c 1
 183 -43 l 2
 181 -45 179 -49 179 -51 c 0
 179 -57 186 -62 190 -63 c 0
 222 -77 251 -106 251 -139 c 0
 251 -219 162 -274 126 -274 c 0
 99 -274 96 -252 96 -233 c 0
 96 -219 105 -214 109 -214 c 0
 116 -214 129 -225 162 -225 c 0
 188 -225 201 -206 201 -180 c 0
 201 -144 177 -123 142 -123 c 0
 129 -123 123 -129 116 -129 c 0
EndSplineSet
Validated: 1
Substitution2: "Smallcaps1 subtable" uni0163.sc
MultipleSubs2: "CCMP_Precomp subtable" t uni0327
Position2: "rtbd subtable" dx=0 dy=0 dh=-22 dv=0
EndChar

StartChar: Uogonek
Encoding: 305 370 274
GlifName: U_ogonek
Width: 738
VWidth: 0
Flags: HMW
LayerCount: 3
Fore
SplineSet
645 547 m 0
 638 432 638 342 635 250 c 0
 632 143 580 57 500 15 c 1
 479 0 392 -67 392 -155 c 0
 392 -190 423 -216 458 -216 c 0
 493 -216 531 -181 540 -176 c 0
 545 -173 552 -174 552 -182 c 0
 552 -225 475 -287 421 -287 c 0
 358 -287 307 -237 307 -174 c 0
 307 -106 384 -42 435 -8 c 1
 417 -12 399 -14 380 -14 c 0
 188 -14 103 87 103 281 c 2
 103 547 l 2
 103 595 79 614 57 620 c 0
 34 626 24 633 24 642 c 0
 24 650 36 653 53 653 c 0
 83 653 112 650 149 650 c 0
 180 650 208 652 229 652 c 0
 246 652 258 649 258 641 c 0
 258 632 247 628 225 621 c 0
 209 616 183 589 183 549 c 2
 183 253 l 2
 183 132 282 36 403 36 c 0
 530 36 592 140 592 296 c 0
 592 340 590 434 588 511 c 0
 587 562 575 612 547 620 c 0
 533 624 514 631 514 640 c 0
 514 648 526 651 543 651 c 0
 573 651 589 650 618 650 c 0
 650 650 676 653 699 653 c 0
 716 653 728 650 728 642 c 0
 728 633 718 627 695 622 c 0
 660 615 647 587 645 547 c 0
EndSplineSet
Validated: 1
Substitution2: "c2sc subtable" Uogonek.sc
MultipleSubs2: "CCMP_Precomp subtable" U uni0328.cap
EndChar

StartChar: uogonek
Encoding: 306 371 275
GlifName: uogonek
Width: 527
VWidth: 0
Flags: HMW
LayerCount: 3
Fore
SplineSet
370 -287 m 0
 312 -287 269 -253 269 -179 c 0
 269 -114 320 -55 360 -19 c 1
 363 -9 364 44 364 57 c 1
 312 6 261 -14 199 -14 c 0
 134 -14 85 27 85 105 c 2
 85 308 l 2
 85 337 72 353 42 365 c 0
 39 366 29 370 29 380 c 0
 29 393 39 396 44 397 c 0
 98 399 108 405 147 414 c 1
 157 415 162 410 161 400 c 0
 157 369 155 353 155 323 c 2
 155 128 l 2
 155 80 196 37 239 37 c 0
 273 37 298 38 323 57 c 0
 338 68 368 91 368 132 c 2
 368 315 l 2
 368 356 323 364 303 365 c 0
 298 365 280 368 280 382 c 0
 280 394 299 397 303 397 c 0
 404 402 396 405 432 415 c 1
 434 415 l 2
 443 415 451 405 446 397 c 0
 442 390 438 342 438 326 c 2
 438 114 l 2
 438 73 440 45 456 45 c 0
 466 45 492 46 502 48 c 0
 507 49 517 47 517 35 c 0
 517 24 508 21 503 21 c 0
 463 16 432 6 407 -4 c 1
 380 -31 343 -82 343 -152 c 0
 343 -196 369 -221 403 -221 c 0
 438 -221 457 -200 462 -200 c 0
 466 -200 470 -201 470 -207 c 0
 470 -226 426 -287 370 -287 c 0
EndSplineSet
Validated: 1
Substitution2: "Smallcaps1 subtable" uogonek.sc
MultipleSubs2: "CCMP_Precomp subtable" u uni0328
EndChar

StartChar: Ohorn
Encoding: 351 416 287
GlifName: O_horn
Width: 792
VWidth: 0
Flags: HMW
AnchorPoint: "cedilla" 412 8 basechar 0
AnchorPoint: "ogonek" 520 18 basechar 0
AnchorPoint: "below_accent" 370 -100 basechar 0
AnchorPoint: "top_accent" 383 700 basechar 0
LayerCount: 3
Fore
SplineSet
667 547 m 0
 653 547 651 539 654 534 c 0
 694 474 718 421 718 335 c 0
 718 155 601 -14 382 -14 c 0
 205 -14 45 130 45 320 c 0
 45 500 163 664 382 664 c 0
 523 664 587 608 629 598 c 0
 636 596 662 589 670 589 c 0
 695 589 721 601 721 615 c 0
 721 647 679 630 679 663 c 0
 679 688 717 721 739 721 c 0
 757 721 777 684 777 661 c 0
 777 584 702 547 667 547 c 0
375 625 m 0
 227 625 142 490 142 350 c 0
 142 179 247 25 395 25 c 0
 545 25 621 134 621 305 c 0
 621 495 535 625 375 625 c 0
EndSplineSet
Validated: 1
EndChar

StartChar: ohorn
Encoding: 352 417 288
GlifName: ohorn
Width: 506
VWidth: 0
Flags: HMW
AnchorPoint: "ogonek" 337 18 basechar 0
AnchorPoint: "below_accent" 246 -100 basechar 0
AnchorPoint: "top_accent" 246 550 basechar 0
LayerCount: 3
Fore
SplineSet
237 383 m 0
 201 383 173 374 149 343 c 0
 122 309 117 258 117 210 c 0
 117 111 175 16 255 16 c 0
 300 16 338 32 358 71 c 0
 374 102 378 150 378 189 c 0
 378 284 322 383 237 383 c 0
460 213 m 0
 460 96 384 -14 234 -14 c 0
 122 -14 35 70 35 187 c 0
 35 298 131 414 254 414 c 0
 280 414 308 407 327 401 c 0
 358 390 405 374 420 374 c 0
 438 374 446 391 446 405 c 0
 446 421 428 435 417 439 c 0
 412 441 408 447 408 454 c 0
 408 472 435 497 465 497 c 0
 485 497 506 466 506 432 c 0
 506 390 462 337 422 337 c 0
 417 337 421 327 424 323 c 0
 450 289 460 248 460 213 c 0
EndSplineSet
Validated: 1
EndChar

StartChar: Uhorn
Encoding: 366 431 289
GlifName: U_horn
Width: 748
VWidth: 0
Flags: HMW
AnchorPoint: "ogonek" 490 18 basechar 0
AnchorPoint: "below_accent" 393 -100 basechar 0
AnchorPoint: "top_accent" 390 700 basechar 0
LayerCount: 3
Fore
SplineSet
684 724 m 0
 684 743 715 777 744 777 c 0
 764 777 782 736 782 713 c 0
 782 655 734 624 676 609 c 8
 650 602 647 587 645 547 c 0
 638 432 638 346 635 254 c 0
 630 99 524 -14 380 -14 c 16
 188 -14 103 128 103 322 c 2
 103 547 l 2
 103 595 79 614 57 620 c 0
 34 626 24 633 24 642 c 0
 24 650 36 653 53 653 c 0
 83 653 112 650 149 650 c 24
 180 650 208 652 229 652 c 0
 246 652 258 649 258 641 c 0
 258 632 247 628 225 621 c 0
 209 616 183 589 183 549 c 2
 183 294 l 10
 183 162 271 36 403 36 c 16
 530 36 592 144 592 300 c 0
 592 344 590 434 588 511 c 0
 587 562 575 612 547 620 c 0
 533 624 514 631 514 640 c 0
 514 648 526 651 543 651 c 0
 567 651 582 650 602 650 c 2
 697 650 l 18
 720 650 730 674 730 680 c 0
 730 699 684 699 684 724 c 0
EndSplineSet
Validated: 1
EndChar

StartChar: uhorn
Encoding: 367 432 290
GlifName: uhorn
Width: 561
VWidth: 0
Flags: HMW
AnchorPoint: "ogonek" 418 18 basechar 0
AnchorPoint: "below_accent" 259 -100 basechar 0
AnchorPoint: "top_accent" 251 550 basechar 0
LayerCount: 3
Fore
SplineSet
438 326 m 2
 438 114 l 2
 438 73 440 45 456 45 c 0
 466 45 492 46 502 48 c 0
 507 49 517 47 517 35 c 0
 517 24 508 21 503 21 c 0
 451 14 415 -1 386 -13 c 0
 382 -15 368 -19 362 -19 c 0
 358 -19 359 -18 359 -15 c 0
 359 -2 364 34 364 51 c 2
 364 57 l 1
 312 6 261 -14 199 -14 c 0
 134 -14 85 27 85 105 c 2
 85 308 l 2
 85 337 72 353 42 365 c 0
 39 366 29 370 29 380 c 0
 29 393 39 396 44 397 c 0
 98 399 108 405 147 414 c 1
 157 415 162 410 161 400 c 0
 157 369 155 353 155 323 c 2
 155 128 l 2
 155 80 196 37 239 37 c 0
 273 37 298 38 323 57 c 0
 338 68 368 91 368 132 c 2
 368 315 l 2
 368 356 323 364 303 365 c 0
 298 365 280 368 280 382 c 0
 280 394 299 397 303 397 c 0
 404 402 425 412 433 414 c 1
 433 414 511 418 511 446 c 0
 511 460 501 473 488 475 c 8
 475 477 466 488 466 501 c 16
 466 526 496 534 521 534 c 8
 546 534 561 508 561 483 c 0
 561 423 525 392 447 378 c 0
 439 377 437 363 437 351 c 0
 437 342 438 333 438 326 c 2
EndSplineSet
Validated: 1
EndChar

StartChar: uni0228
Encoding: 487 552 332
GlifName: uni0228
Width: 535
VWidth: 0
Flags: HMW
LayerCount: 3
Fore
SplineSet
222 -115 m 0
 222 -108 225 -104 228 -100 c 2
 301 -1 l 1
 255 0 211 1 167 1 c 0
 122 1 106 -5 52 -5 c 0
 35 -5 23 -2 23 6 c 0
 23 15 33 20 56 24 c 0
 106 33 130 51 130 99 c 2
 130 549 l 2
 130 597 113 613 63 622 c 0
 40 626 30 633 30 642 c 0
 30 650 42 653 59 653 c 0
 134 653 166 650 236 650 c 0
 327 650 448 653 458 653 c 0
 465 653 475 651 476 644 c 0
 483 606 491 568 491 541 c 0
 491 529 483 526 477 526 c 0
 470 526 468 529 466 536 c 0
 459 558 453 581 444 591 c 0
 425 612 402 618 377 618 c 2
 246 618 l 2
 235 618 210 605 210 586 c 2
 210 374 l 2
 210 362 218 352 228 352 c 2
 324 352 l 2
 353 352 375 368 385 391 c 0
 387 396 398 408 403 408 c 0
 408 408 416 402 416 392 c 0
 416 383 413 353 413 337 c 0
 413 317 415 277 415 269 c 0
 415 260 414 252 406 252 c 0
 393 252 385 268 383 275 c 0
 373 306 354 320 337 320 c 2
 244 320 l 2
 221 320 210 317 210 294 c 2
 210 102 l 2
 210 51 231 35 276 35 c 2
 380 35 l 2
 430 35 443 43 456 53 c 0
 474 67 490 99 498 116 c 0
 502 124 505 127 512 126 c 0
 519 125 525 123 525 115 c 0
 525 97 515 38 508 12 c 0
 506 3 502 -5 494 -5 c 0
 435 -5 382 -3 332 -2 c 1
 298 -54 l 2
 293 -61 303 -68 308 -70 c 0
 336 -82 374 -112 374 -159 c 0
 374 -227 290 -275 245 -275 c 0
 210 -275 200 -258 200 -243 c 0
 200 -220 208 -209 216 -209 c 0
 224 -209 230 -222 279 -222 c 0
 296 -222 321 -212 321 -183 c 0
 321 -159 309 -129 274 -129 c 0
 262 -129 257 -132 248 -132 c 0
 231 -132 222 -121 222 -115 c 0
EndSplineSet
Validated: 1
MultipleSubs2: "CCMP_Precomp subtable" E uni0327.cap
EndChar

StartChar: uni0229
Encoding: 488 553 333
GlifName: uni0229
Width: 388
VWidth: 0
Flags: HMW
LayerCount: 3
Fore
SplineSet
164 -129 m 0
 157 -129 146 -123 146 -114 c 0
 146 -111 148 -108 151 -104 c 2
 223 -13 l 1
 215 -14 207 -14 198 -14 c 0
 107 -14 30 70 30 203 c 0
 30 316 116 414 229 414 c 0
 310 414 358 376 358 323 c 0
 358 290 351 275 337 268 c 0
 323 261 303 257 281 257 c 2
 117 257 l 2
 101 257 92 254 92 220 c 0
 92 130 153 46 243 46 c 0
 268 46 311 56 337 90 c 0
 340 93 345 97 348 97 c 0
 355 97 356 85 354 77 c 0
 347 51 314 13 260 -4 c 1
 231 -43 l 2
 229 -45 227 -49 227 -51 c 0
 227 -57 234 -62 238 -63 c 0
 270 -77 299 -106 299 -139 c 0
 299 -219 210 -274 174 -274 c 0
 147 -274 144 -252 144 -233 c 0
 144 -219 153 -214 157 -214 c 0
 164 -214 177 -225 210 -225 c 0
 236 -225 249 -206 249 -180 c 0
 249 -144 225 -123 190 -123 c 0
 177 -123 171 -129 164 -129 c 0
213 383 m 0
 157 383 111 329 111 303 c 0
 111 295 116 288 130 288 c 2
 212 288 l 2
 241 288 264 289 285 293 c 0
 292 294 295 310 295 321 c 0
 295 361 252 383 213 383 c 0
EndSplineSet
Validated: 1
MultipleSubs2: "CCMP_Precomp subtable" e uni0327
EndChar

StartChar: dotlessj
Encoding: 502 567 344
GlifName: uni0237
Width: 212
VWidth: 0
Flags: HMW
AnchorPoint: "top_accent" 100 550 basechar 0
LayerCount: 3
Fore
SplineSet
144 275 m 2
 144 91 l 2
 144 29 143 -72 114 -152 c 0
 89 -220 26 -287 -14 -287 c 0
 -21 -287 -35 -284 -35 -277 c 0
 -35 -269 -26 -261 -24 -260 c 0
 0 -254 23 -237 42 -197 c 0
 71 -136 71 0 71 69 c 2
 71 279 l 2
 71 315 59 345 25 352 c 0
 20 353 17 359 17 365 c 0
 17 370 20 376 24 377 c 0
 91 393 136 434 144 434 c 0
 148 434 151 432 151 429 c 0
 147 388 144 320 144 275 c 2
EndSplineSet
Validated: 1
EndChar

StartChar: ordfeminine
Encoding: 105 170 572
GlifName: ordfeminine
Width: 270
VWidth: 0
Flags: HMW
LayerCount: 3
Fore
SplineSet
49 196 m 26
 255 196 l 18
 261 196 269 191 269 185 c 0
 269 184 268 183 268 182 c 8
 261 169 252 161 237 161 c 26
 39 161 l 26
 32 161 25 167 25 173 c 0
 25 182 36 196 49 196 c 26
80 342 m 0
 80 319 99 308 112 308 c 0
 126 308 142 319 152 327 c 0
 156 330 160 335 160 350 c 10
 160 379 l 18
 160 391 156 393 145 390 c 0
 95 376 80 356 80 342 c 0
219 268 m 0
 182 268 169 299 164 299 c 0
 155 299 137 268 84 268 c 0
 57 268 25 304 25 327 c 0
 25 352 31 368 63 380 c 10
 142 408 l 18
 159 414 160 416 160 432 c 2
 160 455 l 26
 160 475 147 491 123 491 c 0
 107 491 84 485 79 477 c 0
 76 471 78 456 78 453 c 0
 78 445 36 434 33 434 c 0
 29 434 28 436 28 439 c 0
 28 447 38 469 54 482 c 0
 74 499 120 524 154 524 c 0
 185 524 215 499 215 471 c 10
 215 347 l 18
 215 330 215 308 234 308 c 0
 252 308 257 318 259 318 c 0
 262 318 268 311 268 302 c 0
 268 298 243 268 219 268 c 0
EndSplineSet
Validated: 1
EndChar

StartChar: uni00B2
Encoding: 113 178 573
GlifName: uni00B_2
Width: 300
VWidth: 0
Flags: HMW
LayerCount: 3
Fore
SplineSet
42 678 m 1
 37 668 26 672 26 683 c 0
 26 703 73 770 143 770 c 0
 194 770 234 728 234 677 c 16
 234 643 217 623 200 598 c 0
 178 565 108 506 101 498 c 0
 97 494 109 492 113 492 c 2
 182 492 l 2
 212 492 241 512 256 542 c 0
 258 547 265 551 271 550 c 16
 274 550 275 548 275 545 c 0
 275 544 274 542 274 541 c 0
 261 505 253 481 247 450 c 0
 245 439 241 437 238 437 c 0
 237 437 236 437 235 437 c 0
 184 440 184 440 151 440 c 24
 103 440 79 440 28 438 c 0
 25 437 23 440 23 444 c 0
 23 447 25 451 28 454 c 2
 67 494 l 2
 83 510 178 588 178 653 c 0
 178 690 151 716 121 716 c 0
 85 716 70 708 42 678 c 1
EndSplineSet
Validated: 1
EndChar

StartChar: uni00B3
Encoding: 114 179 574
GlifName: uni00B_3
Width: 300
VWidth: 0
Flags: HMW
LayerCount: 3
Fore
SplineSet
112 434 m 0
 83 434 46 439 46 467 c 0
 46 475 55 495 64 495 c 0
 70 495 75 492 77 490 c 0
 89 482 112 468 142 468 c 0
 155 468 201 478 201 536 c 8
 201 570 172 593 134 593 c 0
 124 593 108 589 97 586 c 0
 91 584 78 592 83 597 c 24
 98 612 118 615 132 622 c 0
 166 640 187 653 187 686 c 16
 187 707 158 723 140 723 c 0
 117 723 91 716 68 693 c 0
 66 691 62 687 60 687 c 0
 57 687 50 694 52 698 c 0
 68 729 102 770 155 770 c 0
 206 770 243 750 243 699 c 0
 243 674 220 651 184 633 c 0
 180 631 180 625 184 625 c 8
 224 625 253 590 253 550 c 16
 253 469 165 434 112 434 c 0
EndSplineSet
Validated: 1
EndChar

StartChar: uni00B9
Encoding: 120 185 575
GlifName: uni00B_9
Width: 300
VWidth: 0
Flags: HMW
LayerCount: 3
Fore
SplineSet
178 784 m 0
 184 784 188 778 187 770 c 0
 185 757 183 738 183 716 c 0
 183 671 182 617 182 589 c 0
 182 559 182 534 183 510 c 0
 185 471 189 470 233 464 c 0
 241 463 245 457 245 451 c 0
 245 445 241 439 233 439 c 0
 176 439 183 444 151 444 c 24
 119 444 123 439 69 439 c 0
 62 439 58 446 58 453 c 0
 58 459 61 464 69 464 c 0
 95 466 123 469 123 510 c 2
 123 663 l 2
 123 690 86 704 69 710 c 0
 61 713 58 718 58 723 c 0
 58 730 63 736 68 737 c 0
 119 742 172 784 178 784 c 0
EndSplineSet
Validated: 1
EndChar

StartChar: ordmasculine
Encoding: 121 186 576
GlifName: ordmasculine
Width: 309
VWidth: 0
Flags: HMW
LayerCount: 3
Fore
SplineSet
49 196 m 26
 271 196 l 18
 277 196 285 191 285 185 c 0
 285 184 284 183 284 182 c 8
 277 169 268 161 253 161 c 26
 39 161 l 26
 32 161 25 167 25 173 c 0
 25 182 36 196 49 196 c 26
149 491 m 0
 104 491 86 448 86 402 c 0
 86 347 116 299 160 299 c 0
 204 299 223 341 223 389 c 0
 223 441 194 491 149 491 c 0
160 524 m 0
 225 524 284 469 284 404 c 0
 284 334 238 268 148 268 c 0
 81 268 25 316 25 388 c 0
 25 462 86 524 160 524 c 0
EndSplineSet
Validated: 1
EndChar

StartChar: OE
Encoding: 273 338 579
GlifName: O_E_
Width: 933
VWidth: 0
Flags: HMW
AnchorPoint: "cedilla" 572 8 basechar 0
LayerCount: 3
Fore
SplineSet
573 1 m 0
 526 1 468 -5 466 -5 c 0
 440 -11 411 -14 382 -14 c 0
 205 -14 45 130 45 320 c 0
 45 501 166 664 390 664 c 0
 421 664 453 659 481 652 c 0
 493 649 532 649 564 649 c 16
 655 649 846 653 856 653 c 0
 863 653 873 651 874 644 c 0
 881 606 889 568 889 541 c 0
 889 529 881 526 875 526 c 0
 868 526 866 529 864 536 c 0
 857 558 851 581 842 591 c 0
 823 612 800 618 775 618 c 2
 644 618 l 2
 633 618 608 605 608 586 c 2
 608 374 l 2
 608 362 616 352 626 352 c 2
 722 352 l 2
 751 352 773 368 783 391 c 0
 785 396 796 408 801 408 c 0
 806 408 814 402 814 392 c 0
 814 383 811 353 811 337 c 0
 811 317 813 277 813 269 c 0
 813 260 812 252 804 252 c 8
 791 252 783 268 781 275 c 0
 771 306 752 320 735 320 c 2
 642 320 l 2
 619 320 608 317 608 294 c 2
 608 102 l 2
 608 51 629 35 674 35 c 2
 778 35 l 2
 828 35 841 43 854 53 c 0
 872 67 888 99 896 116 c 0
 900 124 903 127 910 126 c 16
 917 125 923 123 923 115 c 0
 923 97 913 38 906 12 c 0
 904 3 900 -5 892 -5 c 8
 768 -5 673 1 573 1 c 0
528 540 m 2
 528 601 458 625 375 625 c 0
 227 625 142 490 142 350 c 0
 142 179 247 25 395 25 c 0
 467 25 528 27 528 80 c 2
 528 540 l 2
EndSplineSet
Validated: 1
Substitution2: "c2sc subtable" OE.sc
Position2: "lfbd subtable" dx=-38 dy=0 dh=-38 dv=0
EndChar

StartChar: oe
Encoding: 274 339 580
GlifName: oe
Width: 755
VWidth: 0
Flags: HMW
AnchorPoint: "cedilla" 547 8 basechar 0
LayerCount: 3
Fore
SplineSet
237 383 m 0
 201 383 173 374 149 343 c 0
 122 309 117 258 117 210 c 0
 117 111 175 16 255 16 c 0
 300 16 338 32 358 71 c 0
 374 102 378 150 378 189 c 0
 378 284 322 383 237 383 c 0
254 414 m 0
 317 414 377 384 415 338 c 0
 421 330 424 328 429 335 c 0
 467 388 519 413 586 414 c 1
 688 414 725 372 725 323 c 0
 725 290 718 275 704 268 c 0
 690 261 670 257 648 257 c 18
 484 257 l 2
 468 257 459 254 459 220 c 0
 459 124 521 48 610 48 c 16
 635 48 674 54 700 88 c 0
 703 91 706 93 709 93 c 0
 716 93 723 85 721 77 c 0
 711 42 657 -14 565 -14 c 0
 510 -14 453 15 419 65 c 0
 414 72 413 72 408 65 c 0
 371 18 312 -14 234 -14 c 0
 122 -14 35 70 35 187 c 0
 35 298 131 414 254 414 c 0
482 318 m 0
 479 313 478 308 478 303 c 0
 478 295 483 288 497 288 c 2
 579 288 l 10
 607 288 631 289 652 293 c 0
 659 294 660 308 660 319 c 2
 660 333 l 1
 657 365 628 383 580 383 c 0
 524 383 494 340 482 318 c 0
EndSplineSet
Validated: 1
Substitution2: "Smallcaps1 subtable" oe.sc
Ligature2: "LATliga subtable" o e
LCarets2: 1 0
EndChar

StartChar: uni01C0
Encoding: 383 448 581
GlifName: uni01C_0
Width: 125
VWidth: 0
Flags: HMW
LayerCount: 3
Fore
SplineSet
40 673 m 10
 40 690 65 704 71 704 c 0
 78 704 85 698 85 691 c 18
 85 10 l 10
 85 -6 61 -14 52 -14 c 0
 46 -14 40 -7 40 0 c 18
 40 673 l 10
EndSplineSet
Validated: 1
EndChar

StartChar: uni01C1
Encoding: 384 449 582
GlifName: uni01C_1
Width: 230
VWidth: 0
Flags: HMW
LayerCount: 3
Fore
SplineSet
40 673 m 10
 40 690 65 704 71 704 c 0
 78 704 85 698 85 691 c 18
 85 10 l 10
 85 -6 61 -14 52 -14 c 0
 46 -14 40 -7 40 0 c 18
 40 673 l 10
145 673 m 10
 145 690 170 704 176 704 c 0
 183 704 190 698 190 691 c 18
 190 10 l 10
 190 -6 166 -14 157 -14 c 0
 151 -14 145 -7 145 0 c 18
 145 673 l 10
EndSplineSet
Validated: 1
EndChar

StartChar: uni02B0
Encoding: 623 688 609
GlifName: uni02B_0
Width: 332
VWidth: 0
Flags: HMW
LayerCount: 3
Fore
SplineSet
281 323 m 2
 281 307 296 300 309 297 c 1
 316 294 324 289 324 283 c 0
 324 277 312 273 309 273 c 2
 202 273 l 2
 199 273 187 277 187 283 c 0
 187 289 195 294 202 297 c 1
 215 300 227 307 227 323 c 2
 227 434 l 10
 227 464 200 488 172 488 c 0
 156 488 133 481 120 472 c 0
 107 462 103 454 103 429 c 2
 103 321 l 2
 103 305 114 300 127 297 c 1
 135 294 142 289 142 283 c 0
 142 277 131 273 127 273 c 2
 21 273 l 2
 18 273 6 277 6 283 c 0
 6 289 14 294 21 297 c 1
 34 300 49 305 49 321 c 2
 49 608 l 2
 49 629 42 647 20 652 c 8
 12 654 11 672 19 674 c 16
 52 681 75 690 96 698 c 1
 97 698 l 2
 101 698 107 696 109 694 c 1
 109 687 103 677 103 612 c 2
 103 515 l 2
 103 508 105 496 108 493 c 1
 128 507 161 524 202 524 c 0
 244 524 281 498 281 452 c 2
 281 323 l 2
EndSplineSet
Validated: 1
EndChar

StartChar: uni02B2
Encoding: 625 690 610
GlifName: uni02B_2
Width: 137
VWidth: 0
Flags: HMW
LayerCount: 3
Fore
SplineSet
46 623 m 0
 46 641 64 658 82 658 c 0
 101 658 119 641 119 623 c 0
 119 606 101 589 82 589 c 0
 64 589 46 606 46 623 c 0
61 425 m 2
 61 446 52 464 31 469 c 8
 23 471 22 489 30 491 c 16
 63 498 86 518 109 530 c 0
 110 530 112 531 115 531 c 0
 119 531 123 530 123 528 c 0
 122 514 118 481 118 429 c 2
 118 319 l 2
 118 282 117 221 99 173 c 0
 83 133 41 97 15 92 c 1
 13 92 l 2
 7 92 -6 96 -6 100 c 0
 -6 105 -3 116 -1 116 c 0
 14 120 30 130 42 154 c 0
 61 191 61 266 61 307 c 2
 61 425 l 2
EndSplineSet
Validated: 1
EndChar

StartChar: uni02B3
Encoding: 626 691 611
GlifName: uni02B_3
Width: 229
VWidth: 0
Flags: HMW
LayerCount: 3
Fore
SplineSet
101 421 m 2
 101 322 l 2
 101 306 123.333189158 299.924363706 136 297 c 0
 142.820590453 295.42534262 151 289 151 283 c 0
 151 277 139 273 136 273 c 2
 22 273 l 2
 19 273 7 277 7 283 c 0
 7 289 15.1794095465 295.42534262 22 297 c 0
 34.6668108422 299.924363706 50 303 50 319 c 2
 50 431 l 2
 50 453 42 470 20 475 c 8
 12 477 12 495 20 497 c 16
 53 504 74 520 92 530 c 1
 94 530 l 2
 97 530 104 528 105 526 c 1
 105 522 104 506 103 487 c 0
 103 481 114 490 119 494 c 0
 140 511 158 521 185 521 c 0
 203 521 223 512 223 496 c 0
 223 484 209 458 196 458 c 0
 181 458 163 469 150 469 c 0
 129 469 101 461 101 421 c 2
EndSplineSet
Validated: 1
EndChar

StartChar: uni02B7
Encoding: 630 695 612
GlifName: uni02B_7
Width: 454
VWidth: 0
Flags: HMW
LayerCount: 3
Fore
SplineSet
377 477 m 0
 377 497 344 492 344 509 c 0
 344 515 356 519 359 519 c 2
 437 519 l 2
 440 519 452 515 452 509 c 0
 452 503 444 497 437 495 c 0
 424 491 411 483 404 468 c 26
 315 271 l 2
 314 268 310 267 306 267 c 0
 302 267 298 268 297 271 c 2
 236 418 l 2
 234 424 232 426 228 417 c 2
 164 271 l 2
 163 268 159 267 156 267 c 0
 152 267 148 268 147 271 c 2
 57 478 l 2
 54 485 36 491 23 495 c 0
 16 497 8 503 8 509 c 0
 8 515 20 519 23 519 c 2
 126 519 l 2
 129 519 141 515 141 509 c 0
 141 503 133 497 126 495 c 0
 118 493 115 486 115 480 c 0
 115 476 116 472 118 468 c 2
 163 364 l 2
 166 356 169 356 173 365 c 2
 207 448 l 2
 211 457 212 463 212 469 c 0
 212 485 200 491 188 495 c 1
 181 496 173 503 173 509 c 0
 173 515 185 519 188 519 c 2
 290 519 l 2
 293 519 305 515 305 509 c 0
 305 503 297 497 290 495 c 0
 279 492 268 484 268 474 c 0
 268 472 269 470 270 468 c 2
 310 374 l 2
 314 365 318 359 322 359 c 0
 325 359 328 363 332 372 c 2
 371 458 l 2
 375 466 377 472 377 477 c 0
EndSplineSet
Validated: 1
EndChar

StartChar: uni02B8
Encoding: 631 696 613
GlifName: uni02B_8
Width: 304
VWidth: 0
Flags: HMW
LayerCount: 3
Fore
SplineSet
23 500 m 0
 15 502 8 509 8 515 c 0
 8 521 19 524 23 524 c 2
 122 524 l 2
 125 524 136 521 136 515 c 0
 136 509 129 502 122 500 c 0
 113 497 109 489 109 480 c 0
 109 476 110 472 112 468 c 2
 155 366 l 2
 159 357 162 358 165 366 c 2
 204 458 l 2
 206 464 208 471 208 478 c 0
 208 488 205 498 197 500 c 0
 190 502 182 509 182 515 c 0
 182 521 194 524 197 524 c 2
 277 524 l 2
 281 524 292 521 292 515 c 0
 292 509 285 502 277 500 c 0
 264 496 247 485 239 468 c 26
 151 273 l 2
 148 268 115 192 88 135 c 0
 80 118 65 110 46 110 c 8
 30 110 10 118 10 132 c 8
 10 143 14 155 26 156 c 0
 38 156 49 147 57 147 c 0
 60 147 63 149 66 153 c 0
 79 174 101 225 120 271 c 0
 122 276 124 287 124 297 c 0
 124 302 123 307 122 310 c 2
 52 478 l 10
 46 491 36 496 23 500 c 0
EndSplineSet
Validated: 1
EndChar

StartChar: uni02E1
Encoding: 660 737 618
GlifName: uni02E_1
Width: 149
VWidth: 0
Flags: HMW
LayerCount: 3
Fore
SplineSet
101 320 m 2
 101 304 116 302 129 298 c 0
 136 296 144 289 144 283 c 0
 144 277 132 273 129 273 c 2
 19 273 l 2
 16 273 4 277 4 283 c 0
 4 289 12 296 19 298 c 0
 32 302 47 304 47 320 c 2
 47 608 l 2
 47 617 38 648 17 652 c 8
 9 654 9 672 17 674 c 16
 50 681 71 691 92 698 c 1
 94 698 l 2
 98 698 105 696 105 694 c 0
 105 687 101 666 101 612 c 2
 101 320 l 2
EndSplineSet
Validated: 1
EndChar

StartChar: uni02E2
Encoding: 661 738 619
GlifName: uni02E_2
Width: 203
VWidth: 0
Flags: HMW
LayerCount: 3
Fore
SplineSet
113 503 m 0
 87 503 80 485 80 472 c 0
 80 456 114 434 132 417 c 0
 148 402 189 376 189 343 c 0
 189 301 155 269 80 269 c 0
 67 269 25 282 21 290 c 0
 17 299 13 313 13 327 c 0
 13 333 39 335 40 328 c 0
 45 308 70 299 90 299 c 0
 120 299 128 319 128 329 c 0
 127 349 108 365 87 380 c 0
 57 401 23 426 23 464 c 0
 23 506 61 536 113 536 c 0
 114 536 115 536 116 536 c 0
 142 536 167 515 173 509 c 0
 181 500 182 487 182 470 c 0
 182 468 180 467 177 467 c 0
 168 467 151 474 150 479 c 0
 147 500 121 503 113 503 c 0
EndSplineSet
Validated: 1
EndChar

StartChar: uni02E3
Encoding: 662 739 620
GlifName: uni02E_3
Width: 266
VWidth: 0
Flags: HMW
LayerCount: 3
Fore
SplineSet
52 482 m 2
 49 487 42 495 29 499 c 0
 22 501 14 507 14 514 c 0
 14 520 26 524 29 524 c 2
 80 524 l 2
 96 524 98 525 113 525 c 0
 116 525 128 519 128 513 c 0
 128 506 122 501 115 498 c 0
 110 496 108 487 111 482 c 2
 129 456 l 2
 138 440 140 442 146 450 c 2
 171 484 l 2
 173 486 175 498 171 499 c 0
 164 501 156 507 156 513 c 0
 156 519 168 524 171 524 c 2
 243 524 l 2
 246 524 258 519 258 513 c 0
 258 507 250 502 243 500 c 0
 230 496 209 495 197 480 c 18
 154 425 l 2
 153 423 156 413 158 411 c 2
 221 314 l 2
 226 306 235 297 248 293 c 0
 255 291 263 289 263 282 c 0
 263 276 251 273 248 273 c 2
 148 273 l 2
 145 273 133 276 133 282 c 0
 133 298 164 295 164 308 c 0
 164 310 163 313 160 317 c 2
 125 372 l 2
 123 375 118 367 117 365 c 2
 78 309 l 2
 75 305 74 299 87 295 c 0
 94 293 102 288 102 282 c 0
 102 276 90 273 87 273 c 2
 18 273 l 2
 6 273 2 275 2 281 c 0
 2 288 11 292 18 293 c 0
 32 295 50 316 56 323 c 2
 104 387 l 2
 109 394 107 402 104 407 c 2
 52 482 l 2
EndSplineSet
Validated: 1
EndChar

StartChar: uni0308
Encoding: 672 776 621
GlifName: uni0308
Width: 0
VWidth: 0
Flags: HMW
AnchorPoint: "top_stack" 148 474 mark 0
AnchorPoint: "gravestack" 143 570 basemark 0
AnchorPoint: "acutestack" 152 570 basemark 0
AnchorPoint: "top_stack" 148 636 basemark 0
AnchorPoint: "top_accent" 148 531 mark 0
AnchorPoint: "grk_top" 147 520 mark 0
LayerCount: 3
Fore
SplineSet
241 574 m 0
 266 574 291 549 291 524 c 0
 291 499 266 474 241 474 c 0
 216 474 191 499 191 524 c 0
 191 549 216 574 241 574 c 0
64 574 m 0
 89 574 114 549 114 524 c 0
 114 499 89 474 64 474 c 0
 39 474 14 499 14 524 c 0
 14 549 39 574 64 574 c 0
EndSplineSet
Validated: 1
Substitution2: "Smallcaps1 subtable" uni0308.sc
Substitution2: "Single Substitution lookup 20 subtable" uni0308.grkstack
Substitution2: "'case' Case-Sensitive Forms lookup 9 subtable" uni0308.cap
EndChar

StartChar: uni030E
Encoding: 678 782 622
GlifName: uni030E_
Width: 0
VWidth: 0
Flags: HMW
AnchorPoint: "top_accent" 90 550 mark 0
LayerCount: 3
Fore
SplineSet
111 657 m 18
 111 665 134 675 143 675 c 0
 151 675 156 667 156 659 c 10
 156 520 l 18
 156 513 138.716796875 500 124 500 c 16
 116 500 111 510 111 519 c 10
 111 657 l 18
24 657 m 18
 24 665 47 675 56 675 c 0
 64 675 69 667 69 659 c 10
 69 520 l 18
 69 513 51.716796875 500 37 500 c 16
 29 500 24 510 24 519 c 10
 24 657 l 18
EndSplineSet
Validated: 1
EndChar

StartChar: uni0327
Encoding: 703 807 623
GlifName: uni0327
Width: 0
VWidth: 0
Flags: HMW
AnchorPoint: "cedilla" 114 8 mark 0
LayerCount: 3
Fore
SplineSet
25 -129 m 0
 18 -129 7 -123 7 -114 c 0
 7 -111 9 -108 12 -104 c 2
 100 8 l 17
 131 8 l 9
 92 -43 l 2
 90 -45 88 -49 88 -51 c 0
 88 -57 95 -62 99 -63 c 0
 131 -77 160 -106 160 -139 c 0
 160 -219 71 -274 35 -274 c 0
 8 -274 5 -252 5 -233 c 0
 5 -219 14 -214 18 -214 c 0
 25 -214 38 -225 71 -225 c 0
 97 -225 110 -206 110 -180 c 0
 110 -144 86 -123 51 -123 c 0
 38 -123 32 -129 25 -129 c 0
EndSplineSet
Validated: 1
Substitution2: "'case' Case-Sensitive Forms lookup 9 subtable" uni0327.cap
EndChar

StartChar: uni0341
Encoding: 728 833 624
GlifName: uni0341
Width: 0
VWidth: 0
Flags: HMW
AnchorPoint: "grk_top" 30 510 mark 0
LayerCount: 3
Fore
SplineSet
47 478 m 0
 41 468 31 456 23 456 c 0
 14 456 14 460 14 469 c 0
 14 487 45 609 55 645 c 0
 58 657 72 663 80 663 c 0
 99 663 118 638 118 622 c 0
 118 612 68 514 47 478 c 0
EndSplineSet
Validated: 1
EndChar

StartChar: Upsilon
Encoding: 773 933 641
GlifName: U_psilon
Width: 739
VWidth: 0
Flags: HMW
AnchorPoint: "grk_bottom" 370 -100 basechar 0
AnchorPoint: "grk_uc_right" 613 290 basechar 0
AnchorPoint: "grk_uc_top" 375 720 basechar 0
AnchorPoint: "grk_uc_top_left" -41 665 basechar 0
LayerCount: 3
Fore
SplineSet
592 650 m 0
 653 650 690 616 717 589 c 0
 721 585 728 577 728 573 c 0
 728 569 722 565 719 567 c 0
 688 589 646 600 605 600 c 0
 471 600 405 450 405 288 c 2
 405 108 l 2
 405 63 434 33 484 24 c 0
 507 20 517 15 517 6 c 0
 517 -2 505 -5 488 -5 c 0
 434 -5 417 0 371 0 c 24
 321 0 297 -5 243 -5 c 0
 226 -5 214 -2 214 6 c 0
 214 15 224 20 247 24 c 0
 297 33 325 60 325 108 c 2
 325 287 l 2
 325 405 276 600 150 600 c 0
 101 600 55 573 30 549 c 0
 27 546 20 549 20 553 c 17
 20 553 19 560 32 575 c 0
 45 591 107 650 170 650 c 0
 320 650 361 452 365 452 c 0
 369 452 442 650 592 650 c 0
EndSplineSet
Validated: 1
Substitution2: "c2sc subtable" Upsilon.sc
Position2: "Single Positioning lookup 33 subtable" dx=0 dy=0 dh=-70 dv=0
Position2: "Single Positioning lookup 32 subtable" dx=0 dy=0 dh=-70 dv=0
Position2: "Single Positioning lookup 21 subtable" dx=223 dy=0 dh=223 dv=0
Position2: "Single Positioning lookup 20 subtable" dx=84 dy=0 dh=84 dv=0
EndChar

StartChar: uni041A
Encoding: 857 1050 654
GlifName: uni041A_
Width: 646
VWidth: 0
Flags: HMW
AnchorPoint: "below_accent" 355 -100 basechar 0
AnchorPoint: "top_accent" 363 710 basechar 0
LayerCount: 3
Fore
SplineSet
220 327 m 0
 211 327 211 314 211 308 c 2
 211 110 l 2
 211 67 230 33 280 24 c 0
 303 20 313 15 313 6 c 0
 313 -2 301 -5 284 -5 c 0
 230 -5 224 2 186 2 c 0
 137 2 114 -5 60 -5 c 0
 43 -5 31 -2 31 6 c 0
 31 15 41 20 64 24 c 0
 114 33 131 51 131 101 c 2
 131 551 l 2
 131 597 114 613 64 622 c 0
 41 626 31 633 31 642 c 0
 31 650 43 653 60 653 c 0
 114 653 131 650 177 650 c 0
 213 650 215 653 269 653 c 0
 286 653 298 650 298 642 c 0
 298 633 288 626 265 622 c 0
 215 613 211 590 211 551 c 2
 211 378 l 2
 211 363 212 359 217 359 c 0
 242 359 276 359 291 364 c 0
 359 385 392 487 427 566 c 0
 448 614 476 664 542 664 c 0
 585 664 603 641 603 614 c 0
 603 594 592 567 565 567 c 0
 546 567 527 582 511 582 c 0
 493 582 479 580 459 533 c 0
 432 470 405 383 349 359 c 0
 337 354 341 351 348 349 c 0
 361 344 384 339 406 315 c 0
 440 277 493 117 554 51 c 0
 573 30 605 26 652 25 c 0
 658 25 663 19 663 13 c 0
 663 8 659 3 655 0 c 0
 642 -9 606 -18 572 -18 c 0
 524 -18 473 -13 426 93 c 0
 407 137 384 187 364 232 c 0
 341 283 308 318 281 323 c 0
 261 327 239 327 220 327 c 0
EndSplineSet
Validated: 1
Substitution2: "loclBGR subtable" uni041A.BGR
Position2: "rtbd subtable" dx=0 dy=0 dh=-34 dv=0
EndChar

StartChar: uni0443
Encoding: 898 1091 667
GlifName: uni0443
Width: 438
VWidth: 0
Flags: HMW
AnchorPoint: "top_accent" 223 550 basechar 0
LayerCount: 3
Fore
SplineSet
28 378 m 0
 17 382 5 386 5 396 c 0
 5 404 18 405 25 405 c 0
 26 405 27 405 28 405 c 0
 67 405 63 400 98 400 c 0
 133 400 132 405 171 405 c 0
 172 405 173 405 174 405 c 0
 182 405 194 404 194 396 c 0
 194 386 182 382 171 378 c 0
 157 374 149 354 149 335 c 0
 149 327 150 319 153 312 c 2
 232 116 l 2
 238 102 242 103 247 117 c 2
 314 295 l 2
 318 304 319 315 319 325 c 0
 319 350 310 374 296 378 c 0
 285 382 273 386 273 396 c 0
 273 404 286 405 293 405 c 0
 294 405 295 405 296 405 c 0
 311 405 329 400 364 400 c 0
 399 400 401 405 420 405 c 0
 421 405 422 405 423 405 c 0
 430 405 443 404 443 396 c 0
 443 386 431 382 420 378 c 0
 400 372 374 343 361 311 c 26
 225 -13 l 2
 221 -22 172 -148 131 -244 c 0
 119 -271 100 -285 71 -285 c 8
 48 -285 28 -265 28 -243 c 8
 28 -218 52 -194 71 -194 c 0
 81 -194 93 -213 104 -213 c 0
 107 -213 111 -211 114 -206 c 0
 135 -170 161 -93 190 -16 c 0
 192 -10 193 -2 193 7 c 0
 193 18 192 28 189 36 c 2
 73 329 l 10
 63 353 48 372 28 378 c 0
EndSplineSet
Validated: 1
Position2: "rtbd subtable" dx=0 dy=0 dh=-22 dv=0
EndChar

StartChar: uni1D43
Encoding: 1034 7491 707
GlifName: uni1D_43
Width: 270
VWidth: 0
Flags: HMW
LayerCount: 3
Fore
SplineSet
80 342 m 0
 80 319 99 308 112 308 c 0
 127 308 142 319 152 327 c 0
 157 331 160 337 160 350 c 10
 160 379 l 18
 160 391 156 393 145 390 c 0
 95 376 80 356 80 342 c 0
219 268 m 0
 182 268 169 299 164 299 c 0
 155 299 137 268 84 268 c 0
 57 268 25 304 25 327 c 0
 25 352 31 368 63 380 c 10
 142 408 l 18
 159 414 160 416 160 432 c 2
 160 455 l 26
 160 475 147 491 123 491 c 0
 107 491 85 486 80 478 c 1
 77 471 78 461 78 453 c 0
 78 445 48 438 33 434 c 0
 29 433 26 437 29 444 c 0
 35 459 38 469 54 482 c 0
 74 499 120 524 154 524 c 0
 185 524 215 499 215 471 c 10
 215 347 l 26
 215 330 215 308 234 308 c 0
 246 308 251 310 255 316 c 0
 260 322 268 310 268 303 c 0
 268 298 243 268 219 268 c 0
EndSplineSet
Validated: 1
EndChar

StartChar: uni1D47
Encoding: 1035 7495 708
GlifName: uni1D_47
Width: 319
VWidth: 0
Flags: HMW
LayerCount: 3
Fore
SplineSet
87 290 m 0
 81 290 72 285 68 283 c 0
 63 280 46 284 47 289 c 0
 49 306 51 331 51 346 c 2
 51 607 l 2
 51 616 42 647 21 651 c 0
 17 652 14 658 14 663 c 0
 14 668 16 672 20 673 c 0
 53 680 85 690 106 697 c 1
 107 697 l 2
 109 697 111 695 111 693 c 0
 111 690 109 664 109 630 c 2
 109 516 l 2
 109 503 111 496 117 496 c 1
 137 510 168 518 190 518 c 0
 258 518 309 470 309 405 c 0
 309 335 244 274 173 274 c 0
 132 274 96 290 87 290 c 0
248 393 m 0
 248 440 231 489 168 489 c 0
 150 489 132 480 122 469 c 1
 112 460 109 443 109 423 c 2
 109 361 l 2
 109 330 146 300 182 299 c 1
 184 299 l 2
 214 299 248 321 248 393 c 0
EndSplineSet
Validated: 1
EndChar

StartChar: uni1D48
Encoding: 1036 7496 709
GlifName: uni1D_48
Width: 313
VWidth: 0
Flags: HMW
LayerCount: 3
Fore
SplineSet
221 271 m 0
 212 271 211 306 208 306 c 0
 207 306 170 274 127 274 c 0
 53 274 7 327 7 388 c 0
 7 473 59 531 157 531 c 0
 185 531 196 523 200 523 c 0
 203 523 203 527 203 538 c 2
 203 613 l 2
 203 622 202 653 180 657 c 8
 171 659 170 679 179 681 c 16
 226 691 251 705 261 705 c 0
 264 705 265 704 266 702 c 1
 266 695 258 674 258 620 c 2
 258 364 l 2
 258 316 262 307 274 307 c 0
 287 307 298 314 306 314 c 0
 309 314 311 308 311 302 c 0
 311 295 309 289 306 288 c 0
 274 283 230 271 221 271 c 0
137 502 m 0
 112 502 68 483 68 403 c 0
 68 311 111 300 139 300 c 0
 161 300 204 321 204 361 c 2
 204 438 l 2
 204 472 177 502 137 502 c 0
EndSplineSet
Validated: 1
EndChar

StartChar: uni1D49
Encoding: 1037 7497 710
GlifName: uni1D_49
Width: 232
VWidth: 0
Flags: HMW
LayerCount: 3
Fore
SplineSet
9 390 m 8
 9 464 71 524 145 524 c 16
 185 524 225 500 225 460 c 8
 225 444 224 426 214 421 c 0
 205 417 185 415 167 415 c 18
 72 415 l 2
 64 415 63 399 63 389 c 8
 63 347 96 313 138 313 c 16
 166 313 184 323 204 343 c 16
 205 344 206 344 208 344 c 0
 216 344 229 332 226 327 c 0
 208 299 168 271 126 271 c 8
 61 271 9 325 9 390 c 8
70 448 m 0
 70 444 74 444 77 444 c 2
 118 444 l 10
 137 444 153 445 166 449 c 8
 174 451 174 464 174 469 c 0
 174 491 154 497 134 497 c 0
 98 497 70 467 70 448 c 0
EndSplineSet
Validated: 1
EndChar

StartChar: uni1D4D
Encoding: 1039 7501 711
GlifName: uni1D_4D_
Width: 277
VWidth: 0
Flags: HMW
LayerCount: 3
Fore
SplineSet
133 134 m 0
 184 134 212 175 212 209 c 0
 212 231 192 239 171 243 c 0
 155 246 126 250 111 251 c 1
 109 251 l 2
 92 251 81 242 73 232 c 0
 63 221 55 206 55 188 c 0
 55 146 80 134 133 134 c 0
113 498 m 8
 82 498 62 465 62 436 c 8
 62 401 80 364 117 364 c 0
 149 364 167 394 167 433 c 8
 167 466 149 498 113 498 c 8
121 524 m 8
 157 524 185 505 225 505 c 2
 259 505 l 1
 263 504 265 499 265 494 c 0
 265 489 263 484 259 484 c 0
 222 484 231 480 222 479 c 1
 219 472 220 460 220 451 c 0
 220 393 172 338 111 338 c 16
 97 338 88 337 82 341 c 1
 68 331 66 330 66 322 c 0
 66 305 99 298 120 296 c 0
 203 289 261 278 261 228 c 0
 261 162 196 100 117 100 c 8
 63 100 -4 116 -4 169 c 0
 -4 205 42 225 61 255 c 1
 39 259 19 273 19 301 c 0
 19 310 21 313 29 320 c 0
 40 330 47 337 57 351 c 1
 52 352 8 378 8 429 c 0
 8 489 64 524 121 524 c 8
EndSplineSet
Validated: 1
EndChar

StartChar: uni1D4F
Encoding: 1040 7503 712
GlifName: uni1D_4F_
Width: 326
VWidth: 0
Flags: HMW
LayerCount: 3
Fore
SplineSet
104 697 m 2
 107 697 108 694 108 689 c 0
 108 676 102 649 102 612 c 2
 102 424 l 2
 102 421 103 420 105 420 c 0
 111 420 122 428 128 433 c 0
 163 461 175 471 186 481 c 0
 190 484 195 495 184 497 c 0
 182 498 171 504 171 509 c 0
 171 518 182 519 185 519 c 10
 277 519 l 2
 279 519 284 512 284 510 c 0
 284 505 279 498 273 497 c 0
 257 494 240 489 228 482 c 0
 220 477 185 452 154 427 c 0
 151 425 150 420 156 413 c 0
 189 374 228 336 242 325 c 1
 256 312 281 301 294 297 c 0
 301 295 309 288 309 282 c 0
 309 276 297 273 294 273 c 2
 177 273 l 2
 174 273 162 276 162 282 c 0
 162 296 191 298 191 310 c 0
 191 312 190 316 187 319 c 2
 108 398 l 2
 106 400 102 399 102 394 c 0
 102 383 101 372 101 360 c 0
 101 348 102 336 102 322 c 0
 102 306 108 301 121 297 c 0
 128 295 136 288 136 282 c 0
 136 276 124 273 121 273 c 2
 24 273 l 2
 21 273 9 276 9 282 c 0
 9 288 17 295 24 297 c 0
 37 301 48 306 48 322 c 2
 48 605 l 2
 48 614 44 645 23 649 c 8
 14 651 13 671 22 673 c 16
 55 680 82 690 103 697 c 1
 104 697 l 2
EndSplineSet
Validated: 1
EndChar

StartChar: uni1D50
Encoding: 1041 7504 713
GlifName: uni1D_50
Width: 483
VWidth: 0
Flags: HMW
LayerCount: 3
Fore
SplineSet
440 319 m 2
 440 303 451 301 464 297 c 0
 471 295 479 288 479 282 c 0
 479 276 467 272 464 272 c 2
 360 272 l 2
 357 272 345 276 345 282 c 0
 345 288 353 295 360 297 c 0
 373 301 384 303 384 319 c 2
 384 428 l 10
 384 457 364 485 336 485 c 0
 314 485 296 481 280 469 c 0
 272 464 267 450 267 426 c 2
 267 319 l 2
 267 303 278 301 291 297 c 0
 298 295 306 288 306 282 c 0
 306 276 294 272 291 272 c 2
 188 272 l 2
 185 272 173 276 173 282 c 0
 173 288 181 295 188 297 c 0
 201 301 211 303 211 319 c 2
 211 428 l 10
 211 457 192 485 164 485 c 0
 142 485 124 481 108 469 c 0
 100 464 95 451 95 426 c 2
 95 319 l 1
 96 303 105 301 118 297 c 0
 125 295 133 288 133 282 c 0
 133 276 121 272 118 272 c 2
 17 272 l 2
 14 272 2 276 2 282 c 0
 2 288 10 295 17 297 c 0
 30 301 40 303 41 319 c 1
 41 432 l 2
 41 454 41 472 19 476 c 8
 10 478 10 497 19 499 c 16
 52 506 61 519 82 533 c 0
 83 533 83 534 84 534 c 0
 88 534 94 531 95 529 c 1
 95 524 92 501 92 489 c 0
 92 485 92 483 93 482 c 1
 111 497 145 524 196 524 c 0
 227 524 246 512 256 487 c 0
 260 477 265 478 275 489 c 0
 290 505 328 524 369 524 c 0
 411 524 440 498 440 451 c 2
 440 319 l 2
EndSplineSet
Validated: 1
EndChar

StartChar: uni1D52
Encoding: 1043 7506 714
GlifName: uni1D_52
Width: 309
VWidth: 0
Flags: HMW
LayerCount: 3
Fore
SplineSet
149 493 m 0
 104 493 88 448 88 402 c 0
 88 347 116 297 160 297 c 0
 204 297 221 341 221 389 c 0
 221 441 194 493 149 493 c 0
160 524 m 0
 225 524 284 469 284 404 c 0
 284 334 238 268 148 268 c 0
 81 268 25 316 25 388 c 0
 25 462 86 524 160 524 c 0
EndSplineSet
Validated: 1
EndChar

StartChar: uni1D56
Encoding: 1044 7510 715
GlifName: uni1D_56
Width: 321
VWidth: 0
Flags: HMW
LayerCount: 3
Fore
SplineSet
46 158 m 2
 46 440 l 2
 46 449 37 480 16 484 c 8
 7 486 7 505 16 507 c 16
 49 514 73 523 94 531 c 1
 96 531 l 2
 100 531 107 529 107 525 c 0
 107 517 104 499 104 490 c 0
 104 487 104 486 105 485 c 1
 117 496 158 524 199 524 c 0
 266 524 306 468 306 412 c 0
 306 340 241 274 159 274 c 0
 141 274 116 293 103 293 c 0
 101 293 101 266 101 262 c 2
 101 158 l 2
 101 142 112 139 125 135 c 0
 132 133 140 126 140 120 c 0
 140 114 128 111 125 111 c 2
 18 111 l 2
 15 111 3 114 3 120 c 0
 3 126 11 133 18 135 c 0
 31 139 46 142 46 158 c 2
101 405 m 0
 101 344 101 300 169 300 c 0
 194 300 245 338 245 398 c 0
 245 465 203 490 175 490 c 0
 153 490 136 480 120 469 c 0
 110 462 102 451 101 426 c 0
 101 419 101 412 101 405 c 0
EndSplineSet
Validated: 1
EndChar

StartChar: uni1D57
Encoding: 1045 7511 716
GlifName: uni1D_57
Width: 185
VWidth: 0
Flags: HMW
LayerCount: 3
Fore
SplineSet
179 305 m 0
 179 289 138 271 103 271 c 8
 68 271 33 294 33 329 c 26
 33 472 l 2
 33 483 24 480 10 481 c 0
 7 482 3 497 3 506 c 0
 3 509 4 511 5 512 c 0
 32 522 48 543 57 564 c 0
 59 569 75 571 85 571 c 0
 91 571 95 570 95 569 c 10
 91 527 l 18
 91 522 97 519 105 519 c 10
 171 519 l 18
 174 519 176 510 176 500 c 0
 176 490 174 481 171 481 c 10
 115 481 l 18
 91 481 89 480 89 472 c 0
 89 432 89 392 89 352 c 16
 89 328 101 307 124 307 c 0
 153 307 163 313 173 320 c 0
 177 323 179 312 179 305 c 0
EndSplineSet
Validated: 1
EndChar

StartChar: uni1D58
Encoding: 1046 7512 717
GlifName: uni1D_58
Width: 325
VWidth: 0
Flags: HMW
LayerCount: 3
Fore
SplineSet
219 268 m 0
 218 268 217 271 217 275 c 0
 217 287.235236169 220 305.543024488 220 314 c 1
 186 283 153 272 113 272 c 0
 71 272 39 296 39 343 c 2
 39 457 l 2
 39 474 28 484 8 491 c 0
 6 492 3 500 3 504 c 0
 3 509 6 518 9 518 c 0
 44 519 60 524 85 529 c 0
 91 530 100 526 99 520 c 0
 96 501 95 484 95 466 c 2
 95 365 l 2
 95 336 111 310 139 310 c 0
 161 310 168 311 184 322 c 0
 194 329 213 342 213 367 c 2
 213 461 l 2
 213 486 177 489 172 491 c 0
 169 492 166 500 166 504 c 0
 166 508 169 518 172 518 c 0
 238 521 235 526 258 532 c 1
 264.474917072 532 278.257498286 523.42916381 275 518 c 0
 272 514 267 486 267 476 c 2
 267 357 l 2
 267 332.027568342 267 315 278 315 c 0
 285 315 310 316 316 317 c 0
 319 318 321 313 321 309 c 0
 321 305 320 293 317 293 c 0
 283 289 254 279 235 272 c 0
 233 271 223 268 219 268 c 0
EndSplineSet
Validated: 1
EndChar

StartChar: uni1D5B
Encoding: 1047 7515 718
GlifName: uni1D_5B_
Width: 287
VWidth: 0
Flags: HMW
LayerCount: 3
Fore
SplineSet
188 495 m 0
 181 497 173 504 173 510 c 0
 173 516 185 519 188 519 c 2
 270 519 l 2
 273 519 285 516 285 510 c 0
 285 504 277 497 270 495 c 0
 257 491 238 482 230 464 c 26
 144 274 l 2
 143 271 141 270 140 270 c 0
 138 270 136 272 135 274 c 2
 45 471 l 10
 39 484 29 491 16 495 c 0
 9 497 1 504 1 510 c 0
 1 516 13 519 16 519 c 2
 109 519 l 2
 112 519 124 516 124 510 c 0
 124 504 116 497 109 495 c 0
 103 493 101 489 101 483 c 0
 101 477 103 469 106 463 c 2
 148 361 l 2
 151 353 152 352 155 360 c 2
 197 460 l 2
 199 465 200 470 200 475 c 0
 200 484 196 492 188 495 c 0
EndSplineSet
Validated: 1
EndChar

StartChar: uni1D9C
Encoding: 1053 7580 723
GlifName: uni1D_9C_
Width: 239
VWidth: 0
Flags: HMW
LayerCount: 3
Fore
SplineSet
12 389 m 8
 12 464 74 524 149 524 c 16
 177 524 207 517 227 495 c 0
 229 492 230 490 230 487 c 0
 230 479 222 470 215 464 c 8
 208 458 195 461 192 466 c 0
 179 487 166 495 134 495 c 8
 92 495 66 453 66 411 c 16
 66 353 97 313 147 313 c 16
 174 313 191 320 208 340 c 0
 209 341 211 342 213 342 c 0
 220 342 231 333 231 327 c 0
 231 305 179 271 123 271 c 8
 60 271 12 327 12 389 c 8
EndSplineSet
Validated: 1
EndChar

StartChar: uni1DA0
Encoding: 1054 7584 724
GlifName: uni1D_A_0
Width: 222
VWidth: 0
Flags: HMW
LayerCount: 3
Fore
SplineSet
112 560 m 2
 112 532 l 2
 112 521 120 519 128 519 c 10
 197 519 l 18
 199 519 199 516 199 511 c 0
 199 500 195 481 191 481 c 10
 138 481 l 18
 114 481 112 476 112 470 c 0
 112 421 112 372 112 323 c 1
 113 307 127 301 140 297 c 0
 147 295 155 288 155 282 c 0
 155 276 143 273 140 273 c 2
 30 273 l 2
 27 273 15 276 15 282 c 0
 15 288 23 295 30 297 c 0
 43 301 56 307 56 323 c 2
 56 480 l 1
 48 480 39 480 25 481 c 0
 21 482 16 507 21 508 c 0
 41 513 43 514 56 520 c 1
 56 659 143 698 200 698 c 0
 229 698 243 695 265 680 c 16
 271 676 274 671 274 665 c 0
 274 649 254 630 242 630 c 0
 222 630 233 666 178 666 c 0
 138 666 112 641 112 560 c 2
EndSplineSet
Validated: 1
EndChar

StartChar: uni1DBB
Encoding: 1055 7611 725
GlifName: uni1D_B_B_
Width: 240
VWidth: 0
Flags: HMW
LayerCount: 3
Fore
SplineSet
69 518 m 16
 88 517 105 517 122 517 c 0
 158 517 190 518 222 519 c 0
 225 519 228 514 226 512 c 0
 217 502 216 494 207 482 c 2
 82 306 l 2
 79 301 86 297 90 297 c 2
 160 297 l 2
 180 297 191 317 211 343 c 0
 213 346 222 358 230 358 c 0
 236 358 235 346 235 344 c 0
 235 339 220 292 217 282 c 0
 216 279 212 273 208 273 c 2
 19 273 l 2
 16 273 10 280 10 283 c 0
 10 286 11 294 20 305 c 0
 64 363 101 412 148 482 c 0
 150 485 152 488 142 488 c 2
 82 488 l 2
 70 488 55 476 42 460 c 0
 39 456 31 446 25 446 c 0
 19 446 15 456 18 461 c 0
 23 472 27 501 29 515 c 0
 30 521 31 527 40 527 c 0
 45 527 57 519 69 518 c 16
EndSplineSet
Validated: 1
EndChar

StartChar: uni2010
Encoding: 1563 8208 763
GlifName: uni2010
Width: 274
VWidth: 0
Flags: HMW
LayerCount: 3
Fore
SplineSet
39 170 m 1
 35 170 l 2
 30 170 29 172 29 176 c 8
 31 198 35 229 45 230 c 0
 109 239 173 248 237 255 c 0
 241 255 245 253 245 249 c 0
 243 224 240 197 224 195 c 0
 164 186 103 177 39 170 c 1
EndSplineSet
Validated: 1
Substitution2: "Single Substitution lookup 113 subtable" uni2010.cap
Substitution2: "'case' Case-Sensitive Forms lookup 9 subtable" uni2010.cap
EndChar

StartChar: uni2011
Encoding: 1564 8209 764
GlifName: uni2011
Width: 274
VWidth: 0
Flags: HMW
LayerCount: 3
Fore
SplineSet
39 170 m 1
 35 170 l 2
 30 170 29 172 29 176 c 8
 31 198 35 229 45 230 c 0
 109 239 173 248 237 255 c 0
 241 255 245 253 245 249 c 0
 243 224 240 197 224 195 c 0
 164 186 103 177 39 170 c 1
EndSplineSet
Validated: 1
Substitution2: "Single Substitution lookup 113 subtable" uni2011.cap
Substitution2: "'case' Case-Sensitive Forms lookup 9 subtable" uni2011.cap
EndChar

StartChar: figuredash
Encoding: 1565 8210 765
GlifName: figuredash
Width: 528
VWidth: 0
Flags: HMW
LayerCount: 3
Fore
SplineSet
36 241 m 26
 499 241 l 18
 505 241 512 235 512 229 c 0
 512 207 499 181 481 181 c 26
 26 181 l 26
 19 181 12 187 12 193 c 0
 12 202 15 241 36 241 c 26
EndSplineSet
Validated: 1
Substitution2: "Single Substitution lookup 113 subtable" figuredash.cap
Substitution2: "'case' Case-Sensitive Forms lookup 9 subtable" figuredash.cap
EndChar

StartChar: uni2015
Encoding: 1568 8213 766
GlifName: uni2015
Width: 2000
VWidth: 0
Flags: HMW
LayerCount: 3
Fore
SplineSet
74 239 m 26
 1937 239 l 18
 1943 239 1950 233 1950 227 c 0
 1950 207 1935 185 1919 185 c 26
 64 185 l 26
 57 185 50 191 50 197 c 0
 50 206 55 239 74 239 c 26
EndSplineSet
Validated: 1
EndChar

StartChar: minute
Encoding: 1585 8242 772
GlifName: minute
Width: 178
VWidth: 0
Flags: HMW
LayerCount: 3
Fore
SplineSet
79 633 m 0
 87 663.400390625 112.184570312 676 137 676 c 0
 147 676 148 669 148 657 c 0
 148 631 102 516.400024414 75 469 c 0
 68.5656008738 457.704049049 61 444 51 444 c 0
 41 444 40 452 40 461 c 0
 40 478 74.0693359375 614.262695312 79 633 c 0
EndSplineSet
Validated: 1
EndChar

StartChar: uni2035
Encoding: 1588 8245 775
GlifName: uni2035
Width: 178
VWidth: 0
Flags: HMW
LayerCount: 3
Fore
SplineSet
99 633 m 0
 104 614 138 478 138 461 c 0
 138 452 137 444 127 444 c 0
 117 444 109 458 103 469 c 0
 76 516 30 616 30 642 c 0
 30 654 55 676 75 676 c 0
 83 676 91 663 99 633 c 0
EndSplineSet
Validated: 1
EndChar

StartChar: uni2070
Encoding: 1604 8304 784
GlifName: uni2070
Width: 300
VWidth: 0
Flags: HMW
LayerCount: 3
Fore
SplineSet
149 760 m 8
 87 760 75 681 75 619 c 0
 75 548 82 455 153 455 c 16
 219 455 225 541 225 607 c 16
 225 674 216 760 149 760 c 8
160 785 m 16
 241 785 285 700 285 619 c 16
 285 528 234 433 142 433 c 8
 58 433 15 524 15 608 c 8
 15 697 71 785 160 785 c 16
EndSplineSet
Validated: 1
EndChar

StartChar: uni2071
Encoding: 1605 8305 785
GlifName: uni2071
Width: 156
VWidth: 0
Flags: HMW
LayerCount: 3
Fore
SplineSet
39 623 m 0
 39 641 57 658 75 658 c 0
 94 658 112 641 112 623 c 0
 112 606 94 589 75 589 c 0
 57 589 39 606 39 623 c 0
104 320 m 2
 104 304 123 302 136 298 c 0
 143 296 151 289 151 283 c 0
 151 277 139 273 136 273 c 2
 22 273 l 2
 19 273 7 277 7 283 c 0
 7 289 15 296 22 298 c 0
 35 302 52 304 52 320 c 2
 52 426 l 2
 52 447 45 465 23 469 c 0
 18 470 15 477 15 483 c 0
 15 489 17 494 22 495 c 0
 56 503 70 517 92 530 c 1
 96 530 l 2
 102 530 112 529 112 527 c 0
 110 513 104 486 104 434 c 2
 104 320 l 2
EndSplineSet
Validated: 1
EndChar

StartChar: uni2074
Encoding: 1606 8308 786
GlifName: uni2074
Width: 300
VWidth: 0
Flags: HMW
LayerCount: 3
Fore
SplineSet
161 580 m 2
 165 580 169 582 169 585 c 2
 169 696 l 2
 169 698 165 699 163 697 c 24
 125 655 99 622 71 585 c 0
 69 583 69 580 71 580 c 2
 161 580 l 2
243 540 m 0
 237 540 221 539 221 535 c 2
 221 459 l 2
 221 444 183 432 179 432 c 0
 173 432 169 434 169 440 c 2
 169 532 l 2
 169 536 161 537 161 537 c 1
 111 537 77 534 15 533 c 0
 12 533 8 537 8 540 c 0
 8 541 9 541 9 541 c 1
 51 597 96 650 139 705 c 0
 151 720 174 745 197 770 c 25
 203 775 209 781 213 782 c 1
 214 782 l 2
 217 782 219 777 219 774 c 0
 219 748 220 657 221 583 c 24
 222 581 223 579 225 579 c 16
 231 579 237 579 243 579 c 0
 256 579 267 579 283 580 c 0
 287 580 291 578 291 574 c 24
 288 560 281 539 277 539 c 0
 266 539 254 540 243 540 c 0
EndSplineSet
Validated: 1
EndChar

StartChar: uni2075
Encoding: 1607 8309 787
GlifName: uni2075
Width: 300
VWidth: 0
Flags: HMW
LayerCount: 3
Fore
SplineSet
248 567 m 0
 248 509 213 477 177 457 c 0
 155 445 116 430 74 430 c 16
 64 430 59 435 59 439 c 0
 59 445 63 455 78 455 c 0
 134 455 188 475 188 547 c 0
 188 609 103 617 67 629 c 0
 57 632 52 644 52 650 c 0
 53 674 70 722 76 737 c 0
 81 749 87 758 101 761 c 0
 141 770 172 775 217 775 c 0
 222 775 223 770 223 765 c 0
 223 761 212 727 193 726 c 1
 159 722 129 724 109 721 c 0
 106 721 96 719 93 711 c 1
 89 704 87 700 87 693 c 0
 87 689 93 683 101 681 c 0
 173 661 248 653 248 567 c 0
EndSplineSet
Validated: 1
EndChar

StartChar: uni2076
Encoding: 1608 8310 788
GlifName: uni2076
Width: 300
VWidth: 0
Flags: HMW
LayerCount: 3
Fore
SplineSet
221 530 m 0
 221 563 209 598 176 598 c 0
 161 598 148 594 137 586 c 0
 132 582 127 578 122 578 c 0
 116 578 114 584 114 588 c 0
 114 596 117 601 124 606 c 1
 136 618 171 640 193 640 c 0
 257 640 273 602 273 562 c 0
 273 504 229 426 145 426 c 0
 64 426 27 474 27 541 c 0
 27 623 73 675 95 696 c 0
 125 724 175 756 248 774 c 0
 252 774 258 769 256 764 c 24
 252 755 241 750 237 748 c 0
 183 727 89 670 89 538 c 0
 89 478 124 446 163 446 c 0
 200 446 221 474 221 530 c 0
EndSplineSet
Validated: 1
EndChar

StartChar: uni2077
Encoding: 1609 8311 789
GlifName: uni2077
Width: 300
VWidth: 0
Flags: HMW
LayerCount: 3
Fore
SplineSet
224 710 m 2
 226 714 229 719 214 719 c 2
 81 719 l 2
 60 719 53 713 47 696 c 0
 44 689 34 672 24 672 c 0
 20 672 19 676 19 682 c 0
 19 704 36 753 38 758 c 0
 41 767 45 769 48 769 c 2
 275 769 l 2
 279 769 282 761 282 756 c 0
 282 740 263 724 254 707 c 2
 113 452 l 2
 107 441 98 425 94 425 c 0
 79 425 72 432 72 447 c 0
 72 451 80 467 87 479 c 18
 224 710 l 2
EndSplineSet
Validated: 1
EndChar

StartChar: uni2078
Encoding: 1610 8312 790
GlifName: uni2078
Width: 300
VWidth: 0
Flags: HMW
LayerCount: 3
Fore
SplineSet
167 636 m 0
 193 657 197 683 197 716 c 16
 197 745 179 772 150 772 c 8
 122 772 97 752 97 725 c 8
 97 683 119 669 159 637 c 1
 162 636 165 634 167 636 c 0
180 624 m 0
 223 597 262 575 262 531 c 8
 262 470 197 431 141 431 c 8
 87 431 32 462 32 516 c 16
 32 565 87 589 116 605 c 0
 122 608 119 608 115 612 c 0
 81 640 45 666 45 714 c 16
 45 759 102 785 152 785 c 16
 198 785 249 760 249 713 c 16
 249 686 226 670 213 659 c 0
 202 650 196 645 183 636 c 0
 173 629 173 628 180 624 c 0
122 595 m 0
 98 576 92 560 92 525 c 8
 92 487 111 447 149 447 c 16
 183 447 202 476 202 508 c 16
 202 542 173 571 140 593 c 0
 136 596 133 598 129 598 c 0
 127 598 125 597 122 595 c 0
EndSplineSet
Validated: 1
EndChar

StartChar: uni2079
Encoding: 1611 8313 791
GlifName: uni2079
Width: 300
VWidth: 0
Flags: HMW
LayerCount: 3
Fore
SplineSet
157 783 m 0
 220 783 273 731 273 661 c 0
 273 592 230 538 195 506 c 0
 159 474 88 429 44 423 c 1
 43 423 l 2
 39 423 34 427 34 431 c 8
 34 438 39 446 44 447 c 0
 81 458 136 507 163 541 c 1
 187 569 213 600 213 668 c 0
 213 718 183 755 136 755 c 0
 106 755 81 726 81 687 c 0
 81 654 102 628 137 628 c 0
 152 628 156 630 164 633 c 0
 172 636 180 646 187 649 c 0
 190 651 194 632 192 630 c 0
 188 622 175 613 168 608 c 0
 158 601 136 588 112 588 c 0
 67 588 26 620 26 664 c 0
 26 718 78 783 157 783 c 0
EndSplineSet
Validated: 1
EndChar

StartChar: uni207F
Encoding: 1617 8319 796
GlifName: uni207F_
Width: 332
VWidth: 0
Flags: HMW
LayerCount: 3
Fore
SplineSet
287 324 m 2
 287 307 300 300 313 297 c 1
 320 294 328 289 328 283 c 0
 328 277 316 273 313 273 c 2
 206 273 l 2
 203 273 191 277 191 283 c 0
 191 289 199 294 206 297 c 1
 219 300 233 307 233 324 c 2
 233 426 l 2
 233 461 207 482 172 482 c 0
 150 482 137 480 120 468 c 0
 111 462 99 449 99 424 c 2
 99 324 l 18
 99 310 110 300 123 297 c 1
 131 294 138 289 138 283 c 0
 138 277 127 273 123 273 c 2
 17 273 l 2
 14 273 2 277 2 283 c 0
 2 289 10 294 17 297 c 1
 30 300 45 309 45 324 c 10
 45 441 l 2
 45 463 39 480 17 485 c 8
 11 486 10 499 16 500 c 16
 50 507 78 522 92 533 c 1
 93 533 l 2
 97 533 105 530 105 528 c 0
 105 522 100 499 100 489 c 0
 100 487 100 485 101 484 c 1
 120 498 165 524 206 524 c 0
 248 524 287 499 287 452 c 2
 287 324 l 2
EndSplineSet
Validated: 1
Substitution2: "'case' Case-Sensitive Forms lookup 9 subtable" uni207F.cap
Substitution2: "'smcp' Lowercase to small capitals POJ subtable" uni207F.sc
EndChar

StartChar: uni2080
Encoding: 1618 8320 797
GlifName: uni2080
Width: 300
VWidth: 0
Flags: HMW
LayerCount: 3
Fore
SplineSet
149 147 m 8
 87 147 75 68 75 6 c 0
 75 -65 82 -158 153 -158 c 16
 219 -158 225 -72 225 -6 c 16
 225 61 216 147 149 147 c 8
160 172 m 16
 241 172 285 87 285 6 c 16
 285 -86 234 -180 142 -180 c 8
 58 -180 15 -89 15 -5 c 8
 15 84 71 172 160 172 c 16
EndSplineSet
Validated: 1
EndChar

StartChar: uni2081
Encoding: 1619 8321 798
GlifName: uni2081
Width: 193
VWidth: 0
Flags: HMW
LayerCount: 3
Fore
SplineSet
116 172 m 0
 119 173 121 174 123 174 c 0
 129 174 133 168 132 160 c 0
 130 146 128 122 128 90 c 2
 128 -100 l 2
 128 -132 132 -140 176 -146 c 0
 184 -147 190 -152 190 -158 c 0
 190 -164 186 -171 178 -171 c 0
 121 -171 128 -169 96 -169 c 24
 64 -169 68 -171 14 -171 c 0
 7 -171 3 -165 3 -158 c 0
 3 -152 8 -146 16 -146 c 0
 43 -144 68 -134 68 -93 c 2
 68 46 l 2
 68 79 31 94 14 100 c 0
 6 103 3 108 3 113 c 0
 3 120 8 126 13 127 c 0
 64 132 104 166 116 172 c 0
EndSplineSet
Validated: 1
EndChar

StartChar: uni2082
Encoding: 1620 8322 799
GlifName: uni2082
Width: 300
VWidth: 0
Flags: HMW
LayerCount: 3
Fore
SplineSet
42 72 m 1
 37 63 26 66 26 78 c 0
 26 98 73 164 143 164 c 0
 194 164 234 122 234 72 c 16
 234 38 217 18 200 -8 c 0
 178 -40 108 -100 101 -108 c 0
 97 -112 109 -114 113 -114 c 0
 120 -113 126 -113 131 -113 c 0
 143 -113 155 -114 182 -114 c 0
 212 -114 241 -94 256 -64 c 0
 258 -58 265 -54 271 -56 c 16
 274 -56 275 -59 275 -61 c 0
 275 -62 274 -63 274 -64 c 0
 261 -100 253 -124 247 -156 c 0
 245 -167 241 -169 238 -169 c 0
 237 -169 236 -169 235 -168 c 0
 184 -166 184 -166 151 -166 c 24
 103 -166 79 -166 28 -168 c 0
 25 -168 23 -165 23 -161 c 0
 23 -158 25 -155 28 -152 c 2
 67 -112 l 2
 83 -96 178 -18 178 48 c 0
 178 85 151 110 121 110 c 0
 85 110 70 102 42 72 c 1
EndSplineSet
Validated: 1
EndChar

StartChar: uni2083
Encoding: 1621 8323 800
GlifName: uni2083
Width: 300
VWidth: 0
Flags: HMW
LayerCount: 3
Fore
SplineSet
113 -179 m 0
 84 -179 47 -174 47 -146 c 0
 47 -138 56 -118 65 -118 c 0
 71 -118 76 -121 78 -123 c 0
 90 -131 113 -145 143 -145 c 0
 156 -145 202 -141 202 -83 c 8
 202 -47 173 -18 135 -18 c 0
 125 -18 109 -22 98 -25 c 0
 92 -27 79 -19 84 -14 c 24
 99 1 120 2 133 11 c 0
 163 31 188 41 188 73 c 16
 188 95 158 110 139 110 c 0
 117 109 94 106 72 82 c 0
 68 77 63 74 59 74 c 0
 55 74 52 78 52 82 c 0
 52 115 114 157 156 157 c 0
 207 156 244 137 244 86 c 0
 244 61 221 37 185 19 c 0
 181 17 181 14 185 14 c 8
 222 14 254 -15 254 -52 c 16
 254 -133 166 -179 113 -179 c 0
EndSplineSet
Validated: 1
EndChar

StartChar: uni2084
Encoding: 1622 8324 801
GlifName: uni2084
Width: 300
VWidth: 0
Flags: HMW
LayerCount: 3
Fore
SplineSet
162 -31 m 2
 165 -31 170 -29 170 -26 c 2
 170 85 l 2
 170 87 166 88 164 86 c 24
 126 44 100 11 71 -26 c 0
 70 -28 69 -31 71 -31 c 2
 162 -31 l 2
278 -72 m 0
 272 -72 257 -71 245 -71 c 0
 233 -71 222 -72 222 -76 c 2
 222 -152 l 2
 222 -167 183 -179 179 -179 c 0
 174 -179 170 -177 170 -171 c 2
 170 -79 l 2
 170 -75 162 -74 161 -74 c 0
 112 -74 78 -77 15 -78 c 0
 12 -78 8 -74 8 -71 c 0
 8 -70 9 -70 9 -70 c 1
 51 -14 96 40 140 94 c 0
 152 109 175 134 198 159 c 24
 203 164 209 170 213 171 c 1
 214 171 l 2
 217 171 220 166 220 163 c 0
 220 137 220 46 222 -28 c 24
 222 -30 223 -32 225 -32 c 18
 243 -32 l 2
 257 -32 269 -32 284 -31 c 0
 289 -31 290 -34 290 -39 c 0
 290 -51 279 -72 278 -72 c 0
EndSplineSet
Validated: 1
EndChar

StartChar: uni2085
Encoding: 1623 8325 802
GlifName: uni2085
Width: 300
VWidth: 0
Flags: HMW
LayerCount: 3
Fore
SplineSet
248 -47 m 0
 248 -105 213 -137 177 -157 c 0
 155 -169 116 -184 74 -184 c 16
 64 -184 59 -179 59 -175 c 0
 59 -169 63 -159 78 -159 c 0
 134 -159 188 -139 188 -67 c 0
 188 -5 103 3 67 15 c 0
 57 18 52 30 52 36 c 0
 53 60 70 108 76 123 c 0
 81 135 87 144 101 147 c 0
 141 156 172 161 217 161 c 0
 222 161 223 156 223 151 c 0
 223 147 212 113 193 112 c 1
 159 108 129 110 109 107 c 0
 106 107 96 105 93 97 c 1
 89 90 87 86 87 79 c 0
 87 75 93 69 101 67 c 0
 173 47 248 39 248 -47 c 0
EndSplineSet
Validated: 1
EndChar

StartChar: uni2086
Encoding: 1624 8326 803
GlifName: uni2086
Width: 300
VWidth: 0
Flags: HMW
LayerCount: 3
Fore
SplineSet
221 -78 m 0
 221 -45 209 -10 176 -10 c 0
 161 -10 148 -14 137 -22 c 0
 132 -26 127 -30 122 -30 c 0
 116 -30 114 -24 114 -20 c 0
 114 -12 117 -7 124 -2 c 1
 136 10 171 32 193 32 c 0
 257 32 273 -6 273 -46 c 0
 273 -104 229 -182 145 -182 c 0
 64 -182 27 -134 27 -67 c 0
 27 15 73 67 95 88 c 0
 125 116 175 148 248 166 c 0
 252 166 258 161 256 156 c 24
 252 147 241 142 237 140 c 0
 183 119 89 62 89 -70 c 0
 89 -130 124 -162 163 -162 c 0
 200 -162 221 -134 221 -78 c 0
EndSplineSet
Validated: 1
EndChar

StartChar: uni2087
Encoding: 1625 8327 804
GlifName: uni2087
Width: 300
VWidth: 0
Flags: HMW
LayerCount: 3
Fore
SplineSet
224 95 m 2
 226 99 229 104 214 104 c 2
 82 104 l 2
 62 104 43 55 28 55 c 0
 24 55 19 61 19 67 c 0
 19 89 35 135 37 141 c 0
 40 148 50 154 62 154 c 2
 271 154 l 2
 278 154 285 151 285 144 c 0
 285 128 271 109 262 92 c 2
 113 -163 l 2
 107 -174 100 -190 93 -190 c 0
 78 -190 69 -184 69 -173 c 0
 69 -169 77 -151 90 -130 c 2
 224 95 l 2
EndSplineSet
Validated: 1
EndChar

StartChar: uni2088
Encoding: 1626 8328 805
GlifName: uni2088
Width: 300
VWidth: 0
Flags: HMW
LayerCount: 3
Fore
SplineSet
170 23 m 0
 196 44 200 70 200 103 c 16
 200 132 182 159 153 159 c 8
 125 159 100 139 100 112 c 8
 100 70 122 56 162 24 c 1
 165 23 168 21 170 23 c 0
183 11 m 0
 226 -16 265 -38 265 -82 c 8
 265 -143 200 -182 144 -182 c 8
 90 -182 35 -151 35 -97 c 16
 35 -48 90 -24 119 -8 c 0
 125 -5 122 -5 118 -1 c 0
 84 27 48 53 48 101 c 16
 48 146 105 172 155 172 c 16
 201 172 252 147 252 100 c 16
 252 73 229 57 216 46 c 0
 205 37 199 32 186 23 c 0
 176 16 176 15 183 11 c 0
125 -18 m 0
 101 -37 95 -53 95 -88 c 8
 95 -126 114 -166 152 -166 c 16
 186 -166 205 -137 205 -105 c 16
 205 -71 176 -42 143 -20 c 0
 139 -17 136 -15 132 -15 c 0
 130 -15 128 -16 125 -18 c 0
EndSplineSet
Validated: 1
EndChar

StartChar: uni2089
Encoding: 1627 8329 806
GlifName: uni2089
Width: 300
VWidth: 0
Flags: HMW
LayerCount: 3
Fore
SplineSet
157 166 m 0
 220 166 273 114 273 44 c 0
 273 -25 230 -79 195 -111 c 0
 159 -143 88 -188 44 -194 c 1
 43 -194 l 2
 39 -194 34 -190 34 -186 c 8
 34 -179 39 -171 44 -170 c 0
 81 -159 136 -110 163 -76 c 1
 187 -48 213 -17 213 51 c 0
 213 101 183 138 136 138 c 0
 106 138 81 110 81 70 c 0
 81 37 102 11 137 11 c 0
 152 11 156 13 164 16 c 0
 172 19 180 29 187 32 c 0
 190 34 194 15 192 13 c 0
 188 5 175 -4 168 -9 c 0
 158 -16 136 -29 112 -29 c 0
 67 -29 26 3 26 47 c 0
 26 101 78 166 157 166 c 0
EndSplineSet
Validated: 1
EndChar

StartChar: uni2090
Encoding: 1633 8336 811
GlifName: uni2090
Width: 270
VWidth: 0
Flags: HMW
LayerCount: 3
Fore
SplineSet
75 -103 m 0
 75 -126 94 -137 107 -137 c 0
 123 -137 137 -126 147 -118 c 0
 152 -114 155 -110 155 -95 c 10
 155 -66 l 18
 155 -54 151 -52 140 -55 c 0
 90 -69 75 -89 75 -103 c 0
214 -177 m 0
 177 -177 164 -146 159 -146 c 0
 150 -146 132 -177 79 -177 c 0
 52 -177 20 -141 20 -118 c 0
 20 -93 26 -77 58 -65 c 10
 137 -37 l 18
 154 -31 155 -29 155 -13 c 2
 155 10 l 26
 155 30 142 46 118 46 c 0
 102 46 80 41 75 33 c 1
 72 26 73 16 73 8 c 0
 73 0 43 -7 28 -11 c 0
 24 -12 21 -8 24 -1 c 0
 30 14 33 24 49 37 c 0
 69 54 115 79 149 79 c 0
 180 79 210 54 210 26 c 10
 210 -98 l 26
 210 -115 210 -137 229 -137 c 0
 241 -137 246 -135 250 -129 c 0
 255 -123 263 -135 263 -142 c 0
 263 -147 238 -177 214 -177 c 0
EndSplineSet
Validated: 1
EndChar

StartChar: uni2091
Encoding: 1634 8337 812
GlifName: uni2091
Width: 232
VWidth: 0
Flags: HMW
LayerCount: 3
Fore
SplineSet
9 -58 m 0
 9 35 71 78 144 78 c 2
 146 78 l 2
 186 78 225 52 225 14 c 0
 225 0 224 -20 214 -25 c 0
 205 -29 185 -29 167 -29 c 18
 73 -31 l 2
 65 -31 64 -37 64 -47 c 2
 64 -57 l 1
 65 -88 94 -136 144 -137 c 0
 166 -137 180 -128 200 -112 c 0
 201 -111 202 -111 204 -111 c 0
 212 -111 225 -123 222 -128 c 0
 204 -156 175 -179 126 -179 c 0
 68 -179 9 -130 9 -58 c 0
75 7 m 0
 74 5 74 3 74 2 c 0
 74 -2 78 -2 81 -2 c 2
 118 -2 l 10
 136 -2 150 -1 163 3 c 8
 171 5 171 18 171 23 c 0
 171 45 154 51 134 51 c 0
 98 51 85 32 75 7 c 0
EndSplineSet
Validated: 1
EndChar

StartChar: uni2092
Encoding: 1635 8338 813
GlifName: uni2092
Width: 309
VWidth: 0
Flags: HMW
LayerCount: 3
Fore
SplineSet
149 42 m 0
 104 42 86 -1 86 -47 c 0
 86 -102 116 -150 160 -150 c 0
 204 -150 223 -108 223 -60 c 0
 223 -8 194 42 149 42 c 0
160 75 m 0
 225 75 284 20 284 -45 c 0
 284 -115 238 -181 148 -181 c 0
 81 -181 25 -133 25 -61 c 0
 25 13 86 75 160 75 c 0
EndSplineSet
Validated: 1
EndChar

StartChar: uni20A8
Encoding: 1647 8360 815
GlifName: uni20A_8
Width: 958
VWidth: 0
Flags: HM
LayerCount: 3
Fore
SplineSet
215 363 m 0
 215 332 233 330 263 329 c 1
 268 329 l 2
 322 329 348 346 372 368 c 0
 400 395 417 431 417 489 c 0
 417 546 396 627 283 627 c 0
 228 627 220 603 219 573 c 0
 216 500 215 443 215 363 c 0
642 -26 m 0
 585 -26 539 -10 504 33 c 0
 455 93 421 129 352 241 c 0
 341 259 329 270 309 280 c 24
 280 294 248 300 230 302 c 0
 219 303 215 294 215 282 c 2
 215 110 l 2
 215 67 232 33 282 24 c 0
 305 20 315 15 315 6 c 0
 315 -2 303 -5 286 -5 c 0
 232 -5 226 2 188 2 c 24
 137 2 112 -5 58 -5 c 0
 41 -5 29 -2 29 6 c 0
 29 15 39 20 62 24 c 0
 112 33 135 51 135 100 c 2
 135 522 l 2
 135 582 124 613 74 622 c 0
 51 626 41 633 41 642 c 0
 41 650 53 653 70 653 c 0
 124 653 127 652 168 652 c 0
 206 652 225 657 283 657 c 0
 429 657 507 598 507 489 c 0
 507 444 478 394 463 379 c 0
 442 359 402 327 390 321 c 0
 385 319 386 318 390 312 c 0
 452 218 506 150 593 58 c 24
 617 32 637 13 672 13 c 0
 728 13 738 44 738 84 c 0
 738 120 710 143 666 174 c 0
 618 208 569 251 569 300 c 0
 569 353 609 414 707 414 c 0
 747 414 776 401 786 391 c 1
 798 376 803 341 803 313 c 0
 803 310 801 309 797 309 c 0
 787 309 764 321 763 330 c 0
 761 354 732 388 699 388 c 0
 644 388 630 348 630 320 c 0
 630 285 683 251 715 231 c 0
 745 212 810 172 810 106 c 0
 810 37 753 -26 642 -26 c 0
EndSplineSet
Validated: 1
EndChar

StartChar: uni2112
Encoding: 1660 8466 820
GlifName: uni2112
Width: 490
VWidth: 0
Flags: HMW
LayerCount: 3
Fore
SplineSet
344 629 m 0
 345 629 346 629 347 629 c 0
 425 629 448 593 448 547 c 8
 448 520 419 491 406 491 c 0
 396 491 394 496 394 505 c 0
 394 511 395 519 395 527 c 0
 394 560 360 600 326 600 c 0
 260 600 218 502 218 337 c 0
 218 241 163 126 135 102 c 0
 132 100 132 93 139 93 c 0
 258 93 280 34 375 32 c 17
 377 32 l 2
 407 32 434 57 434 87 c 0
 434 106 422 118 421 138 c 24
 421 147 421 159 430 158 c 0
 459 155 477 133 477 105 c 0
 477 28 405 -36 324 -36 c 8
 257 -36 219 -12 164 26 c 8
 142 42 110 55 100 55 c 0
 94 55 70 32 56 6 c 0
 48 -9 34 -14 20 -14 c 8
 3 -14 -10 0 -10 17 c 16
 -10 37 35 81 86 91 c 0
 92 92 94 97 97 103 c 0
 117 140 130 248 130 341 c 0
 130 474 199 628 344 629 c 0
EndSplineSet
Validated: 1
EndChar

